<?xml version="1.0" standalone="no"?>
<!DOCTYPE svg PUBLIC "-//W3C//DTD SVG 1.1//EN" "http://www.w3.org/Graphics/SVG/1.1/DTD/svg11.dtd" >
<svg>
<metadata>
Created by FontForge 20090914 at Sun Jun  9 13:44:09 2019
 By www-data
Copyright (c) by URW &#38; OleFont&#209;&#141;98. Chimkent, Kazakhstan, 2002. All rights reserved.
</metadata>
<defs>
<font id="FKMandarin" horiz-adv-x="983" >
  <font-face 
    font-family="FK Mandarin"
    font-weight="400"
    font-stretch="normal"
    units-per-em="2048"
    panose-1="4 11 5 0 0 0 0 0 0 0"
    ascent="1638"
    descent="-410"
    x-height="1321"
    cap-height="1314"
    bbox="-284 -461 1818 1861"
    underline-thickness="104"
    underline-position="-181"
    unicode-range="U+0020-U+F128"
  />
<missing-glyph horiz-adv-x="1024" 
 />
    <glyph glyph-name=".notdef" horiz-adv-x="1024" 
 />
    <glyph glyph-name="space" unicode=" " horiz-adv-x="512" 
 />
    <glyph glyph-name="quotedbl" unicode="&#x22;" horiz-adv-x="615" 
d="M234 819h-132l-20 546h173zM513 819h-132l-20 546h173z" />
    <glyph glyph-name="numbersign" unicode="#" horiz-adv-x="1024" 
d="M916 551l-17 -110h-187l-70 -441h-121l70 441h-237l-70 -441h-120l70 441h-187l17 110h187l42 263h-187l17 110h187l70 441h121l-70 -441h236l70 441h121l-69 -441h186l-17 -110h-187l-42 -263h187zM650 814h-237l-41 -263h236z" />
    <glyph glyph-name="dollar" unicode="$" 
d="M519 88v-87.9971h-65v92c-112 16 -197.5 64.5 -256.5 145.5s-98.5 204.833 -118.5 371.5l238 -109c20 -98 65.667 -163 137 -195v258c-57.333 9.33301 -105.333 22.666 -144 39.999c-69.333 32 -123.666 77 -162.999 135c-36 54 -54 114.333 -54 181
c0 98 34.333 181 103 249c34.667 34 73.5 60.167 116.5 78.5s90.167 27.5 141.5 27.5v91h65v-95c128 -20 245 -93.333 351 -220l-28 -41c-108.667 94 -216.334 146.333 -323.001 157v-396l40 -2c43.333 0 89.666 8.33301 138.999 25
c-25.333 23.333 -62.333 47.666 -111 72.999l30 46c66.667 -32.667 115.334 -62 146.001 -88c34 24 66.333 56.333 97 97l32 -24l-85 -115c64.667 -74 97 -166.667 97 -278c0 -110.667 -29.333 -205.334 -88 -284.001c-66 -88 -165 -132 -297 -132zM519 290.003
c46 0 88 11 126 33c94.667 53.333 142 138.333 142 255c0 44.667 -10.333 90 -31 136l-117 -157l-68 -2l-52 1v-266zM454 1168c-20.667 0 -39.166 -2.16797 -55.499 -6.50098s-32.833 -11.166 -49.5 -20.499c-64 -34 -96 -86 -96 -156c0 -49.333 17.167 -91.5 51.5 -126.5
s84.166 -61.5 149.499 -79.5v389z" />
    <glyph glyph-name="percent" unicode="%" horiz-adv-x="1251" 
d="M362 680l15.9971 -35.999l-62 -10c-9.33301 0 -22.666 2 -39.999 6c-21.333 -7.33301 -48 -13 -80 -17l-15 34l35 10c-47.333 29.333 -83.666 63 -108.999 101c-48.667 73.333 -73 150.333 -73 231c0 104.667 53 199.667 159 285l-37 62l69 5c16 0 32.5 -1.33301 49.5 -4
s34.167 -7 51.5 -13c28.667 7.33301 60.334 12.666 95.001 15.999l7 -37l-40 -9c108 -75.333 162 -176.333 162 -303c0 -140.667 -62.667 -247.667 -188 -321zM342.997 723.001c38 38.667 65.501 75.832 82.501 111.499s25.5 74.834 25.5 117.501c0 78.667 -27 136 -81 172
c-22.667 15.333 -61.334 31 -116.001 47l-38 73c-57.333 -70.667 -86 -138 -86 -202c0 -30 5.5 -60.5 16.5 -91.5s25.5 -55.167 43.5 -72.5c20 -20.667 59.667 -43 119 -67zM390.998 -39.001l-24.998 242.001l97 197c25.333 53.333 48.666 104.666 69.999 153.999
c36.667 86 76 192.667 118 320c53.333 162.667 91.666 322 114.999 478h37c0 -74 -5.33301 -149.667 -16 -227s-26.667 -160.333 -48 -249c-18 -76 -41 -161 -69 -255c-76 -257.333 -169 -477.333 -279 -660zM1028 38l16.999 -36c-30 -6 -51 -9 -63 -9c-10 0 -23 2 -39 6
c-25.333 -8 -52 -14 -80 -18l-16 35l35 9c-47.333 30 -83.166 63.167 -107.499 99.5s-42.833 74 -55.5 113s-19 79.167 -19 120.5c0 104 53 199 159 285l-36 62l68 4c36 0 70 -5.66699 102 -17c28 7.33301 59.333 12.666 94 15.999l7 -37l-39 -9
c108 -75.333 162 -176 162 -302c0 -139.333 -63 -246.666 -189 -321.999zM1009 81c39.333 40 67.332 77.833 83.999 113.5s25 74.5 25 116.5c0 78.667 -27 136 -81 172c-22.667 14.667 -61.667 30 -117 46l-38 74c-28 -34 -49.333 -68.167 -64 -102.5
s-22 -67.833 -22 -100.5c0 -30.667 5.5 -61.167 16.5 -91.5s26.333 -55 46 -74s58.834 -40.5 117.501 -64.5z" />
    <glyph glyph-name="ampersand" unicode="&#x26;" horiz-adv-x="1214" 
d="M474 1306l30.001 21c46 -16.667 84.333 -32 115 -46c10 4.66699 23 10 39 16l46 16l29 -21c-19.333 -12 -34 -25.667 -44 -41l21 -22c57.333 -58.667 86 -122.334 86 -191.001c0 -40 -7.83301 -76.5 -23.5 -109.5s-42.167 -69.833 -79.5 -110.5l-168 91
c4 -27.333 10 -51.666 18 -72.999c35.333 -4 82.666 -14 141.999 -30l-4 -57l-35 1l-66 -4c12.667 -63.333 48.667 -123.666 108 -180.999c27.333 95.333 77 164.666 149 207.999c43.333 24 93.166 41.667 149.499 53s120.833 17 193.5 17l-155 -299
c-68 0 -116.167 -5.5 -144.5 -16.5s-56.5 -35.167 -84.5 -72.5c17.333 -25.333 34.333 -45 51 -59c14.667 -10 38.334 -20.333 71.001 -31s108 -21.667 226 -33l-246 -321c-48 32 -96.333 71 -145 117l14 -63l-85 -17l-32 189l-42 60l-190 -285
c-80.667 12.667 -148 39.667 -202 81c-58.667 44.667 -104.667 102.334 -138 173.001c-29.333 62 -44 125 -44 189c0 86 31.167 162 93.5 228s149.833 114 262.5 144l-2 58c0 127.333 43.333 242.666 130 345.999zM508.001 989c65.333 39.333 98 75.6689 98 109.002
c0 13.333 -8.33301 33.666 -25 60.999c-48.667 -36.667 -73 -86.334 -73 -149.001v-21zM556.001 368.003c-76 160 -121.998 278.332 -137.998 354.999c-95.333 -35.333 -143 -99.333 -143 -192c0 -47.333 12 -86.666 36 -117.999c35.333 -44 85.666 -66 150.999 -66
c25.333 0 56.666 7 93.999 21z" />
    <glyph glyph-name="quotesingle" unicode="'" horiz-adv-x="337" 
d="M234 819h-132l-20 546h173z" />
    <glyph glyph-name="parenleft" unicode="(" horiz-adv-x="464" 
d="M346 195l-166.001 -240c-41.333 79.333 -70.333 154.333 -87 225s-25 155 -25 253c0 164 25 332 75 504s119.333 326.333 208 463l44 -29c-57.333 -123.333 -96.333 -228.5 -117 -315.5s-31 -196.167 -31 -327.5c0 -97.333 6.33301 -181 19 -251s39.334 -164 80.001 -282
z" />
    <glyph glyph-name="parenright" unicode=")" horiz-adv-x="464" 
d="M118 1159l166 241.001c40 -79.333 68.667 -155 86 -227c7.33301 -32 13.333 -70.333 18 -115s7 -90.334 7 -137.001c0 -164 -25.167 -332 -75.5 -504s-119.5 -326 -207.5 -462l-44 29c57.333 122.667 96.333 227.5 117 314.5s31 196.167 31 327.5
c0 98.667 -6.16699 182 -18.5 250s-38.833 162.333 -79.5 283z" />
    <glyph glyph-name="asterisk" unicode="*" horiz-adv-x="799" 
d="M262 962c-71.333 11.333 -147.331 34.668 -227.998 70.001l114 141c41.333 -20.667 76 -36 104 -46c-29.333 70 -50 153.667 -62 251l179 -28c0 -23.333 0.666992 -41.333 2 -54s4.66602 -31.667 9.99902 -57c41.333 50 97.333 101.333 168 154l65 -168
c-61.333 -38.667 -110.333 -80.334 -147 -125.001c54.667 0 104.167 7 148.5 21s82.166 32.333 113.499 55l35 -32c-76 -76 -162 -130 -258 -162c54 -64 106 -108.667 156 -134l-10 -46c-108 28 -200 78 -276 150c-17.333 -41.333 -30.333 -78 -39 -110s-13 -61 -13 -87
l2 -35l-45 -15c-16.667 65.333 -25 124 -25 176c0 26 2 53 6 81z" />
    <glyph glyph-name="plus" unicode="+" 
d="M88 744h337v342h133v-342h338v-123h-338v-342h-133v342h-337v123z" />
    <glyph glyph-name="comma" unicode="," horiz-adv-x="465" 
d="M68 143l191 187c43.333 -39.333 74.833 -77.5 94.5 -114.5s29.5 -78.833 29.5 -125.5c0 -55.333 -13.833 -111.333 -41.5 -168s-75.5 -124.667 -143.5 -204l-52 49c21.333 62.667 32 112.667 32 150c0 45.333 -8.16699 84.833 -24.5 118.5s-44.833 69.5 -85.5 107.5z" />
    <glyph glyph-name="hyphen" unicode="-" horiz-adv-x="496" 
d="M323 743l173.002 -192c-33.333 -33.333 -68.333 -58.333 -105 -75s-76.334 -25 -119.001 -25c-64.667 0 -155.334 33.333 -272.001 100l50 120c30 -4 54 -6 72 -6c64.667 0 131.667 26 201 78z" />
    <glyph glyph-name="period" unicode="." horiz-adv-x="514" 
d="M250 366l209 -196l-200 -200l-211 200z" />
    <glyph glyph-name="slash" unicode="/" horiz-adv-x="520" 
d="M9 -127l-77 28l579 1591l77 -28z" />
    <glyph glyph-name="zero" unicode="0" 
d="M602 67l28.002 -65.999c-47.333 -10 -79 -15 -95 -15c-18 0 -42 4 -72 12c-44.667 -16.667 -90.334 -28 -137.001 -34l-19 45l79 23c-46 26 -82.333 51.333 -109 76c-68 62.667 -123.333 142 -166 238c-50.667 112.667 -76 226.667 -76 342
c0 109.333 22.5 206.5 67.5 291.5s120.167 173.167 225.5 264.5l-62 113c45.333 4 79.666 6 102.999 6c59.333 0 121 -11 185 -33c54 15.333 108 25.666 162 30.999l8 -48l-89 -22c80 -56 142 -116 186 -180c85.333 -122.667 128 -262.667 128 -420
c0 -270.667 -115.667 -478.667 -347 -624zM579.002 121.001c72.667 83.333 121.665 156 146.998 218c18 42 31.333 83.5 40 124.5s13 84.833 13 131.5c0 75.333 -12.667 143.333 -38 204s-61.666 109 -108.999 145c-40 30 -107.333 60.667 -202 92l-74 157
c-20.667 -28.667 -38.5 -55 -53.5 -79s-27.5 -45.667 -37.5 -65c-44.667 -91.333 -67 -183.333 -67 -276c0 -80.667 16.333 -159 49 -235c24 -54 53.333 -96 88 -126s94.334 -64.333 179.001 -103z" />
    <glyph glyph-name="one" unicode="1" 
d="M631 1212l4.00098 98.002l46 23l22 -165l69 -42l-57 -106c0 -24.667 1.33301 -64.334 4 -119.001c2 -55.333 3 -97 3 -125c0 -203.333 -9 -358 -27 -464c-9.33301 -54 -23 -109.833 -41 -167.5s-42 -121.167 -72 -190.5l-209 293c78 130.667 131 234 159 310
c26 73.333 49.667 186 71 338c-126.667 -96.667 -274.667 -145 -444 -145l-83 3l5 52c60 0 114.667 6.83301 164 20.5s93 34.167 131 61.5c41.333 29.333 74.666 66.666 99.999 111.999s58 128 98 248z" />
    <glyph glyph-name="two" unicode="2" 
d="M918 116l-196.999 -153.999c-36 22 -70.167 41.167 -102.5 57.5s-60.833 28.833 -85.5 37.5c-48.667 17.333 -101.667 26 -159 26c-45.333 0 -93.666 -7 -144.999 -21l-119 -109l17 70c-16 -7.33301 -27.833 -13 -35.5 -17s-21.834 -12 -42.501 -24l-37 50
c52.667 40 99.334 72.333 140.001 97c36 141.333 77.833 247.166 125.5 317.499s118.167 129.5 211.5 177.5l-161 91c74 9.33301 130.333 20 169 32s74.5 30.5 107.5 55.5s57.833 54.667 74.5 89s25 76.833 25 127.5c0 80.667 -19.167 143.167 -57.5 187.5
s-85.5 66.5 -141.5 66.5c-34 0 -69.5 -9.66699 -106.5 -29s-70.167 -45.666 -99.5 -78.999c-45.333 -53.333 -92.666 -136.333 -141.999 -249l-48 37c68.667 141.333 118 231.333 148 270c79.333 104 178.666 156 297.999 156c112.667 0 203 -41.333 271 -124
c60.667 -76 91 -169.333 91 -280c0 -100 -27.667 -187.667 -83 -263c-26.667 -36.667 -70.334 -75.667 -131.001 -117l-73 -51l-64 36c-42 -20.667 -73.833 -40.834 -95.5 -60.501s-43.5 -47.5 -65.5 -83.5c-34 -54.667 -61 -131.667 -81 -231
c73.333 22 146.666 33 219.999 33c70 0 130.833 -8.33301 182.5 -25s115.5 -49 191.5 -97z" />
    <glyph glyph-name="three" unicode="3" 
d="M813 748c80.667 -88 120.998 -186.334 120.998 -295.001c0 -107.333 -33.333 -206.666 -100 -297.999c-78.667 -106.667 -194.334 -160 -347.001 -160c-135.333 0 -247.666 44 -336.999 132c-33.333 32 -66.333 80.333 -99 145l172 205c18 -66 43 -117.667 75 -155
c53.333 -60 116.333 -90 189 -90c72 0 133 29.333 183 88c56.667 66.667 85 144 85 232c0 39.333 -9 79 -27 119c-24 -18 -63.667 -45.667 -119 -83l-241 193c20.667 0 38.334 1.16699 53.001 3.5s30.667 5.5 48 9.5c22 6 49.333 17 82 33
c-48 21.333 -108.333 38.333 -181 51l2 65c95.333 -16 178 -38.667 248 -68c44 46 66 104.667 66 176c0 72.667 -21.5 128 -64.5 166s-94.167 57 -153.5 57c-18 0 -36.167 -2 -54.5 -6s-37.166 -10.667 -56.499 -20c-36.667 -16.667 -69.334 -40 -98.001 -70
c-46.667 -48.667 -93.667 -122.334 -141 -221.001l-48 33c50 109.333 98.667 192 146 248c80 94 183.667 141 311 141c132.667 0 234.334 -43.333 305.001 -130c60 -74 90 -154.667 90 -242c0 -89.333 -36.333 -175.666 -109 -258.999z" />
    <glyph glyph-name="four" unicode="4" 
d="M157 487l-82.9971 -47l-14 34l42 37c-19.333 10 -44 25.333 -74 46l150 163c23.333 -14 45.333 -26 66 -36c58 94 103 184 135 270c16 43.333 32.333 94 49 152s34 125.333 52 202l246 38c-22 -130.667 -65.333 -255.667 -130 -375
c-62 -116.667 -144 -226.334 -246 -329.001c35.333 -10.667 71.666 -19 108.999 -25s73.666 -9 108.999 -9h36c18 2 32 3.33301 42 4c0 19.333 1 44.333 3 75s3 51.334 3 62.001c0 28 -1.33301 58.833 -4 92.5s-7 70.167 -13 109.5l45 15
c22 -48.667 41.167 -100.334 57.5 -155.001s29.833 -112.667 40.5 -174c47.333 12 93.666 33 138.999 63l38 -33c-41.333 -48.667 -96 -91.667 -164 -129c0 -18 1.16699 -45.167 3.5 -81.5s3.5 -60.833 3.5 -73.5c0 -84.667 -7 -160 -21 -226
c-6.66699 -33.333 -15.5 -65.833 -26.5 -97.5s-24.833 -64.5 -41.5 -98.5l-178 210c51.333 120.667 84 219.334 98 296.001c-80 -24.667 -150.333 -37 -211 -37c-78 0 -165 19 -261 57z" />
    <glyph glyph-name="five" unicode="5" 
d="M269 751l-19 -120.001l-75 15l12 79l-55 -20l-23 59l90 33l55 347c-34 16.667 -69.333 39.334 -106 68.001l128 163c106 -74 217 -111 333 -111c118.667 0 218.334 30.333 299.001 91l33 -33c-33.333 -44 -73.666 -82.667 -120.999 -116
c-117.333 -80 -230 -120 -338 -120c-44.667 0 -96.334 9.33301 -155.001 28l-47 -293c60 12.667 113.667 19 161 19c96.667 0 186 -21.667 268 -65c62.667 -34 114.5 -83 155.5 -147s61.5 -136 61.5 -216c0 -117.333 -41.667 -220 -125 -308s-193.666 -132 -330.999 -132
c-130 0 -239.667 44.333 -329 133c-33.333 32 -66.333 80.333 -99 145l172 205c18 -66 43 -117.667 75 -155c53.333 -60 117.666 -90 192.999 -90s139.333 29.333 192 88c48 52 72 112 72 180c0 83.333 -34.333 155.333 -103 216c-30.667 27.333 -64.334 48 -101.001 62
s-76.334 21 -119.001 21c-21.333 0 -44.666 -2 -69.999 -6s-53.333 -10.667 -84 -20z" />
    <glyph glyph-name="six" unicode="6" 
d="M633 165c11.333 11.333 20.001 20.332 26.001 26.999s13.667 15.667 23 27c36.667 50.667 55 115 55 193c0 84.667 -21.333 153.834 -64 207.501s-101 84.167 -175 91.5l-163 220c59.333 26.667 111.333 40 156 40c80.667 0 155.667 -25.667 225 -77
c66 -48.667 118 -111.667 156 -189c34 -71.333 51 -143.333 51 -216c0 -169.333 -85.667 -301.666 -257 -396.999l34 -75c-50 -10 -85 -15 -105 -15c-22 0 -53.667 5 -95 15l-128 -37l-20 40l77 22c-41.333 17.333 -77.666 36.333 -108.999 57
c-73.333 48.667 -133 112 -179 190c-56 94 -84 196.667 -84 308c0 124.667 36 246 108 364c127.333 208 344.666 346.667 651.999 416l10 -48l-149.5 -59.5c-42.333 -17.667 -76.5 -33.5 -102.5 -47.5c-55.333 -28.667 -110.666 -65.667 -165.999 -111
c-60 -49.333 -107.667 -112.333 -143 -189c-30.667 -71.333 -46 -147.333 -46 -228c0 -116 39 -204.667 117 -266c27.333 -20.667 56.666 -37.334 87.999 -50.001c10 -3.33301 27.667 -8 53 -14s49.666 -11 72.999 -15z" />
    <glyph glyph-name="seven" unicode="7" 
d="M860 1389l26.001 -49l-54 -51l-91 -85c41.333 12 97 40.667 167 86l18 -42c-73.333 -60.667 -124.333 -101 -153 -121c-24 -15.333 -67.333 -37.666 -130 -66.999c-35.333 -54.667 -72.333 -129.5 -111 -224.5s-72 -194.5 -100 -298.5
c-14.667 -58 -25.834 -109.833 -33.501 -155.5s-13 -85.334 -16 -119.001s-4.5 -66.5 -4.5 -98.5l-11 -171l-276 243c98 292 244.333 558.333 439 799c-44 -4 -80 -6 -108 -6c-117.333 0 -239 21.333 -365 64l183 283c69.333 -70 129.5 -118.833 180.5 -146.5
s105.167 -41.5 162.5 -41.5c16.667 0 39 3 67 9c66 70 136 134 210 192z" />
    <glyph glyph-name="eight" unicode="8" 
d="M744 1384l7 -56.001l-99 -11c53.333 -26 93.666 -52 120.999 -78c52.667 -50.667 79 -107.667 79 -171c0 -66.667 -27 -127.667 -81 -183c-35.333 -35.333 -95 -77 -179 -125c123.333 -69.333 204 -120.666 242 -153.999c75.333 -66 113 -139.333 113 -220
c0 -73.333 -27.667 -139.333 -83 -198s-137.666 -109.667 -246.999 -153l30 -40l-66 -7c-21.333 0 -45.333 1.33301 -72 4s-49 5 -67 7c-60.667 -16 -127.667 -30 -201 -42l-16 59l85 19c-75.333 38 -130 73.333 -164 106c-73.333 72 -110 144 -110 216
c0 69.333 30 137.666 90 204.999c44.667 50 116 106.333 214 169l-53 42c-78 60 -132 110 -162 150c-14.667 20 -25.667 40.667 -33 62s-11 44 -11 68c0 52 21 103.333 63 154s97.333 89.334 166 116.001l-43 41c20.667 0 44 1 70 3s41.667 3 47 3
c30.667 0 66 -2.33301 106 -7c92.667 10 142.667 15.333 150 16c38 3.33301 72.667 5 104 5zM358 1278c-73.333 -49.333 -110 -111.333 -110 -186c0 -52 29.333 -102 88 -150c34.667 -27.333 97.334 -70.666 188.001 -129.999c110 55.333 165 125.666 165 210.999
c0 52 -22.333 96.167 -67 132.5s-100.334 54.5 -167.001 54.5l-44 -1zM579 82.999c57.333 22 99.667 49.6689 127 83.002c40.667 50 61 102.667 61 158c0 41.333 -12.167 77.833 -36.5 109.5s-67.5 67.5 -129.5 107.5l-199 134c-132.667 -77.333 -199 -162 -199 -254
c0 -34.667 10.167 -68.334 30.5 -101.001s47.5 -58.667 81.5 -78c36.667 -18.667 105 -39.334 205 -62.001z" />
    <glyph glyph-name="nine" unicode="9" 
d="M377 1215c-83.333 -68 -125.002 -154.667 -125.002 -260c0 -67.333 19 -123.5 57 -168.5s91 -73.5 159 -85.5l144 -234c-52 -18 -96.333 -27 -133 -27c-90 0 -171.667 32.333 -245 97c-52.667 48 -94.667 106 -126 174c-14.667 34 -26 68.333 -34 103s-12 69.667 -12 105
c0 114 41.667 207.333 125 280c37.333 32 92 62.667 164 92l-28 78l75 7c35.333 0 77 -8.33301 125 -25l131 27l16 -43l-78 -15c37.333 -16 72 -34.333 104 -55c149.333 -97.333 224 -240.666 224 -429.999c0 -158 -41 -308.667 -123 -452
c-125.333 -219.333 -320.666 -354 -585.999 -404l-5 48c94 38 165 71.333 213 100c52 31.333 99 68 141 110c57.333 56 103 126.667 137 212s51 173 51 263c0 118 -32.667 199.333 -98 244c-33.333 23.333 -103.666 50.666 -210.999 81.999z" />
    <glyph glyph-name="colon" unicode=":" horiz-adv-x="476" 
d="M219 720l197 -179l-164 -181l-204 181zM219 333l203 -179l-170 -181l-199 181z" />
    <glyph glyph-name="semicolon" unicode=";" horiz-adv-x="465" 
d="M68 143l191.998 187c43.333 -39.333 74.833 -77.5 94.5 -114.5s29.5 -78.833 29.5 -125.5c0 -55.333 -13.667 -110.833 -41 -166.5s-75.666 -124.167 -144.999 -205.5l-52 49c22 61.333 33 111.333 33 150c0 45.333 -8.16699 85 -24.5 119s-45.166 69.667 -86.499 107z
M209.998 720l197 -179l-164 -181l-204 181z" />
    <glyph glyph-name="less" unicode="&#x3c;" horiz-adv-x="1024" 
d="M938 1266v-90l-606 -393l606 -406v-241l-852 572v15z" />
    <glyph glyph-name="equal" unicode="=" 
d="M104 885h774v-123h-774v123zM104 603h774v-123h-774v123z" />
    <glyph glyph-name="greater" unicode="&#x3e;" horiz-adv-x="1024" 
d="M86 136v90l606 393l-606 407v240l852 -572v-15z" />
    <glyph glyph-name="question" unicode="?" horiz-adv-x="850" 
d="M203 923l-164.999 209c55.333 64.667 100.833 110.167 136.5 136.5s73.5 46.166 113.5 59.499s82.667 20 128 20c84 0 158.667 -24.333 224 -73c76.667 -58.667 115 -131 115 -217c0 -70 -23.5 -137.5 -70.5 -202.5s-106.833 -112.5 -179.5 -142.5l27 -32
c-32.667 -20 -55.834 -40 -69.501 -60s-20.5 -43 -20.5 -69c0 -26.667 12.667 -63 38 -109l-37 -36c-62.667 33.333 -107.334 67.333 -134.001 102c-36 46 -54 98.667 -54 158c0 25.333 5 54 15 86c-25.333 16.667 -58.666 45.667 -99.999 87l54 55
c34 -30.667 62.333 -54.334 85 -71.001c14.667 14.667 36 30.334 64 47.001l62 -74c92 40 138 93 138 159c0 36 -14 67 -42 93c-32.667 30.667 -71.667 46 -117 46c-50 0 -92 -19 -126 -57c-10.667 -11.333 -39 -49.666 -85 -114.999zM209.001 198l184 188l183 -188
l-183 -185z" />
    <glyph glyph-name="at" unicode="@" horiz-adv-x="1502" 
d="M1281 275l-176.003 -259.999c-79.333 -14 -150.333 -24.667 -213 -32s-118.334 -11 -167.001 -11c-218.667 0 -394 79 -526 237c-105.333 126.667 -158 272.667 -158 438c0 191.333 66 358.666 198 501.999c75.333 81.333 160.333 142.333 255 183s200.334 61 317.001 61
c153.333 0 287.666 -36 402.999 -108c83.333 -52 147 -121.667 191 -209c37.333 -76 56 -157 56 -243c0 -102 -25.333 -194.667 -76 -278c-45.333 -74 -106.666 -128.667 -183.999 -164c-50 -22 -101.667 -33 -155 -33c-122 0 -200 49.333 -234 148l-176 -163
c-124 92 -186 206.333 -186 343c0 118.667 52.667 215.667 158 291c69.333 49.333 141 74 215 74c50 0 94.333 -12.333 133 -37l42 41l29 -38l-31 -34c20.667 -18.667 39 -38.334 55 -59.001l-31 -23l-50 45c-29.333 -58.667 -44 -125 -44 -199c0 -80 13.5 -150 40.5 -210
s67.167 -90 120.5 -90c60.667 0 115 40 163 120c45.333 76.667 68 166.334 68 269.001c0 146.667 -53.667 264.667 -161 354c-95.333 80 -211 120 -347 120c-186 0 -336.667 -62 -452 -186c-45.333 -50.667 -81.666 -110.667 -108.999 -180
c-13.333 -34.667 -23.333 -68.667 -30 -102s-10 -67.666 -10 -102.999c0 -98.667 26.667 -190.334 80 -275.001c58 -92 142.333 -163 253 -213c100.667 -45.333 208.334 -68 323.001 -68c158.667 0 297.334 30.667 416.001 92zM919.997 979.001
c-34 18.667 -65.333 28 -94 28c-55.333 0 -103.666 -22 -144.999 -66c-29.333 -32 -51.333 -66.167 -66 -102.5s-22 -76.5 -22 -120.5c0 -48.667 13.167 -89 39.5 -121s60.833 -48 103.5 -48c19.333 0 42 6 68 18l-4 69c0 70 9.16699 131.667 27.5 185
s49.166 106 92.499 158z" />
    <glyph glyph-name="A" unicode="A" horiz-adv-x="1171" 
d="M854 1028l36.998 -14.999c-33.333 -94 -50 -172 -50 -234c0 -113.333 36 -227.666 108 -342.999c20 -32 44.5 -64.5 73.5 -97.5s63.833 -67.5 104.5 -103.5l-204 -285c-83.333 113.333 -147.666 243.333 -192.999 390l-175 150c-14 -77.333 -35.333 -151.333 -64 -222
c-37.333 -96.667 -78.833 -166.667 -124.5 -210s-101.167 -65 -166.5 -65c-62.667 0 -112.5 18 -149.5 54s-55.5 80.667 -55.5 134c0 51.333 16.167 95.166 48.5 131.499s71.166 54.5 116.499 54.5c50.667 0 103.334 -25.333 158.001 -76c55.333 92 96.333 191 123 297
l-196 167l64 87l152 -127l3 93c0 65.333 -6 131.666 -18 198.999c-33.333 14.667 -64.333 33.5 -93 56.5s-75.667 67.833 -141 134.5l33 27c24.667 -10 48 -18.333 70 -25s45.667 -13 71 -19c-4.66699 10 -11 22.833 -19 38.5s-17.333 31.834 -28 48.501l66 47
c30 -40 57.333 -86.667 82 -140c22 0 43.667 3.16699 65 9.5s42 14.833 62 25.5c36.667 19.333 81.667 54.666 135 105.999l190 -223c-31.333 -27.333 -59.666 -49 -84.999 -65zM797.998 1001c-54.667 -18.667 -110 -28 -166 -28c-26 0 -53.667 2 -83 6
c17.333 -85.333 26 -171 26 -257c0 -9.33301 -0.666992 -25 -2 -47s-2 -39.333 -2 -52l120 -101l-5 93c0 38.667 2 74.5 6 107.5s10.667 64.833 20 95.5c17.333 60.667 46 121.667 86 183z" />
    <glyph glyph-name="B" unicode="B" horiz-adv-x="1170" 
d="M931 739c34 -22.667 57 -39.6709 69 -51.0039c40.667 -34.667 73.334 -78.5 98.001 -131.5s37 -105.167 37 -156.5c0 -66 -18.167 -128.333 -54.5 -187s-87.5 -108 -153.5 -148c-42.667 -26.667 -102.334 -51.667 -179.001 -75l-324 298
c-40 -109.333 -81.333 -207 -124 -293l-225 253c111.333 174.667 167 358 167 550c0 138 -24.333 257.667 -73 359c-26 -17.333 -59.667 -43.666 -101 -78.999l-48 42c44 54.667 78.667 93.334 104 116.001c-18 26.667 -41.667 56.334 -71 89.001l62 56
c33.333 -35.333 60.666 -66.666 81.999 -93.999c52.667 29.333 109.334 51.333 170.001 66s127.667 22 201 22c129.333 0 236 -26 320 -78c50 -31.333 90 -74 120 -128s45 -111.667 45 -173c0 -102 -40.667 -187.667 -122 -257zM438 672.996
c4 -38 6.00098 -100.669 6.00098 -188.002v-19v-16v-14v-11v-43c-2 -10.667 -3.33301 -18 -4 -22l81 -37c21.333 -9.33301 40.333 -16.666 57 -21.999c32.667 -8.66699 66.667 -13 102 -13c61.333 0 115.666 15 162.999 45c62.667 40.667 94 97 94 169
c0 60 -30.333 120 -91 180c-34.667 -17.333 -90 -36.666 -166 -57.999l-117 102zM474.001 802.994l-69 60l18 -84zM253.001 1206.99c64 -97.333 111.999 -202.666 143.999 -315.999c56 -6 96 -9 120 -9c70 0 131.667 15 185 45c26.667 14.667 48.334 34.5 65.001 59.5
s25 49.167 25 72.5c0 32.667 -13.5 64.667 -40.5 96s-63.833 56.166 -110.5 74.499s-102 27.5 -166 27.5c-81.333 0 -155.333 -16.667 -222 -50z" />
    <glyph glyph-name="C" unicode="C" horiz-adv-x="1144" 
d="M970 1376l167.002 -228.003c-32.667 -18.667 -64.667 -39.667 -96 -63c20 -26 39 -53 57 -81l-67 -49l-67 85c-36 -36.667 -61 -68.667 -75 -96c-11.333 -22.667 -29 -72.667 -53 -150c-30.667 42.667 -51.667 78.334 -63 107.001c-10.667 32 -16 68 -16 108
c0 64 17.333 130.333 52 199c-81.333 40 -150 60 -206 60c-50.667 0 -99.5 -11.5 -146.5 -34.5s-87.833 -54.167 -122.5 -93.5c-38 -45.333 -68.333 -100.666 -91 -165.999s-34 -132.333 -34 -201c0 -156 51 -280 153 -372c41.333 -37.333 93 -68 155 -92
c60 -22 121 -33 183 -33c76.667 0 143 14.833 199 44.5s118 82.5 186 158.5l40 -33l-355 -450c-20.667 -2.66699 -43 -5 -67 -7s-42 -3 -54 -3c-67.333 0 -134.5 12.167 -201.5 36.5s-127.167 58.5 -180.5 102.5c-70 58.667 -124.333 130.334 -163 215.001
c-44 98 -66 203.333 -66 316c0 140.667 31.667 270.334 95 389.001c58 107.333 133 187.666 225 240.999c75.333 43.333 154.666 65 237.999 65c22 0 42 -1 60 -3s36.333 -5.66699 55 -11c37.333 -9.33301 85.666 -28 144.999 -56c28.667 30 66.667 61.667 114 95z" />
    <glyph glyph-name="D" unicode="D" horiz-adv-x="1119" 
d="M178 1179c-24.667 -20 -58 -50 -100 -90l-44 37c38 46.667 73.667 84.334 107 113.001l-23 30c-9.33301 12 -19.333 24 -30 36l46 63c24.667 -25.333 48 -51.333 70 -78c38.667 25.333 78.167 44.333 118.5 57s83.5 19 129.5 19c133.333 0 259.666 -48.333 378.999 -145
c80 -64.667 142.333 -142.834 187 -234.501s67 -188.167 67 -289.5c0 -76 -12.667 -155.5 -38 -238.5s-60 -157.5 -104 -223.5c-49.333 -77.333 -121.666 -153 -216.999 -227l-315 324c-4 -43.333 -13.5 -85.5 -28.5 -126.5s-47.5 -117.833 -97.5 -230.5l-251 259
c63.333 98.667 109.333 183 138 253c50 120 75 243.667 75 371c0 124 -23 231 -69 321zM257 1232c58.667 -80.667 101.332 -157.002 127.999 -229.002c40 -111.333 60 -235.666 60 -372.999c0 -60 -5 -126 -15 -198c47.333 -24.667 91.333 -37 132 -37
c82.667 0 149 31.333 199 94c58.667 74.667 88 162.334 88 263.001c0 106 -24.667 207 -74 303c-45.333 89.333 -104.666 154 -177.999 194c-51.333 27.333 -103 41 -155 41c-58 0 -119.667 -19.333 -185 -58z" />
    <glyph glyph-name="E" unicode="E" horiz-adv-x="1191" 
d="M354 1102c-15.333 -42 -27.168 -83.3301 -35.501 -123.997s-12.5 -82.334 -12.5 -125.001c66 14.667 124.667 22 176 22c73.333 0 135 -9.16699 185 -27.5s103.667 -51.833 161 -100.5l-211 -221c-97.333 95.333 -196.333 151.666 -297 168.999
c24 -96.667 62 -175.667 114 -237c39.333 -48.667 87 -88.334 143 -119.001c79.333 -42.667 164 -64 254 -64c89.333 0 207 26.333 353 79l-230 -338c-35.333 -6 -66.5 -10.667 -93.5 -14s-51.5 -5 -73.5 -5c-88.667 0 -176 14.333 -262 43
c-155.333 52 -261 158.667 -317 320c-14 42 -24.667 86 -32 132s-11 94 -11 144v40c-19.333 -14 -50.666 -47 -93.999 -99l-57 34c38 64.667 91.667 125.334 161 182.001c3.33301 24.667 7.66602 49.167 12.999 73.5s11.666 47.666 18.999 69.999s17.5 50 30.5 83
s29.5 71.5 49.5 115.5c-52.667 28 -121.667 71.333 -207 130l43 47c38.667 -20.667 71.334 -36 98.001 -46c26 -8 66 -17 120 -27c18 26 38.333 53 61 81l49 -38l-35 -54c44 -4 83 -6 117 -6c43.333 0 84.333 2.33301 123 7s74.334 12 107.001 22
c66 18.667 129.667 50 191 94l205 -225c-64 -38 -122 -64 -174 -78c-38 -10 -76 -17.667 -114 -23s-76.667 -8 -116 -8c-129.333 0 -263 30.333 -401 91z" />
    <glyph glyph-name="F" unicode="F" horiz-adv-x="1023" 
d="M319 1099c-24.667 -100 -36.998 -180.001 -36.998 -240.001c73.333 30.667 146.333 46 219 46c73.333 0 159.666 -18 258.999 -54l-141 -242c-40 18.667 -73.833 33.834 -101.5 45.501s-53.167 21.167 -76.5 28.5c-39.333 12 -80.666 18 -123.999 18h-16
c12 -46 25 -86.833 39 -122.5s29.667 -67.834 47 -96.501c34 -56 92.333 -128.333 175 -217l-218 -283c-50.667 60.667 -90.334 122 -119.001 184c-54.667 127.333 -82 255.333 -82 384l4 99c-8.66699 -8 -20.334 -21.333 -35.001 -40l-52 39
c37.333 59.333 71.666 104 102.999 134c20 116 50 231.667 90 347c-33.333 17.333 -68 37.333 -104 60s-74.333 49.334 -115 80.001l48 53c78 -48.667 146.333 -83 205 -103l43 100l47 -21l-30 -96c44 -10 85.667 -15 125 -15c68 0 130.5 11.167 187.5 33.5
s127.5 62.833 211.5 121.5l200 -219c-72 -38 -134.5 -64 -187.5 -78s-115.833 -21 -188.5 -21c-125.333 0 -250.666 25 -375.999 75z" />
    <glyph glyph-name="G" unicode="G" horiz-adv-x="1172" 
d="M1003 1116c27.333 -26.667 54.333 -56.6689 81 -90.002l-58 -43c-20.667 28 -45.334 55.667 -74.001 83c-31.333 -33.333 -57.666 -65.666 -78.999 -96.999c-18 -28 -42.333 -72.333 -73 -133c-32.667 70.667 -49 138 -49 202c0 55.333 11 109 33 161
c-74.667 43.333 -145 65 -211 65c-102 0 -187.333 -40.333 -256 -121c-75.333 -89.333 -113 -205.666 -113 -348.999c0 -155.333 47 -278 141 -368c88.667 -82.667 203 -124 343 -124c8.66699 0 20.667 0.333008 36 1s33.333 2 54 4c-44.667 97.333 -67 189.666 -67 276.999
c0 48.667 9.33301 110 28 184l295 -162c-10.667 -36.667 -19.334 -71.167 -26.001 -103.5s-10 -61.166 -10 -86.499l67 105l53 -33l-108 -164c16.667 -65.333 32.334 -112.833 47.001 -142.5s41.667 -66.167 81 -109.5l-23 -50c-76.667 39.333 -144.334 84.333 -203.001 135
l-112 -147c-71.333 -7.33301 -118 -11 -140 -11c-121.333 0 -243 42 -365 126c-174 120 -261 295 -261 525c0 170 39.333 318.667 118 446c58 92.667 131.667 161 221 205c66.667 33.333 134.334 50 203.001 50c70 0 150 -23 240 -69c31.333 31.333 68 64 110 98l166 -188z
" />
    <glyph glyph-name="H" unicode="H" horiz-adv-x="1102" 
d="M363 732l90.999 130.996l121 -123c16 -17.333 35 -32.666 57 -45.999l-1 42c0 204 38.667 406.667 116 608l260 -270c-81.333 -141.333 -137.666 -280.666 -168.999 -417.999c80 17.333 157.333 42.666 232 75.999l38 -54c-38 -38 -81.667 -72.667 -131 -104
s-100.666 -56.666 -153.999 -75.999c11.333 -119.333 24.5 -204.333 39.5 -255s46.167 -113.667 93.5 -189l-41 -54c-78 83.333 -135.167 157 -171.5 221s-64.5 142 -84.5 234l-30 -1c-68 0 -150 26 -246 78l1 -58c0 -79.333 -6.66699 -149 -20 -209
c-6 -28.667 -16 -65.667 -30 -111s-31.333 -96.666 -52 -153.999l-262 246c55.333 112 93.666 222.333 114.999 331c14 74 24.667 148.167 32 222.5s11 148.166 11 221.499c0 68.667 -16.333 161.334 -49 278.001l37 24c52.667 -84 94 -170.167 124 -258.5
s54.333 -199.166 73 -332.499z" />
    <glyph glyph-name="I" unicode="I" horiz-adv-x="483" 
d="M323 0l-262.001 245.999c45.333 132.667 75.5 237.834 90.5 315.501s22.5 168.5 22.5 272.5c0 96 -6.16699 173.667 -18.5 233s-37.5 132.666 -75.5 219.999l44 27c56.667 -80 108.334 -173.333 155.001 -280c85.333 -198 128 -400.667 128 -608
c0 -85.333 -6.33301 -159.333 -19 -222c-6 -31.333 -14.333 -64.166 -25 -98.499s-24 -69.5 -40 -105.5z" />
    <glyph glyph-name="J" unicode="J" horiz-adv-x="866" 
d="M682 226c40.667 35.333 76.333 72.333 107 111l45 -29c-36.667 -69.333 -71 -123 -103 -161c12 -16 35 -42.667 69 -80l-39 -51c-42 29.333 -76 55.666 -102 78.999c-100.667 -68.667 -205 -103 -313 -103c-75.333 0 -146.5 18.333 -213.5 55
s-127.167 90.334 -180.5 161.001l259 361c20.667 -68 42 -129.833 64 -185.5s44.333 -105.167 67 -148.5c36.667 -68.667 82.667 -103 138 -103c36 0 73.333 10.333 112 31c-31.333 38.667 -60 79.667 -86 123c-86.667 153.333 -130 327 -130 521
c0 224 47.667 428.333 143 613l260 -238c-24 -48 -45 -92.333 -63 -133s-33 -78 -45 -112c-44 -126 -66 -247 -66 -363c0 -129.333 25.667 -245.333 77 -348z" />
    <glyph glyph-name="K" unicode="K" horiz-adv-x="1138" 
d="M221 605c-44.667 8 -107.001 29.332 -187.001 63.999l28 77c71.333 -31.333 132 -47 182 -47c6 32.667 10.667 64.834 14 96.501s5 62.5 5 92.5c0 79.333 -8.66699 149 -26 209s-50.666 131 -99.999 213l74 49c68 -100 118.5 -192.667 151.5 -278
s59.833 -192.666 80.5 -321.999l51 31c-8 68 -12 132.667 -12 194c0 25.333 1 53.166 3 83.499s5.33301 64.833 10 103.5l71 -16v-65c0 -82.667 8.33301 -157 25 -223c148.667 142 234 317.333 256 526l252 -226c-72 -182.667 -219.333 -339 -442 -469
c55.333 -104.667 119 -188.5 191 -251.5s166.333 -116.167 283 -159.5l-228 -296c-189.333 163.333 -316.333 378 -381 644l-63 -19l2 -36c0 -130.667 -24.667 -268.667 -74 -414c-8.66699 -25.333 -20.5 -52.666 -35.5 -81.999s-33.833 -62 -56.5 -98l-230 303
c72 107.333 124 212.666 156 315.999z" />
    <glyph glyph-name="L" unicode="L" horiz-adv-x="1052" 
d="M1086 283l-211.003 -279.999c-189.333 111.333 -342 167 -458 167c-12.667 0 -34 -2.33301 -64 -7c-28.667 -56.667 -72.667 -124.667 -132 -204l-47 40c30.667 44 53.667 85.667 69 125c-56.667 -28.667 -122 -77.334 -196 -146.001l-40 41
c50.667 55.333 99.334 103 146.001 143c44 37.333 86 67 126 89c15.333 84.667 23 163.667 23 237c0 101.333 -11.333 196 -34 284c-18.667 72.667 -41.5 133 -68.5 181s-67.5 100 -121.5 156l243 278c60.667 -97.333 104 -191.5 130 -282.5s39 -194.5 39 -310.5
c0 -34 -1 -65.833 -3 -95.5s-5.33301 -58.834 -10 -87.501c-8.66699 -55.333 -28 -143.333 -58 -264c38 7.33301 78.667 13 122 17s88.333 6 135 6c38.667 0 74.334 -1.33301 107.001 -4s62.334 -7 89.001 -13c54 -11.333 125.333 -34.666 214 -69.999z" />
    <glyph glyph-name="M" unicode="M" horiz-adv-x="1398" 
d="M210 0l-203.002 250.995c72 70 126 145.333 162 226c52 116 78 241 78 375c0 39.333 -3 82 -9 128c-13.333 8.66699 -35 21 -65 37l-52 28l82 107c-34.667 54 -70 105.667 -106 155l50 45c18 -20.667 34.833 -41.667 50.5 -63l53.5 -76l91 117
c88.667 -76.667 155.334 -147.667 200.001 -213c42 -61.333 91.667 -162 149 -302c70.667 126.667 129.5 219.834 176.5 279.501s118.833 133.834 215.5 222.501l70 -93c38 49.333 73.333 90.666 106 123.999l49 -51c-29.333 -37.333 -61.666 -83.666 -96.999 -138.999
l74 -91l-89 -43l-5 -88c0 -120.667 16 -235.667 48 -345c16.667 -55.333 37.167 -109.5 61.5 -162.5s54.5 -107.833 90.5 -164.5l-212 -257c-34.667 58 -61 107.667 -79 149c-14.667 38 -29.334 87.667 -44.001 149c-19.333 90.667 -29 187.334 -29 290.001
c0 113.333 13.667 230.666 41 351.999c-157.333 -139.333 -255 -255 -293 -347c30 -131.333 45 -239.666 45 -324.999c0 -48 -6.66699 -139.667 -20 -275h-66l5 129c0 75.333 -2.5 130.5 -7.5 165.5s-16.167 75.833 -33.5 122.5
c-17.333 -49.333 -28.166 -94.833 -32.499 -136.5s-6.5 -119.834 -6.5 -234.501v-46h-71c-10 90 -15 158.667 -15 206c0 126.667 17 248.667 51 366c-28 48 -65 101 -111 159c-43.333 54.667 -87.333 102.334 -132 143.001c9.33301 -48 16.333 -93.833 21 -137.5
s7 -88.5 7 -134.5c0 -127.333 -15.167 -236.166 -45.5 -326.499s-81.5 -182.166 -153.5 -275.499z" />
    <glyph glyph-name="N" unicode="N" horiz-adv-x="1093" 
d="M956 153l53 -102.998l-53 -42l-50 78l-70 -94c-29.333 106 -59.166 201 -89.499 285s-63.166 162 -98.499 234c-67.333 138 -154.333 273.667 -261 407c6 -40 10.667 -78 14 -114s5 -71.667 5 -107c0 -126.667 -14.333 -247.334 -43 -362.001s-74.334 -232 -137.001 -352
l-219 270c95.333 154 161.333 281.667 198 383c41.333 112.667 62 222.667 62 330c0 17.333 -1 33.666 -3 48.999s-5.66699 31.666 -11 48.999c-52.667 50.667 -112.334 101 -179.001 151l30 62l53 -29l49 -30l-36 60l56 49c36 -51.333 71.333 -113.333 106 -186
c146.667 -97.333 267.667 -199.666 363 -306.999c0 86 10 170.833 30 254.5s51.667 169.167 95 256.5l239 -263c-79.333 -124.667 -143 -284.334 -191 -479.001c32.667 -49.333 64 -100.666 94 -153.999c28 -50 57.333 -106.667 88 -170z" />
    <glyph glyph-name="O" unicode="O" horiz-adv-x="1233" 
d="M755 67l35.9971 -66.0039c-59.333 -10 -99 -15 -119 -15c-23.333 0 -54 4 -92 12l-126 -34l-24 45l54 23c-101.333 46 -184.666 105 -249.999 177c-59.333 66.667 -106.333 141.834 -141 225.501s-52 165.167 -52 244.5c0 127.333 40 243 120 347
c50.667 66.667 133.667 139.334 249 218.001l-78 113c20.667 0 45.334 1 74.001 3s47.334 3 56.001 3c73.333 0 151 -11 233 -33l157 31l11 -48l-66 -22c122 -69.333 214.667 -147.666 278 -234.999c78 -108 117 -229.667 117 -365c0 -134 -36.167 -253.167 -108.5 -357.5
s-181.833 -193.166 -328.5 -266.499zM725.997 120.996c47.333 40 83.334 72.998 108.001 98.998c108 110 162 235.667 162 377c0 115.333 -37.333 210 -112 284c-42.667 42 -88.334 73 -137.001 93s-107.667 33 -177 39l-125 180c-69.333 -71.333 -119 -133 -149 -185
c-22 -39.333 -38.667 -78.5 -50 -117.5s-17 -79.167 -17 -120.5c0 -111.333 37 -210.666 111 -297.999c32.667 -38 69.667 -67.667 111 -89c38.667 -19.333 93.667 -35.666 165 -48.999z" />
    <glyph glyph-name="P" unicode="P" horiz-adv-x="1173" 
d="M96 950l-62.002 32.999c52 88 102.333 158.333 151 211l-88 105l46 54c32 -36 63 -73 93 -111c110.667 86.667 241 130 391 130c154.667 0 280 -43.667 376 -131c42 -38 75.167 -82.333 99.5 -133s36.5 -101.667 36.5 -153c0 -106.667 -53 -201.667 -159 -285
c-32 -26.667 -93.333 -65.334 -184 -116.001l-304 157c13.333 -61.333 20 -123 20 -185c0 -117.333 -12.667 -215 -38 -293s-70.666 -156.333 -135.999 -235l-206 234c38 58.667 65.333 103.667 82 135c63.333 120.667 95 258.334 95 413.001c0 34 -1.33301 66 -4 96
s-7 57.667 -13 83c-11.333 50.667 -31.666 107 -60.999 169c-38.667 -37.333 -83.667 -96.666 -135 -177.999zM284.998 1174c85.333 -123.333 148.668 -256.666 190.001 -399.999c106 19.333 182 41.666 228 66.999c86.667 46.667 130 114 130 202
c0 75.333 -28.333 131.5 -85 168.5s-122.334 55.5 -197.001 55.5c-87.333 0 -176 -31 -266 -93z" />
    <glyph glyph-name="Q" unicode="Q" horiz-adv-x="1279" 
d="M804 -13l-44.998 -4c-32.667 0 -87.667 15 -165 45l-205 -48l-20 62l118 27c-88 46 -173.333 107.333 -256 184c-131.333 122 -197 265.333 -197 430c0 134 45 257.667 135 371c58 72 154.333 154.333 289 247l-58 79l99 1c52 0 107.667 -6.66699 167 -20
c26 3.33301 53.167 6 81.5 8s55.833 3 82.5 3l114 -1v-55c-14 0 -28.167 -1.33301 -42.5 -4s-29.166 -6.33398 -44.499 -11.001c119.333 -70 209.333 -149 270 -237c76.667 -112 115 -227.333 115 -346c0 -73.333 -17.333 -153.666 -52 -240.999s-80.667 -166 -138 -236
c28.667 -30.667 56.167 -54.167 82.5 -70.5s72.166 -38.833 137.499 -67.5l-210 -290c-68.667 58 -119.834 106.333 -153.501 145s-65.834 87 -96.501 145l-43 -16zM783.002 176c-10 34 -17.667 67.668 -23 101.001s-8 67.333 -8 102c0 58 6.16699 115.167 18.5 171.5
s34.833 129.5 67.5 219.5v-54c0 -85.333 8 -155.5 24 -210.5s45.667 -111.5 89 -169.5c50 75.333 75 167 75 275c0 75.333 -10.5 137.666 -31.5 186.999s-55.5 94 -103.5 134c-74 61.333 -162.667 97.333 -266 108l-120 195c-173.333 -152 -260 -309.333 -260 -472
c0 -140.667 63.333 -255 190 -343c58 -40 131 -66.667 219 -80l88 -188z" />
    <glyph glyph-name="R" unicode="R" horiz-adv-x="1142" 
d="M254 -9l-197.001 278.999c69.333 106.667 120 213.334 152 320.001c15.333 51.333 27 105.666 35 162.999s12 117.333 12 180c0 35.333 -2 71.5 -6 108.5s-10.667 78.5 -20 124.5c-30 -22 -60.167 -45.5 -90.5 -70.5s-60.5 -51.167 -90.5 -78.5l-42 49
c68 63.333 136 119 204 167c-16 42 -34.333 82.667 -55 122l48 33l35 -56.5c12.667 -21 24 -40.833 34 -59.5c68.667 36.667 128.167 62.834 178.5 78.501s101.5 23.5 153.5 23.5c120.667 0 228.5 -36.5 323.5 -109.5s142.5 -164.167 142.5 -273.5
c0 -76.667 -20.167 -144 -60.5 -202s-112.833 -121.667 -217.5 -191c-33.333 24.667 -72.333 51 -117 79c76 -135.333 223.667 -259.333 443 -372l-231 -311c-193.333 150 -305.666 386 -336.999 708l-109 12c0 -17.333 1.16699 -42.833 3.5 -76.5s3.5 -55.167 3.5 -64.5
c0 -148.667 -24.667 -276.334 -74 -383.001c-20 -43.333 -60.333 -109.666 -121 -198.999zM544.999 783.999l-1.00098 72.001c0 41.333 1.66699 79.5 5 114.5s9.33301 73.167 18 114.5l57 -17c-10 -71.333 -15 -127.333 -15 -168c0 -27.333 3.33301 -56.333 10 -87
c16.667 8 31.334 16.333 44.001 25c95.333 62 143 135 143 219c0 16 -1.33301 30.167 -4 42.5s-8 26.5 -16 42.5c-12 27.333 -29 50.666 -51 69.999c-42 36 -103.333 54 -184 54c-85.333 0 -168.333 -17.667 -249 -53c39.333 -92 67.333 -166.833 84 -224.5
s33 -131.5 49 -221.5c18.667 0 36.5 1.5 53.5 4.5s35.833 7.16699 56.5 12.5z" />
    <glyph glyph-name="S" unicode="S" horiz-adv-x="1137" 
d="M34 597l306.997 -126.999c45.333 -163.333 137.666 -245 276.999 -245c86 0 163 32 231 96s102 144 102 240c0 53.333 -13.667 106.333 -41 159l-152 -183l-90 -3c-127.333 0 -238 18.5 -332 55.5s-165.667 89.833 -215 158.5c-46.667 64.667 -70 135.667 -70 213
c0 105.333 40.333 198 121 278c92.667 91.333 210.334 137 353.001 137c95.333 0 185.666 -20.667 270.999 -62s173 -108 263 -200l-37 -48c-67.333 50.667 -124 87.667 -170 111c-97.333 50 -198.666 75 -303.999 75c-92.667 0 -165.667 -23 -219 -69
c-46.667 -40.667 -70 -89 -70 -145c0 -80 40.333 -143 121 -189c77.333 -43.333 167.333 -65 270 -65c28.667 0 58.834 2.33301 90.501 7s63.5 12 95.5 22c-40 32 -76 55.333 -108 70s-79 29 -141 43l3 65c128.667 -26 238.667 -73.333 330 -142
c42.667 23.333 89.334 58.333 140.001 105l27 -20l-111 -134c84 -84 126 -192.333 126 -325c0 -90.667 -20.667 -175.334 -62 -254.001c-82 -155.333 -226.667 -233 -434 -233c-197.333 0 -347 71.333 -449 214c-32 44 -57.167 95.167 -75.5 153.5
s-34.166 138.833 -47.499 241.5z" />
    <glyph glyph-name="T" unicode="T" horiz-adv-x="1077" 
d="M433 1309l67.999 36l89 -146c94 0 181 13.167 261 39.5s150.667 64.833 212 115.5l48 -35c-53.333 -70.667 -106.333 -124.5 -159 -161.5s-143.667 -85.5 -273 -145.5c22.667 -61.333 39.667 -121.333 51 -180s17 -117 17 -175c0 -122.667 -18.5 -238.5 -55.5 -347.5
s-94.167 -218.833 -171.5 -329.5l-232 242c76 94 135.667 191.667 179 293c54 131.333 81 248 81 350c0 26 -3 61 -9 105c-109.333 0 -211 11.5 -305 34.5s-183.333 56.5 -268 100.5l179 222c65.333 -35.333 121 -62 167 -80c19.333 -6.66699 43.333 -13.5 72 -20.5
s61.334 -13.833 98.001 -20.5z" />
    <glyph glyph-name="U" unicode="U" horiz-adv-x="1089" 
d="M563 83l-93 126.999c66 24.667 116.667 47.167 152 67.5s68.666 47.833 99.999 82.5c37.333 42 64.5 84.167 81.5 126.5s25.5 90.5 25.5 144.5l-1 79l-2 79c0 106.667 15.667 210.334 47 311.001c19.333 62.667 39.333 110.5 60 143.5s52 66.833 94 101.5l28 -19
c-14 -32 -26.167 -64.333 -36.5 -97s-18.833 -66.667 -25.5 -102c-11.333 -68 -17 -152.667 -17 -254c0 -71.333 4.33301 -150.333 13 -237c4 -46 6 -84 6 -114c0 -126 -65.667 -265.667 -197 -419l93 36l29 -54c-68 -32 -138.667 -55.667 -212 -71l-60 -46l-27 37
c-55.333 0 -111.166 11.667 -167.499 35s-108.5 56 -156.5 98c-63.333 55.333 -105.333 115.666 -126 180.999c-10.667 36 -19.5 81.833 -26.5 137.5s-10.5 121.167 -10.5 196.5c0 56.667 -2.16699 106.667 -6.5 150s-10.833 83.666 -19.5 120.999
c-14 66.667 -38.667 132.334 -74 197.001l211 252c44 -60 74.333 -119.333 91 -178s25 -140 25 -244c0 -70.667 -3.33301 -143.667 -10 -219c0 -32 -1.5 -64.5 -4.5 -97.5s-5.83301 -66.167 -8.5 -99.5c0 -28.667 1 -57.5 3 -86.5s5.66699 -61.833 11 -98.5
c10 -69.333 30.833 -124.166 62.5 -164.499s81.167 -74.5 148.5 -102.5z" />
    <glyph glyph-name="V" unicode="V" horiz-adv-x="1188" 
d="M1161 1343l34.001 -41.0049c-82 -94.667 -149 -183.667 -201 -267s-102 -180 -150 -290c-54 -125.333 -94.667 -250.666 -122 -375.999l28 -99l35 -124l34 -121l-79 -24c-18 76 -38 140 -60 192c-9.33301 -45.333 -21.666 -120 -36.999 -224l-237 305
c17.333 50.667 33.5 94.334 48.5 131.001s31.5 74 49.5 112c-49.333 74.667 -94.333 139 -135 193c-42.667 56.667 -80.334 102.334 -113.001 137.001c-67.333 73.333 -155 148.333 -263 225l230 278c82 -83.333 150.667 -168.333 206 -255
c51.333 -81.333 113 -204.666 185 -369.999c37.333 60.667 76.166 118.334 116.499 173.001s82.833 107 127.5 157c87.333 98 188.333 194 303 288z" />
    <glyph glyph-name="W" unicode="W" horiz-adv-x="1688" 
d="M569 1094l202.998 252.998c58.667 -51.333 103 -96 133 -134c45.333 36.667 107.333 80 186 130l27 -53c-66.667 -56 -120.667 -105 -162 -147c62.667 -93.333 119.334 -207.666 170.001 -342.999c145.333 216.667 344 388.334 596 515.001l28 -44
c-123.333 -102.667 -220.333 -195.334 -291 -278.001c-28.667 -34 -54.667 -68.833 -78 -104.5s-45.333 -74.5 -66 -116.5c-17.333 -37.333 -30.333 -71.666 -39 -102.999s-13 -61.666 -13 -90.999c0 -49.333 20.667 -129.666 62 -240.999l-65 -73
c4 -24.667 9.33301 -60.667 16 -108s12 -88.333 16 -123l-65 -19c-15.333 73.333 -29 129.666 -41 168.999l-156 -174c-30.667 104 -46 209.667 -46 317c0 96 11.333 180.333 34 253c-80 147.333 -157.667 260 -233 338c-67.333 -122.667 -101 -235.667 -101 -339
c0 -71.333 16.667 -146.333 50 -225l-52 -60c2.66699 -28 5 -61.167 7 -99.5s3 -76.5 3 -114.5v-37l-66 -14c0 38 -1.66699 71 -5 99s-8.33301 55 -15 81l-184 -208c-16 107.333 -24 191.666 -24 252.999c0 101.333 15.667 205 47 311
c-73.333 117.333 -146.666 216.333 -219.999 297s-168.666 168 -285.999 262l208 239c165.333 -174.667 295.666 -366 390.999 -574c44.667 78 95 150.667 151 218z" />
    <glyph glyph-name="X" unicode="X" horiz-adv-x="962" 
d="M955 242l-181.998 -242.997c-159.333 100 -265.333 241.667 -318 425c-45.333 -112 -113 -205.333 -203 -280c-40.667 -32.667 -77.834 -55.667 -111.501 -69s-78.167 -22.666 -133.5 -27.999c97.333 79.333 168.333 147 213 203c89.333 110.667 134 222 134 334
c0 144 -57.667 272.333 -173 385c-37.333 37.333 -95.333 78.666 -174 123.999l199 244c149.333 -114.667 243.666 -251.667 282.999 -411c44.667 97.333 94.167 174.166 148.5 230.499s136.833 117.166 247.5 182.499l32 -44c-74 -54.667 -130 -100.834 -168 -138.501
s-73 -82.167 -105 -133.5c-53.333 -87.333 -80 -176 -80 -266c0 -116 41.667 -223.667 125 -323c31.333 -37.333 66 -70 104 -98c35.333 -24.667 89.333 -56 162 -94z" />
    <glyph glyph-name="Y" unicode="Y" horiz-adv-x="928" 
d="M163 588l-12.002 50.002c48.667 31.333 94 62.666 136 93.999c-71.333 199.333 -173.666 366.666 -306.999 501.999l24 57c164 -105.333 304.667 -253.666 422 -444.999c77.333 72 138.5 141.833 183.5 209.5s89.167 156.167 132.5 265.5l207 -232
c-58 -89.333 -118.5 -161.5 -181.5 -216.5s-151.5 -110.5 -265.5 -166.5l22 -61c54.667 -146.667 91.334 -260.334 110.001 -341.001l-279 -303c0 107.333 -5.83301 211.333 -17.5 312s-27.5 200.667 -47.5 300z" />
    <glyph glyph-name="Z" unicode="Z" horiz-adv-x="1046" 
d="M949 1362l28.002 -49.999l-60 -50l-101 -85c47.333 12 109.333 40.333 186 85l21 -41c-84.667 -63.333 -141 -103.333 -169 -120c-14.667 -8.66699 -33.167 -18.334 -55.5 -29.001s-50.5 -23 -84.5 -37c-72 -66 -147.667 -179.333 -227 -340
c-76.667 -157.333 -126 -300 -148 -428c124.667 43.333 248 65 370 65c87.333 0 197.333 -18.667 330 -56l-217 -248c-111.333 48.667 -221.333 73 -330 73c-48 0 -106.667 -6.33301 -176 -19l1 -116l-87 87c-24 -8.66699 -76 -34.667 -156 -78l-36 29l55 64
c19.333 22 39 43 59 63l-118 118c96 222 271.333 474.333 526 757l-96 -4c-131.333 0 -267.333 21.333 -408 64l204 282c75.333 -65.333 142.166 -112.333 200.499 -141s118.166 -43 179.499 -43c16 0 41 2 75 6c74 70 152 134 234 192z" />
    <glyph glyph-name="bracketleft" unicode="[" horiz-adv-x="540" 
d="M177 8l-55.999 -49.001l-20 71c-24.667 10 -49.334 24.667 -74.001 44l55 45c-14.667 96.667 -22 197.334 -22 302.001c0 280.667 50 557 150 829l-54 24l24 50l57 -5l27 59l32 -29l-9 -31c52 0 101.333 14.333 148 43l105 -122c-52.667 -27.333 -99 -41 -139 -41
c-36 0 -82 10 -138 30c-23.333 -105.333 -35 -235.333 -35 -390c0 -61.333 1 -116.333 3 -165c2 -49.333 5.66699 -99.5 11 -150.5s12 -100.833 20 -149.5s19 -108 33 -178l6 -33c28 -6 53.333 -9 76 -9c23.333 0 55 2 95 6l44 -75c-124 -54 -217.333 -81 -280 -81
c-8 0 -17 0.333008 -27 1s-20.667 2 -32 4z" />
    <glyph glyph-name="backslash" unicode="\" horiz-adv-x="520" 
d="M511 -127l-579 1591l77 28l579 -1591z" />
    <glyph glyph-name="bracketright" unicode="]" horiz-adv-x="540" 
d="M418 1328l55.9971 50l20 -71c24.667 -10 49.334 -24.667 74.001 -44l-55 -46c6.66699 -44 12 -92 16 -144s6 -104.333 6 -157c0 -280.667 -50 -557 -150 -829l54 -24l-23 -50l-58 5l-27 -59l-32 29l10 31c-52 0 -101.667 -14.333 -149 -43l-105 122
c52.667 27.333 99 41 139 41c36 0 82 -10 138 -30c23.333 107.333 35 237.333 35 390c0 61.333 -1 116.333 -3 165c-2 48 -5.66699 96 -11 144c-9.33301 96 -27 207.333 -53 334l-6 33c-29.333 6 -54.666 9 -75.999 9c-23.333 0 -54.666 -2 -93.999 -6l-45 75
c124 54 217.333 81 280 81c15.333 0 35 -2 59 -6z" />
    <glyph glyph-name="asciicircum" unicode="^" horiz-adv-x="1024" 
d="M1078 582h-91l-392 606l-407 -607h-241l573 853h14z" />
    <glyph glyph-name="underscore" unicode="_" horiz-adv-x="1024" 
d="M39 -182h946v-104h-946v104z" />
    <glyph glyph-name="grave" unicode="`" horiz-adv-x="1024" 
d="M284 1661l101.999 156c20 -48 44.167 -89.167 72.5 -123.5s67.833 -71.833 118.5 -112.5c44 -34 98 -68 162 -102l-10 -43c-173.333 16.667 -321.666 91.667 -444.999 225z" />
    <glyph glyph-name="a" unicode="a" horiz-adv-x="1171" 
d="M854 1028l36.998 -14.999c-33.333 -94 -50 -172 -50 -234c0 -113.333 36 -227.666 108 -342.999c20 -32 44.5 -64.5 73.5 -97.5s63.833 -67.5 104.5 -103.5l-204 -285c-83.333 113.333 -147.666 243.333 -192.999 390l-175 150c-14 -77.333 -35.333 -151.333 -64 -222
c-37.333 -96.667 -78.833 -166.667 -124.5 -210s-101.167 -65 -166.5 -65c-62.667 0 -112.5 18 -149.5 54s-55.5 80.667 -55.5 134c0 51.333 16.167 95.166 48.5 131.499s71.166 54.5 116.499 54.5c50.667 0 103.334 -25.333 158.001 -76c55.333 92 96.333 191 123 297
l-196 167l64 87l152 -127l3 93c0 65.333 -6 131.666 -18 198.999c-33.333 14.667 -64.333 33.5 -93 56.5s-75.667 67.833 -141 134.5l33 27c24.667 -10 48 -18.333 70 -25s45.667 -13 71 -19c-4.66699 10 -11 22.833 -19 38.5s-17.333 31.834 -28 48.501l66 47
c30 -40 57.333 -86.667 82 -140c22 0 43.667 3.16699 65 9.5s42 14.833 62 25.5c36.667 19.333 81.667 54.666 135 105.999l190 -223c-31.333 -27.333 -59.666 -49 -84.999 -65zM797.998 1001c-54.667 -18.667 -110 -28 -166 -28c-26 0 -53.667 2 -83 6
c17.333 -85.333 26 -171 26 -257c0 -9.33301 -0.666992 -25 -2 -47s-2 -39.333 -2 -52l120 -101l-5 93c0 38.667 2 74.5 6 107.5s10.667 64.833 20 95.5c17.333 60.667 46 121.667 86 183z" />
    <glyph glyph-name="b" unicode="b" horiz-adv-x="1169" 
d="M931 739c34 -22.667 57 -39.6709 69 -51.0039c40.667 -34.667 73.334 -78.5 98.001 -131.5s37 -105.167 37 -156.5c0 -66 -18.167 -128.333 -54.5 -187s-87.5 -108 -153.5 -148c-42.667 -26.667 -102.334 -51.667 -179.001 -75l-324 298
c-40 -109.333 -81.333 -207 -124 -293l-225 253c111.333 174.667 167 358 167 550c0 138 -24.333 257.667 -73 359c-26 -17.333 -59.667 -43.666 -101 -78.999l-48 42c44 54.667 78.667 93.334 104 116.001c-18 26.667 -41.667 56.334 -71 89.001l62 56
c33.333 -35.333 60.666 -66.666 81.999 -93.999c52.667 29.333 109.334 51.333 170.001 66s127.667 22 201 22c129.333 0 236 -26 320 -78c50 -31.333 90 -74 120 -128s45 -111.667 45 -173c0 -102 -40.667 -187.667 -122 -257zM438 672.996
c4 -38 6.00098 -100.669 6.00098 -188.002v-19v-16v-14v-11v-43c-2 -10.667 -3.33301 -18 -4 -22l81 -37c21.333 -9.33301 40.333 -16.666 57 -21.999c32.667 -8.66699 66.667 -13 102 -13c61.333 0 115.666 15 162.999 45c62.667 40.667 94 97 94 169
c0 60 -30.333 120 -91 180c-34.667 -17.333 -90 -36.666 -166 -57.999l-117 102zM474.001 802.994l-69 60l18 -84zM253.001 1206.99c64 -97.333 111.999 -202.666 143.999 -315.999c56 -6 96 -9 120 -9c70 0 131.667 15 185 45c26.667 14.667 48.334 34.5 65.001 59.5
s25 49.167 25 72.5c0 32.667 -13.5 64.667 -40.5 96s-63.833 56.166 -110.5 74.499s-102 27.5 -166 27.5c-81.333 0 -155.333 -16.667 -222 -50z" />
    <glyph glyph-name="c" unicode="c" horiz-adv-x="1145" 
d="M970 1376l167.002 -228.003c-32.667 -18.667 -64.667 -39.667 -96 -63c20 -26 39 -53 57 -81l-67 -49l-67 85c-36 -36.667 -61 -68.667 -75 -96c-11.333 -22.667 -29 -72.667 -53 -150c-30.667 42.667 -51.667 78.334 -63 107.001c-10.667 32 -16 68 -16 108
c0 64 17.333 130.333 52 199c-81.333 40 -150 60 -206 60c-50.667 0 -99.5 -11.5 -146.5 -34.5s-87.833 -54.167 -122.5 -93.5c-38 -45.333 -68.333 -100.666 -91 -165.999s-34 -132.333 -34 -201c0 -156 51 -280 153 -372c41.333 -37.333 93 -68 155 -92
c60 -22 121 -33 183 -33c76.667 0 143 14.833 199 44.5s118 82.5 186 158.5l40 -33l-355 -450c-20.667 -2.66699 -43 -5 -67 -7s-42 -3 -54 -3c-67.333 0 -134.5 12.167 -201.5 36.5s-127.167 58.5 -180.5 102.5c-70 58.667 -124.333 130.334 -163 215.001
c-44 98 -66 203.333 -66 316c0 140.667 31.667 270.334 95 389.001c58 107.333 133 187.666 225 240.999c75.333 43.333 154.666 65 237.999 65c22 0 42 -1 60 -3s36.333 -5.66699 55 -11c37.333 -9.33301 85.666 -28 144.999 -56c28.667 30 66.667 61.667 114 95z" />
    <glyph glyph-name="d" unicode="d" horiz-adv-x="1118" 
d="M178 1179c-24.667 -20 -58 -50 -100 -90l-44 37c38 46.667 73.667 84.334 107 113.001l-23 30c-9.33301 12 -19.333 24 -30 36l46 63c24.667 -25.333 48 -51.333 70 -78c38.667 25.333 78.167 44.333 118.5 57s83.5 19 129.5 19c133.333 0 259.666 -48.333 378.999 -145
c80 -64.667 142.333 -142.834 187 -234.501s67 -188.167 67 -289.5c0 -76 -12.667 -155.5 -38 -238.5s-60 -157.5 -104 -223.5c-49.333 -77.333 -121.666 -153 -216.999 -227l-315 324c-4 -43.333 -13.5 -85.5 -28.5 -126.5s-47.5 -117.833 -97.5 -230.5l-251 259
c63.333 98.667 109.333 183 138 253c50 120 75 243.667 75 371c0 124 -23 231 -69 321zM257 1232c58.667 -80.667 101.332 -157.002 127.999 -229.002c40 -111.333 60 -235.666 60 -372.999c0 -60 -5 -126 -15 -198c47.333 -24.667 91.333 -37 132 -37
c82.667 0 149 31.333 199 94c58.667 74.667 88 162.334 88 263.001c0 106 -24.667 207 -74 303c-45.333 89.333 -104.666 154 -177.999 194c-51.333 27.333 -103 41 -155 41c-58 0 -119.667 -19.333 -185 -58z" />
    <glyph glyph-name="e" unicode="e" horiz-adv-x="1192" 
d="M354 1102c-15.333 -42 -27.168 -83.3301 -35.501 -123.997s-12.5 -82.334 -12.5 -125.001c66 14.667 124.667 22 176 22c73.333 0 135 -9.16699 185 -27.5s103.667 -51.833 161 -100.5l-211 -221c-97.333 95.333 -196.333 151.666 -297 168.999
c24 -96.667 62 -175.667 114 -237c39.333 -48.667 87 -88.334 143 -119.001c79.333 -42.667 164 -64 254 -64c89.333 0 207 26.333 353 79l-230 -338c-35.333 -6 -66.5 -10.667 -93.5 -14s-51.5 -5 -73.5 -5c-88.667 0 -176 14.333 -262 43
c-155.333 52 -261 158.667 -317 320c-14 42 -24.667 86 -32 132s-11 94 -11 144v40c-19.333 -14 -50.666 -47 -93.999 -99l-57 34c38 64.667 91.667 125.334 161 182.001c3.33301 24.667 7.66602 49.167 12.999 73.5s11.666 47.666 18.999 69.999s17.5 50 30.5 83
s29.5 71.5 49.5 115.5c-52.667 28 -121.667 71.333 -207 130l43 47c38.667 -20.667 71.334 -36 98.001 -46c26 -8 66 -17 120 -27c18 26 38.333 53 61 81l49 -38l-35 -54c44 -4 83 -6 117 -6c43.333 0 84.333 2.33301 123 7s74.334 12 107.001 22
c66 18.667 129.667 50 191 94l205 -225c-64 -38 -122 -64 -174 -78c-38 -10 -76 -17.667 -114 -23s-76.667 -8 -116 -8c-129.333 0 -263 30.333 -401 91z" />
    <glyph glyph-name="f" unicode="f" horiz-adv-x="1024" 
d="M319 1099c-24.667 -100 -36.998 -180.001 -36.998 -240.001c73.333 30.667 146.333 46 219 46c73.333 0 159.666 -18 258.999 -54l-141 -242c-40 18.667 -73.833 33.834 -101.5 45.501s-53.167 21.167 -76.5 28.5c-39.333 12 -80.666 18 -123.999 18h-16
c12 -46 25 -86.833 39 -122.5s29.667 -67.834 47 -96.501c34 -56 92.333 -128.333 175 -217l-218 -283c-50.667 60.667 -90.334 122 -119.001 184c-54.667 127.333 -82 255.333 -82 384l4 99c-8.66699 -8 -20.334 -21.333 -35.001 -40l-52 39
c37.333 59.333 71.666 104 102.999 134c20 116 50 231.667 90 347c-33.333 17.333 -68 37.333 -104 60s-74.333 49.334 -115 80.001l48 53c78 -48.667 146.333 -83 205 -103l43 100l47 -21l-30 -96c44 -10 85.667 -15 125 -15c68 0 130.5 11.167 187.5 33.5
s127.5 62.833 211.5 121.5l200 -219c-72 -38 -134.5 -64 -187.5 -78s-115.833 -21 -188.5 -21c-125.333 0 -250.666 25 -375.999 75z" />
    <glyph glyph-name="g" unicode="g" horiz-adv-x="1171" 
d="M1003 1116c27.333 -26.667 54.333 -56.6689 81 -90.002l-58 -43c-20.667 28 -45.334 55.667 -74.001 83c-31.333 -33.333 -57.666 -65.666 -78.999 -96.999c-18 -28 -42.333 -72.333 -73 -133c-32.667 70.667 -49 138 -49 202c0 55.333 11 109 33 161
c-74.667 43.333 -145 65 -211 65c-102 0 -187.333 -40.333 -256 -121c-75.333 -89.333 -113 -205.666 -113 -348.999c0 -155.333 47 -278 141 -368c88.667 -82.667 203 -124 343 -124c8.66699 0 20.667 0.333008 36 1s33.333 2 54 4c-44.667 97.333 -67 189.666 -67 276.999
c0 48.667 9.33301 110 28 184l295 -162c-10.667 -36.667 -19.334 -71.167 -26.001 -103.5s-10 -61.166 -10 -86.499l67 105l53 -33l-108 -164c16.667 -65.333 32.334 -112.833 47.001 -142.5s41.667 -66.167 81 -109.5l-23 -50c-76.667 39.333 -144.334 84.333 -203.001 135
l-112 -147c-71.333 -7.33301 -118 -11 -140 -11c-121.333 0 -243 42 -365 126c-174 120 -261 295 -261 525c0 170 39.333 318.667 118 446c58 92.667 131.667 161 221 205c66.667 33.333 134.334 50 203.001 50c70 0 150 -23 240 -69c31.333 31.333 68 64 110 98l166 -188z
" />
    <glyph glyph-name="h" unicode="h" horiz-adv-x="1102" 
d="M363 732l90.999 130.996l121 -123c16 -17.333 35 -32.666 57 -45.999l-1 42c0 204 38.667 406.667 116 608l260 -270c-81.333 -141.333 -137.666 -280.666 -168.999 -417.999c80 17.333 157.333 42.666 232 75.999l38 -54c-38 -38 -81.667 -72.667 -131 -104
s-100.666 -56.666 -153.999 -75.999c11.333 -119.333 24.5 -204.333 39.5 -255s46.167 -113.667 93.5 -189l-41 -54c-78 83.333 -135.167 157 -171.5 221s-64.5 142 -84.5 234l-30 -1c-68 0 -150 26 -246 78l1 -58c0 -79.333 -6.66699 -149 -20 -209
c-6 -28.667 -16 -65.667 -30 -111s-31.333 -96.666 -52 -153.999l-262 246c55.333 112 93.666 222.333 114.999 331c14 74 24.667 148.167 32 222.5s11 148.166 11 221.499c0 68.667 -16.333 161.334 -49 278.001l37 24c52.667 -84 94 -170.167 124 -258.5
s54.333 -199.166 73 -332.499z" />
    <glyph glyph-name="i" unicode="i" horiz-adv-x="483" 
d="M323 0l-262.001 245.999c45.333 132.667 75.5 237.834 90.5 315.501s22.5 168.5 22.5 272.5c0 96 -6.16699 173.667 -18.5 233s-37.5 132.666 -75.5 219.999l44 27c56.667 -80 108.334 -173.333 155.001 -280c85.333 -198 128 -400.667 128 -608
c0 -85.333 -6.33301 -159.333 -19 -222c-6 -31.333 -14.333 -64.166 -25 -98.499s-24 -69.5 -40 -105.5z" />
    <glyph glyph-name="j" unicode="j" horiz-adv-x="866" 
d="M682 226c40.667 35.333 76.333 72.333 107 111l45 -29c-36.667 -69.333 -71 -123 -103 -161c12 -16 35 -42.667 69 -80l-39 -51c-42 29.333 -76 55.666 -102 78.999c-100.667 -68.667 -205 -103 -313 -103c-75.333 0 -146.5 18.333 -213.5 55
s-127.167 90.334 -180.5 161.001l259 361c20.667 -68 42 -129.833 64 -185.5s44.333 -105.167 67 -148.5c36.667 -68.667 82.667 -103 138 -103c36 0 73.333 10.333 112 31c-31.333 38.667 -60 79.667 -86 123c-86.667 153.333 -130 327 -130 521
c0 224 47.667 428.333 143 613l260 -238c-24 -48 -45 -92.333 -63 -133s-33 -78 -45 -112c-44 -126 -66 -247 -66 -363c0 -129.333 25.667 -245.333 77 -348z" />
    <glyph glyph-name="k" unicode="k" horiz-adv-x="1139" 
d="M221 605c-44.667 8 -107.001 29.332 -187.001 63.999l28 77c71.333 -31.333 132 -47 182 -47c6 32.667 10.667 64.834 14 96.501s5 62.5 5 92.5c0 79.333 -8.66699 149 -26 209s-50.666 131 -99.999 213l74 49c68 -100 118.5 -192.667 151.5 -278
s59.833 -192.666 80.5 -321.999l51 31c-8 68 -12 132.667 -12 194c0 25.333 1 53.166 3 83.499s5.33301 64.833 10 103.5l71 -16v-65c0 -82.667 8.33301 -157 25 -223c148.667 142 234 317.333 256 526l252 -226c-72 -182.667 -219.333 -339 -442 -469
c55.333 -104.667 119 -188.5 191 -251.5s166.333 -116.167 283 -159.5l-228 -296c-189.333 163.333 -316.333 378 -381 644l-63 -19l2 -36c0 -130.667 -24.667 -268.667 -74 -414c-8.66699 -25.333 -20.5 -52.666 -35.5 -81.999s-33.833 -62 -56.5 -98l-230 303
c72 107.333 124 212.666 156 315.999z" />
    <glyph glyph-name="l" unicode="l" horiz-adv-x="1053" 
d="M1086 283l-211.003 -279.999c-189.333 111.333 -342 167 -458 167c-12.667 0 -34 -2.33301 -64 -7c-28.667 -56.667 -72.667 -124.667 -132 -204l-47 40c30.667 44 53.667 85.667 69 125c-56.667 -28.667 -122 -77.334 -196 -146.001l-40 41
c50.667 55.333 99.334 103 146.001 143c44 37.333 86 67 126 89c15.333 84.667 23 163.667 23 237c0 101.333 -11.333 196 -34 284c-18.667 72.667 -41.5 133 -68.5 181s-67.5 100 -121.5 156l243 278c60.667 -97.333 104 -191.5 130 -282.5s39 -194.5 39 -310.5
c0 -34 -1 -65.833 -3 -95.5s-5.33301 -58.834 -10 -87.501c-8.66699 -55.333 -28 -143.333 -58 -264c38 7.33301 78.667 13 122 17s88.333 6 135 6c38.667 0 74.334 -1.33301 107.001 -4s62.334 -7 89.001 -13c54 -11.333 125.333 -34.666 214 -69.999z" />
    <glyph glyph-name="m" unicode="m" horiz-adv-x="1399" 
d="M210 0l-203.002 250.995c72 70 126 145.333 162 226c52 116 78 241 78 375c0 39.333 -3 82 -9 128c-13.333 8.66699 -35 21 -65 37l-52 28l82 107c-34.667 54 -70 105.667 -106 155l50 45c18 -20.667 34.833 -41.667 50.5 -63l53.5 -76l91 117
c88.667 -76.667 155.334 -147.667 200.001 -213c42 -61.333 91.667 -162 149 -302c70.667 126.667 129.5 219.834 176.5 279.501s118.833 133.834 215.5 222.501l70 -93c38 49.333 73.333 90.666 106 123.999l49 -51c-29.333 -37.333 -61.666 -83.666 -96.999 -138.999
l74 -91l-89 -43l-5 -88c0 -120.667 16 -235.667 48 -345c16.667 -55.333 37.167 -109.5 61.5 -162.5s54.5 -107.833 90.5 -164.5l-212 -257c-34.667 58 -61 107.667 -79 149c-14.667 38 -29.334 87.667 -44.001 149c-19.333 90.667 -29 187.334 -29 290.001
c0 113.333 13.667 230.666 41 351.999c-157.333 -139.333 -255 -255 -293 -347c30 -131.333 45 -239.666 45 -324.999c0 -48 -6.66699 -139.667 -20 -275h-66l5 129c0 75.333 -2.5 130.5 -7.5 165.5s-16.167 75.833 -33.5 122.5
c-17.333 -49.333 -28.166 -94.833 -32.499 -136.5s-6.5 -119.834 -6.5 -234.501v-46h-71c-10 90 -15 158.667 -15 206c0 126.667 17 248.667 51 366c-28 48 -65 101 -111 159c-43.333 54.667 -87.333 102.334 -132 143.001c9.33301 -48 16.333 -93.833 21 -137.5
s7 -88.5 7 -134.5c0 -127.333 -15.167 -236.166 -45.5 -326.499s-81.5 -182.166 -153.5 -275.499z" />
    <glyph glyph-name="n" unicode="n" horiz-adv-x="1094" 
d="M956 153l53 -102.998l-53 -42l-50 78l-70 -94c-29.333 106 -59.166 201 -89.499 285s-63.166 162 -98.499 234c-67.333 138 -154.333 273.667 -261 407c6 -40 10.667 -78 14 -114s5 -71.667 5 -107c0 -126.667 -14.333 -247.334 -43 -362.001s-74.334 -232 -137.001 -352
l-219 270c95.333 154 161.333 281.667 198 383c41.333 112.667 62 222.667 62 330c0 17.333 -1 33.666 -3 48.999s-5.66699 31.666 -11 48.999c-52.667 50.667 -112.334 101 -179.001 151l30 62l53 -29l49 -30l-36 60l56 49c36 -51.333 71.333 -113.333 106 -186
c146.667 -97.333 267.667 -199.666 363 -306.999c0 86 10 170.833 30 254.5s51.667 169.167 95 256.5l239 -263c-79.333 -124.667 -143 -284.334 -191 -479.001c32.667 -49.333 64 -100.666 94 -153.999c28 -50 57.333 -106.667 88 -170z" />
    <glyph glyph-name="o" unicode="o" horiz-adv-x="1233" 
d="M755 67l35.9971 -66.0039c-59.333 -10 -99 -15 -119 -15c-23.333 0 -54 4 -92 12l-126 -34l-24 45l54 23c-101.333 46 -184.666 105 -249.999 177c-59.333 66.667 -106.333 141.834 -141 225.501s-52 165.167 -52 244.5c0 127.333 40 243 120 347
c50.667 66.667 133.667 139.334 249 218.001l-78 113c20.667 0 45.334 1 74.001 3s47.334 3 56.001 3c73.333 0 151 -11 233 -33l157 31l11 -48l-66 -22c122 -69.333 214.667 -147.666 278 -234.999c78 -108 117 -229.667 117 -365c0 -134 -36.167 -253.167 -108.5 -357.5
s-181.833 -193.166 -328.5 -266.499zM725.997 120.996c47.333 40 83.334 72.998 108.001 98.998c108 110 162 235.667 162 377c0 115.333 -37.333 210 -112 284c-42.667 42 -88.334 73 -137.001 93s-107.667 33 -177 39l-125 180c-69.333 -71.333 -119 -133 -149 -185
c-22 -39.333 -38.667 -78.5 -50 -117.5s-17 -79.167 -17 -120.5c0 -111.333 37 -210.666 111 -297.999c32.667 -38 69.667 -67.667 111 -89c38.667 -19.333 93.667 -35.666 165 -48.999z" />
    <glyph glyph-name="p" unicode="p" horiz-adv-x="1174" 
d="M96 950l-62.002 32.999c52 88 102.333 158.333 151 211l-88 105l46 54c32 -36 63 -73 93 -111c110.667 86.667 241 130 391 130c154.667 0 280 -43.667 376 -131c42 -38 75.167 -82.333 99.5 -133s36.5 -101.667 36.5 -153c0 -106.667 -53 -201.667 -159 -285
c-32 -26.667 -93.333 -65.334 -184 -116.001l-304 157c13.333 -61.333 20 -123 20 -185c0 -117.333 -12.667 -215 -38 -293s-70.666 -156.333 -135.999 -235l-206 234c38 58.667 65.333 103.667 82 135c63.333 120.667 95 258.334 95 413.001c0 34 -1.33301 66 -4 96
s-7 57.667 -13 83c-11.333 50.667 -31.666 107 -60.999 169c-38.667 -37.333 -83.667 -96.666 -135 -177.999zM284.998 1174c85.333 -123.333 148.668 -256.666 190.001 -399.999c106 19.333 182 41.666 228 66.999c86.667 46.667 130 114 130 202
c0 75.333 -28.333 131.5 -85 168.5s-122.334 55.5 -197.001 55.5c-87.333 0 -176 -31 -266 -93z" />
    <glyph glyph-name="q" unicode="q" horiz-adv-x="1279" 
d="M804 -13l-44.998 -4c-32.667 0 -87.667 15 -165 45l-205 -48l-20 62l118 27c-88 46 -173.333 107.333 -256 184c-131.333 122 -197 265.333 -197 430c0 134 45 257.667 135 371c58 72 154.333 154.333 289 247l-58 79l99 1c52 0 107.667 -6.66699 167 -20
c26 3.33301 53.167 6 81.5 8s55.833 3 82.5 3l114 -1v-55c-14 0 -28.167 -1.33301 -42.5 -4s-29.166 -6.33398 -44.499 -11.001c119.333 -70 209.333 -149 270 -237c76.667 -112 115 -227.333 115 -346c0 -73.333 -17.333 -153.666 -52 -240.999s-80.667 -166 -138 -236
c28.667 -30.667 56.167 -54.167 82.5 -70.5s72.166 -38.833 137.499 -67.5l-210 -290c-68.667 58 -119.834 106.333 -153.501 145s-65.834 87 -96.501 145l-43 -16zM783.002 176c-10 34 -17.667 67.668 -23 101.001s-8 67.333 -8 102c0 58 6.16699 115.167 18.5 171.5
s34.833 129.5 67.5 219.5v-54c0 -85.333 8 -155.5 24 -210.5s45.667 -111.5 89 -169.5c50 75.333 75 167 75 275c0 75.333 -10.5 137.666 -31.5 186.999s-55.5 94 -103.5 134c-74 61.333 -162.667 97.333 -266 108l-120 195c-173.333 -152 -260 -309.333 -260 -472
c0 -140.667 63.333 -255 190 -343c58 -40 131 -66.667 219 -80l88 -188z" />
    <glyph glyph-name="r" unicode="r" horiz-adv-x="1143" 
d="M254 -9l-197.001 278.999c69.333 106.667 120 213.334 152 320.001c15.333 51.333 27 105.666 35 162.999s12 117.333 12 180c0 35.333 -2 71.5 -6 108.5s-10.667 78.5 -20 124.5c-30 -22 -60.167 -45.5 -90.5 -70.5s-60.5 -51.167 -90.5 -78.5l-42 49
c68 63.333 136 119 204 167c-16 42 -34.333 82.667 -55 122l48 33l35 -56.5c12.667 -21 24 -40.833 34 -59.5c68.667 36.667 128.167 62.834 178.5 78.501s101.5 23.5 153.5 23.5c120.667 0 228.5 -36.5 323.5 -109.5s142.5 -164.167 142.5 -273.5
c0 -76.667 -20.167 -144 -60.5 -202s-112.833 -121.667 -217.5 -191c-33.333 24.667 -72.333 51 -117 79c76 -135.333 223.667 -259.333 443 -372l-231 -311c-193.333 150 -305.666 386 -336.999 708l-109 12c0 -17.333 1.16699 -42.833 3.5 -76.5s3.5 -55.167 3.5 -64.5
c0 -148.667 -24.667 -276.334 -74 -383.001c-20 -43.333 -60.333 -109.666 -121 -198.999zM544.999 783.999l-1.00098 72.001c0 41.333 1.66699 79.5 5 114.5s9.33301 73.167 18 114.5l57 -17c-10 -71.333 -15 -127.333 -15 -168c0 -27.333 3.33301 -56.333 10 -87
c16.667 8 31.334 16.333 44.001 25c95.333 62 143 135 143 219c0 16 -1.33301 30.167 -4 42.5s-8 26.5 -16 42.5c-12 27.333 -29 50.666 -51 69.999c-42 36 -103.333 54 -184 54c-85.333 0 -168.333 -17.667 -249 -53c39.333 -92 67.333 -166.833 84 -224.5
s33 -131.5 49 -221.5c18.667 0 36.5 1.5 53.5 4.5s35.833 7.16699 56.5 12.5z" />
    <glyph glyph-name="s" unicode="s" horiz-adv-x="1137" 
d="M34 597l306.997 -126.999c45.333 -163.333 137.666 -245 276.999 -245c86 0 163 32 231 96s102 144 102 240c0 53.333 -13.667 106.333 -41 159l-152 -183l-90 -3c-127.333 0 -238 18.5 -332 55.5s-165.667 89.833 -215 158.5c-46.667 64.667 -70 135.667 -70 213
c0 105.333 40.333 198 121 278c92.667 91.333 210.334 137 353.001 137c95.333 0 185.666 -20.667 270.999 -62s173 -108 263 -200l-37 -48c-67.333 50.667 -124 87.667 -170 111c-97.333 50 -198.666 75 -303.999 75c-92.667 0 -165.667 -23 -219 -69
c-46.667 -40.667 -70 -89 -70 -145c0 -80 40.333 -143 121 -189c77.333 -43.333 167.333 -65 270 -65c28.667 0 58.834 2.33301 90.501 7s63.5 12 95.5 22c-40 32 -76 55.333 -108 70s-79 29 -141 43l3 65c128.667 -26 238.667 -73.333 330 -142
c42.667 23.333 89.334 58.333 140.001 105l27 -20l-111 -134c84 -84 126 -192.333 126 -325c0 -90.667 -20.667 -175.334 -62 -254.001c-82 -155.333 -226.667 -233 -434 -233c-197.333 0 -347 71.333 -449 214c-32 44 -57.167 95.167 -75.5 153.5
s-34.166 138.833 -47.499 241.5z" />
    <glyph glyph-name="t" unicode="t" horiz-adv-x="1077" 
d="M433 1309l67.999 36l89 -146c94 0 181 13.167 261 39.5s150.667 64.833 212 115.5l48 -35c-53.333 -70.667 -106.333 -124.5 -159 -161.5s-143.667 -85.5 -273 -145.5c22.667 -61.333 39.667 -121.333 51 -180s17 -117 17 -175c0 -122.667 -18.5 -238.5 -55.5 -347.5
s-94.167 -218.833 -171.5 -329.5l-232 242c76 94 135.667 191.667 179 293c54 131.333 81 248 81 350c0 26 -3 61 -9 105c-109.333 0 -211 11.5 -305 34.5s-183.333 56.5 -268 100.5l179 222c65.333 -35.333 121 -62 167 -80c19.333 -6.66699 43.333 -13.5 72 -20.5
s61.334 -13.833 98.001 -20.5z" />
    <glyph glyph-name="u" unicode="u" horiz-adv-x="1090" 
d="M563 83l-93 126.999c66 24.667 116.667 47.167 152 67.5s68.666 47.833 99.999 82.5c37.333 42 64.5 84.167 81.5 126.5s25.5 90.5 25.5 144.5l-1 79l-2 79c0 106.667 15.667 210.334 47 311.001c19.333 62.667 39.333 110.5 60 143.5s52 66.833 94 101.5l28 -19
c-14 -32 -26.167 -64.333 -36.5 -97s-18.833 -66.667 -25.5 -102c-11.333 -68 -17 -152.667 -17 -254c0 -71.333 4.33301 -150.333 13 -237c4 -46 6 -84 6 -114c0 -126 -65.667 -265.667 -197 -419l93 36l29 -54c-68 -32 -138.667 -55.667 -212 -71l-60 -46l-27 37
c-55.333 0 -111.166 11.667 -167.499 35s-108.5 56 -156.5 98c-63.333 55.333 -105.333 115.666 -126 180.999c-10.667 36 -19.5 81.833 -26.5 137.5s-10.5 121.167 -10.5 196.5c0 56.667 -2.16699 106.667 -6.5 150s-10.833 83.666 -19.5 120.999
c-14 66.667 -38.667 132.334 -74 197.001l211 252c44 -60 74.333 -119.333 91 -178s25 -140 25 -244c0 -70.667 -3.33301 -143.667 -10 -219c0 -32 -1.5 -64.5 -4.5 -97.5s-5.83301 -66.167 -8.5 -99.5c0 -28.667 1 -57.5 3 -86.5s5.66699 -61.833 11 -98.5
c10 -69.333 30.833 -124.166 62.5 -164.499s81.167 -74.5 148.5 -102.5z" />
    <glyph glyph-name="v" unicode="v" horiz-adv-x="1188" 
d="M1161 1343l34.001 -41.0049c-82 -94.667 -149 -183.667 -201 -267s-102 -180 -150 -290c-54 -125.333 -94.667 -250.666 -122 -375.999l28 -99l35 -124l34 -121l-79 -24c-18 76 -38 140 -60 192c-9.33301 -45.333 -21.666 -120 -36.999 -224l-237 305
c17.333 50.667 33.5 94.334 48.5 131.001s31.5 74 49.5 112c-49.333 74.667 -94.333 139 -135 193c-42.667 56.667 -80.334 102.334 -113.001 137.001c-67.333 73.333 -155 148.333 -263 225l230 278c82 -83.333 150.667 -168.333 206 -255
c51.333 -81.333 113 -204.666 185 -369.999c37.333 60.667 76.166 118.334 116.499 173.001s82.833 107 127.5 157c87.333 98 188.333 194 303 288z" />
    <glyph glyph-name="w" unicode="w" horiz-adv-x="1688" 
d="M569 1094l202.998 252.998c58.667 -51.333 103 -96 133 -134c45.333 36.667 107.333 80 186 130l27 -53c-66.667 -56 -120.667 -105 -162 -147c62.667 -93.333 119.334 -207.666 170.001 -342.999c145.333 216.667 344 388.334 596 515.001l28 -44
c-123.333 -102.667 -220.333 -195.334 -291 -278.001c-28.667 -34 -54.667 -68.833 -78 -104.5s-45.333 -74.5 -66 -116.5c-17.333 -37.333 -30.333 -71.666 -39 -102.999s-13 -61.666 -13 -90.999c0 -49.333 20.667 -129.666 62 -240.999l-65 -73
c4 -24.667 9.33301 -60.667 16 -108s12 -88.333 16 -123l-65 -19c-15.333 73.333 -29 129.666 -41 168.999l-156 -174c-30.667 104 -46 209.667 -46 317c0 96 11.333 180.333 34 253c-80 147.333 -157.667 260 -233 338c-67.333 -122.667 -101 -235.667 -101 -339
c0 -71.333 16.667 -146.333 50 -225l-52 -60c2.66699 -28 5 -61.167 7 -99.5s3 -76.5 3 -114.5v-37l-66 -14c0 38 -1.66699 71 -5 99s-8.33301 55 -15 81l-184 -208c-16 107.333 -24 191.666 -24 252.999c0 101.333 15.667 205 47 311
c-73.333 117.333 -146.666 216.333 -219.999 297s-168.666 168 -285.999 262l208 239c165.333 -174.667 295.666 -366 390.999 -574c44.667 78 95 150.667 151 218z" />
    <glyph glyph-name="x" unicode="x" horiz-adv-x="963" 
d="M955 242l-181.998 -242.997c-159.333 100 -265.333 241.667 -318 425c-45.333 -112 -113 -205.333 -203 -280c-40.667 -32.667 -77.834 -55.667 -111.501 -69s-78.167 -22.666 -133.5 -27.999c97.333 79.333 168.333 147 213 203c89.333 110.667 134 222 134 334
c0 144 -57.667 272.333 -173 385c-37.333 37.333 -95.333 78.666 -174 123.999l199 244c149.333 -114.667 243.666 -251.667 282.999 -411c44.667 97.333 94.167 174.166 148.5 230.499s136.833 117.166 247.5 182.499l32 -44c-74 -54.667 -130 -100.834 -168 -138.501
s-73 -82.167 -105 -133.5c-53.333 -87.333 -80 -176 -80 -266c0 -116 41.667 -223.667 125 -323c31.333 -37.333 66 -70 104 -98c35.333 -24.667 89.333 -56 162 -94z" />
    <glyph glyph-name="y" unicode="y" horiz-adv-x="928" 
d="M163 588l-12.002 50.002c48.667 31.333 94 62.666 136 93.999c-71.333 199.333 -173.666 366.666 -306.999 501.999l24 57c164 -105.333 304.667 -253.666 422 -444.999c77.333 72 138.5 141.833 183.5 209.5s89.167 156.167 132.5 265.5l207 -232
c-58 -89.333 -118.5 -161.5 -181.5 -216.5s-151.5 -110.5 -265.5 -166.5l22 -61c54.667 -146.667 91.334 -260.334 110.001 -341.001l-279 -303c0 107.333 -5.83301 211.333 -17.5 312s-27.5 200.667 -47.5 300z" />
    <glyph glyph-name="z" unicode="z" horiz-adv-x="1047" 
d="M949 1362l28.002 -49.999l-60 -50l-101 -85c47.333 12 109.333 40.333 186 85l21 -41c-84.667 -63.333 -141 -103.333 -169 -120c-14.667 -8.66699 -33.167 -18.334 -55.5 -29.001s-50.5 -23 -84.5 -37c-72 -66 -147.667 -179.333 -227 -340
c-76.667 -157.333 -126 -300 -148 -428c124.667 43.333 248 65 370 65c87.333 0 197.333 -18.667 330 -56l-217 -248c-111.333 48.667 -221.333 73 -330 73c-48 0 -106.667 -6.33301 -176 -19l1 -116l-87 87c-24 -8.66699 -76 -34.667 -156 -78l-36 29l55 64
c19.333 22 39 43 59 63l-118 118c96 222 271.333 474.333 526 757l-96 -4c-131.333 0 -267.333 21.333 -408 64l204 282c75.333 -65.333 142.166 -112.333 200.499 -141s118.166 -43 179.499 -43c16 0 41 2 75 6c74 70 152 134 234 192z" />
    <glyph glyph-name="braceleft" unicode="{" horiz-adv-x="670" 
d="M517 164l141.001 -230.001l-61 -3c-78.667 0 -153.334 16.667 -224.001 50s-120.334 76.833 -149.001 130.5s-43 129.167 -43 226.5l3 85l3 72c0 53.333 -10.833 94.166 -32.5 122.499s-60.834 52.5 -117.501 72.5c65.333 28 113.333 57.333 144 88
c20 21.333 33.667 45 41 71c6 25.333 14.5 95.833 25.5 211.5s40.5 200 88.5 253s130 84.5 246 94.5l49 -65c-80 -11.333 -138.333 -34.666 -175 -69.999c-26 -26 -44 -55 -54 -87c-4.66699 -17.333 -8.5 -39.333 -11.5 -66s-4.5 -57.667 -4.5 -93
c0 -99.333 -12.667 -182.666 -38 -249.999s-61.666 -118.666 -108.999 -153.999c22 -28.667 34.833 -50.834 38.5 -66.501s9.83398 -64.667 18.501 -147s26 -138.333 52 -168s82.333 -55.5 169 -77.5z" />
    <glyph glyph-name="bar" unicode="|" horiz-adv-x="1024" 
d="M445 1365h134v-1706h-134v1706z" />
    <glyph glyph-name="braceright" unicode="}" horiz-adv-x="670" 
d="M151 1175l-141.001 230.003l61 3c78 0 152.833 -16.833 224.5 -50.5s120.834 -75.5 147.501 -125.5c29.333 -56.667 44 -133.667 44 -231l-3 -85l-3 -72c0 -53.333 10.833 -94.333 32.5 -123s60.834 -52.667 117.501 -72c-65.333 -28 -113.333 -57.333 -144 -88
c-21.333 -22 -35.333 -45.667 -42 -71c-2.66699 -12.667 -5.83398 -35 -9.50098 -67s-8.16699 -74.333 -13.5 -127c-12 -127.333 -42.167 -217.5 -90.5 -270.5s-130.166 -84.5 -245.499 -94.5l-49 65c80 11.333 138.333 34.666 175 69.999c25.333 25.333 43 54 53 86
c5.33301 17.333 9.5 39.166 12.5 65.499s4.5 58.166 4.5 95.499c0 99.333 12.667 182.5 38 249.5s61.666 118.167 108.999 153.5c-22 28.667 -35.167 51.334 -39.5 68.001s-10.5 66 -18.5 148s-25 137.667 -51 167s-82.333 54.666 -169 75.999z" />
    <glyph glyph-name="asciitilde" unicode="~" horiz-adv-x="1365" 
d="M1073 1502l32.999 -21c-32 -60.667 -74 -110 -126 -148c-24.667 -18.667 -49.5 -32.667 -74.5 -42s-50.5 -14 -76.5 -14c-19.333 0 -38.333 2.16699 -57 6.5s-60 17.5 -124 39.5c-79.333 26 -138.333 39 -177 39c-34.667 0 -62.167 -6.33301 -82.5 -19
s-52.166 -43.667 -95.499 -93l-33 21c80 137.333 173 206 279 206c36.667 0 97 -14.333 181 -43c74 -25.333 128 -38 162 -38c69.333 0 133 35.333 191 106z" />
    <glyph glyph-name="nonbreakingspace" unicode="&#xa0;" horiz-adv-x="512" 
 />
    <glyph glyph-name="exclamdown" unicode="&#xa1;" horiz-adv-x="593" 
d="M134 292c51.333 70.667 87.001 131.334 107.001 182.001c26 67.333 39 132.666 39 195.999c0 60.667 -10 115 -30 163s-53.333 97 -100 147l47 52c97.333 -107.333 162.666 -199.333 195.999 -276c42 -96 63 -196.333 63 -301c0 -80.667 -10 -155 -30 -223
s-53.667 -141.667 -101 -221zM270.001 1359l186 -185l-176 -178l-171 178z" />
    <glyph glyph-name="exclamdown" unicode="&#x40e;" horiz-adv-x="593" 
d="M134 292c51.333 70.667 87.001 131.334 107.001 182.001c26 67.333 39 132.666 39 195.999c0 60.667 -10 115 -30 163s-53.333 97 -100 147l47 52c97.333 -107.333 162.666 -199.333 195.999 -276c42 -96 63 -196.333 63 -301c0 -80.667 -10 -155 -30 -223
s-53.667 -141.667 -101 -221zM270.001 1359l186 -185l-176 -178l-171 178z" />
    <glyph glyph-name="cent" unicode="&#xa2;" 
d="M536 1112l0.000976562 -725l49 -3c56 0 105 11 147 33s87.667 60.667 137 116l29 -24l-261 -330c-39.333 -5.33301 -68 -8 -86 -8h-15v-113h-65v121c-54.667 10 -105 29 -151 57c-64.667 38.667 -116 91.667 -154 159c-44.667 80 -67 169.333 -67 268
c0 118.667 29.667 225 89 319c68 108.667 162.333 172 283 190v114h65v-113c46 -4 101 -21 165 -51c22 24 49.667 47.333 83 70l124 -167c-22.667 -13.333 -46.334 -28.666 -71.001 -45.999l42 -60l-49 -36l-50 62c-26 -26 -44 -48.833 -54 -68.5
s-23.333 -56.834 -40 -111.501c-21.333 28.667 -36.333 54.334 -45 77.001s-13 49.334 -13 80.001c0 24 3 48.167 9 72.5s15.667 49.166 29 74.499c-50 23.333 -93.333 37.666 -130 42.999zM471.001 1109c-45.333 -10 -86.167 -29.832 -122.5 -59.499
s-66.833 -72.834 -91.5 -129.501c-22 -54 -33 -111 -33 -171c0 -85.333 21.333 -158 64 -218s103.667 -103 183 -129v707z" />
    <glyph glyph-name="cent" unicode="&#x45e;" 
d="M536 1112l0.000976562 -725l49 -3c56 0 105 11 147 33s87.667 60.667 137 116l29 -24l-261 -330c-39.333 -5.33301 -68 -8 -86 -8h-15v-113h-65v121c-54.667 10 -105 29 -151 57c-64.667 38.667 -116 91.667 -154 159c-44.667 80 -67 169.333 -67 268
c0 118.667 29.667 225 89 319c68 108.667 162.333 172 283 190v114h65v-113c46 -4 101 -21 165 -51c22 24 49.667 47.333 83 70l124 -167c-22.667 -13.333 -46.334 -28.666 -71.001 -45.999l42 -60l-49 -36l-50 62c-26 -26 -44 -48.833 -54 -68.5
s-23.333 -56.834 -40 -111.501c-21.333 28.667 -36.333 54.334 -45 77.001s-13 49.334 -13 80.001c0 24 3 48.167 9 72.5s15.667 49.166 29 74.499c-50 23.333 -93.333 37.666 -130 42.999zM471.001 1109c-45.333 -10 -86.167 -29.832 -122.5 -59.499
s-66.833 -72.834 -91.5 -129.501c-22 -54 -33 -111 -33 -171c0 -85.333 21.333 -158 64 -218s103.667 -103 183 -129v707z" />
    <glyph glyph-name="sterling" unicode="&#xa3;" horiz-adv-x="1438" 
d="M1121 227c29.333 -31.333 56.999 -54.6699 82.999 -70.0029c26 -16.667 71.667 -39.334 137 -68.001l-210 -290c-106 89.333 -178 156.333 -216 201c-78 83.333 -135.167 157 -171.5 221s-64.5 142 -84.5 234l-30 -1c-68 0 -150 26 -246 78l1 -58
c0 -79.333 -6.66699 -149 -20 -209c-6 -28.667 -16 -65.667 -30 -111s-31.333 -96.666 -52 -153.999l-262 246c55.333 112 93.666 222.333 114.999 331c14 74 24.667 148.167 32 222.5s11 148.166 11 221.499c0 68.667 -16.333 161.334 -49 278.001l37 24
c52.667 -84 94 -170.167 124 -258.5s54.333 -199.166 73 -332.499l91 131l121 -123c16 -17.333 35 -32.666 57 -45.999l-1 42c0 204 38.667 406.667 116 608l260 -270c-81.333 -141.333 -137.666 -280.666 -168.999 -417.999c80 17.333 157.333 42.666 232 75.999l38 -54
c-38 -38 -81.667 -72.667 -131 -104s-100.666 -56.666 -153.999 -75.999c11.333 -119.333 24.5 -204.333 39.5 -255s46.167 -113.667 93.5 -189z" />
    <glyph glyph-name="sterling" unicode="&#x408;" horiz-adv-x="1438" 
d="M1121 227c29.333 -31.333 56.999 -54.6699 82.999 -70.0029c26 -16.667 71.667 -39.334 137 -68.001l-210 -290c-106 89.333 -178 156.333 -216 201c-78 83.333 -135.167 157 -171.5 221s-64.5 142 -84.5 234l-30 -1c-68 0 -150 26 -246 78l1 -58
c0 -79.333 -6.66699 -149 -20 -209c-6 -28.667 -16 -65.667 -30 -111s-31.333 -96.666 -52 -153.999l-262 246c55.333 112 93.666 222.333 114.999 331c14 74 24.667 148.167 32 222.5s11 148.166 11 221.499c0 68.667 -16.333 161.334 -49 278.001l37 24
c52.667 -84 94 -170.167 124 -258.5s54.333 -199.166 73 -332.499l91 131l121 -123c16 -17.333 35 -32.666 57 -45.999l-1 42c0 204 38.667 406.667 116 608l260 -270c-81.333 -141.333 -137.666 -280.666 -168.999 -417.999c80 17.333 157.333 42.666 232 75.999l38 -54
c-38 -38 -81.667 -72.667 -131 -104s-100.666 -56.666 -153.999 -75.999c11.333 -119.333 24.5 -204.333 39.5 -255s46.167 -113.667 93.5 -189z" />
    <glyph glyph-name="currency" unicode="&#xa4;" 
d="M222 311l-73.999 -73.999l-101 101l79 79c-30.667 45.333 -53.5 90 -68.5 134s-22.5 89 -22.5 135c0 87.333 34 170.666 102 249.999l-90 91l101 101l96 -96l84 55l-38 49c68 16.667 116.333 25 145 25c48 0 101.667 -10.333 161 -31s112.666 -48 159.999 -82l80 80
l101 -101l-79 -79c60.667 -82 91 -168.333 91 -259c0 -96.667 -31.667 -185.667 -95 -267l83 -84l-101 -101l-85 86c-41.333 -28.667 -91 -56.667 -149 -84l28 -47c-49.333 -7.33301 -80 -11 -92 -11c-108 0 -213.333 43.333 -316 130zM579.001 279.001
c71.333 58 120.333 109.331 147 153.998c36 60 54 124 54 192c0 120.667 -49 214 -147 280c-31.333 21.333 -61.833 36.333 -91.5 45s-74.167 15.667 -133.5 21l-52 79c-20.667 -21.333 -38.667 -40.833 -54 -58.5s-27.333 -32.5 -36 -44.5
c-45.333 -66.667 -68 -135 -68 -205c0 -45.333 10 -92.333 30 -141s46 -88.667 78 -120c24.667 -22.667 53 -41.667 85 -57c16.667 -7.33301 36.167 -14.666 58.5 -21.999s49.833 -15.666 82.5 -24.999z" />
    <glyph glyph-name="yen" unicode="&#xa5;" horiz-adv-x="1331" 
d="M1209 6c0 -46 2.99902 -81.999 8.99902 -107.999c6.66699 -30 23 -78.333 49 -145l-354 -57c-8 92 -12 173.667 -12 245c0 17.333 0.666992 34 2 50c-188.667 162.667 -315.667 377.334 -381 644.001l-63 -19l2 -36c0 -130.667 -24.667 -268.667 -74 -414
c-8.66699 -25.333 -20.5 -52.666 -35.5 -81.999s-33.833 -62 -56.5 -98l-230 303c72 107.333 124 212.666 156 315.999c-44.667 8 -107 29.333 -187 64l28 77c71.333 -31.333 132 -47 182 -47c6 32.667 10.667 64.834 14 96.501s5 62.5 5 92.5
c0 79.333 -8.66699 149 -26 209s-50.666 131 -99.999 213l74 49c68 -100 118.5 -192.667 151.5 -278s59.833 -192.666 80.5 -321.999l51 31c-8 68 -12 132.667 -12 194c0 25.333 1 53.166 3 83.499s5.33301 64.833 10 103.5l71 -16v-65c0 -82.667 8.33301 -157 25 -223
c148.667 142 234 317.333 256 526l252 -226c-72 -182.667 -219.333 -339 -442 -469c55.333 -104.667 119 -188.334 191 -251.001c37.333 -32.667 79 -61.834 125 -87.501s98.667 -49.834 158 -72.501c-19.333 -26 -29 -53.667 -29 -83c0 -31.333 9.33301 -62.333 28 -93
s45 -65.667 79 -105z" />
    <glyph glyph-name="yen" unicode="&#x490;" horiz-adv-x="1331" 
d="M1209 6c0 -46 2.99902 -81.999 8.99902 -107.999c6.66699 -30 23 -78.333 49 -145l-354 -57c-8 92 -12 173.667 -12 245c0 17.333 0.666992 34 2 50c-188.667 162.667 -315.667 377.334 -381 644.001l-63 -19l2 -36c0 -130.667 -24.667 -268.667 -74 -414
c-8.66699 -25.333 -20.5 -52.666 -35.5 -81.999s-33.833 -62 -56.5 -98l-230 303c72 107.333 124 212.666 156 315.999c-44.667 8 -107 29.333 -187 64l28 77c71.333 -31.333 132 -47 182 -47c6 32.667 10.667 64.834 14 96.501s5 62.5 5 92.5
c0 79.333 -8.66699 149 -26 209s-50.666 131 -99.999 213l74 49c68 -100 118.5 -192.667 151.5 -278s59.833 -192.666 80.5 -321.999l51 31c-8 68 -12 132.667 -12 194c0 25.333 1 53.166 3 83.499s5.33301 64.833 10 103.5l71 -16v-65c0 -82.667 8.33301 -157 25 -223
c148.667 142 234 317.333 256 526l252 -226c-72 -182.667 -219.333 -339 -442 -469c55.333 -104.667 119 -188.334 191 -251.001c37.333 -32.667 79 -61.834 125 -87.501s98.667 -49.834 158 -72.501c-19.333 -26 -29 -53.667 -29 -83c0 -31.333 9.33301 -62.333 28 -93
s45 -65.667 79 -105z" />
    <glyph glyph-name="brokenbar" unicode="&#xa6;" horiz-adv-x="1233" 
d="M996 597c0 115.333 -37.334 209.997 -112.001 283.997c-42.667 42 -88.334 73 -137.001 93s-107.667 33 -177 39l-125 180c-69.333 -71.333 -119 -133 -149 -185c-22.667 -40 -39.334 -79 -50.001 -117l-161 6c18 43.333 43.333 86.333 76 129
c50.667 66.667 133.667 139.334 249 218.001l-78 113c20.667 0 45.334 1 74.001 3s47.334 3 56.001 3c73.333 0 151 -11 233 -33l157 31l11 -48l-66 -22c122 -69.333 214.667 -147.666 278 -234.999c78 -108 117 -229.667 117 -365c0 -134 -36.167 -253.167 -108.5 -357.5
s-181.833 -193.166 -328.5 -266.499l36 -66c-59.333 -10 -99 -15 -119 -15c-23.333 0 -54 4 -92 12l-126 -34l-24 45l54 23c-101.333 46 -184.666 105 -249.999 177c-59.333 66.667 -106.333 142 -141 226c-34.667 82 -52 163.333 -52 244zM339.999 471.997
c33.333 -38.667 70.334 -68.334 111.001 -89.001c38.667 -19.333 93.667 -35.666 165 -48.999l110 -213c47.333 40 83.333 73 108 99c74.667 76 123.667 159.667 147 251c0 1.33301 -59.333 2 -178 2h-256c-58.667 -0.666992 -119.334 -1 -182.001 -1h-25z" />
    <glyph glyph-name="section" unicode="&#xa7;" 
d="M882 1196l-30.002 -34.9971c-74 52.667 -138.667 90 -194 112s-115.333 33 -180 33c-38.667 0 -71.5 -2.33301 -98.5 -7s-52.167 -13 -75.5 -25c-43.333 -20 -65 -47.333 -65 -82c0 -28 11.833 -50.667 35.5 -68s63.834 -33.333 120.501 -48
c189.333 -48 314.666 -86 375.999 -114c107.333 -49.333 161 -123 161 -221c0 -54 -18.667 -114 -56 -180c20 -29.333 35.167 -61 45.5 -95s15.5 -70 15.5 -108c0 -90.667 -25.667 -171.667 -77 -243c-79.333 -110.667 -192.666 -166 -339.999 -166
c-77.333 0 -147.333 16 -210 48s-114.667 78.333 -156 139c-47.333 71.333 -80.666 175.333 -99.999 312l255 -106c14 -54.667 31.667 -96.334 53 -125.001c43.333 -60 111.666 -90 204.999 -90c62.667 0 112.167 16 148.5 48s54.5 70.333 54.5 115
c0 43.333 -18 76.333 -54 99s-108.333 47 -217 73c-169.333 39.333 -283.666 80.666 -342.999 123.999c-62.667 45.333 -94 106.666 -94 183.999c0 15.333 1 29.833 3 43.5s5.66699 27.5 11 41.5c9.33301 26 27.333 61 54 105c-40 52 -60 102.667 -60 152
c0 41.333 12 81.333 36 120s57.333 71 100 97c72 44 154 66 246 66c152 0 295.333 -66.333 430 -199zM245.998 889.003c-7.33301 -20 -11 -35.334 -11 -46.001c0 -20.667 8.33301 -38 25 -52c15.333 -11.333 47.333 -24.666 96 -39.999l148 -46l127 -40l105 -35
c15.333 20.667 23 38 23 52c0 22.667 -15.333 41 -46 55c-50 21.333 -132 49.333 -246 84z" />
    <glyph glyph-name="copyright" unicode="&#xa9;" horiz-adv-x="1488" 
d="M744 1392c194.667 0 362 -69.001 502 -207.001c65.333 -65.333 116.333 -141.666 153 -228.999s55 -178 55 -272c0 -196.667 -69.333 -364.334 -208 -503.001s-309 -208 -511 -208c-125.333 0 -245.5 34.667 -360.5 104s-202.833 164 -263.5 284
c-51.333 100.667 -77 208 -77 322c0 132.667 34.333 255.834 103 369.501s163.667 201.167 285 262.5c48.667 25.333 100 44.5 154 57.5s110 19.5 168 19.5zM744 1303c-171.333 0 -317.664 -60.6689 -438.997 -182.002c-58 -56.667 -102.833 -123.5 -134.5 -200.5
s-47.5 -156.167 -47.5 -237.5c0 -171.333 60.667 -317.333 182 -438c58 -58 125 -103 201 -135c37.333 -15.333 75.166 -27 113.499 -35s77.166 -12 116.499 -12c176.667 0 325.667 60.333 447 181s182 267.334 182 440.001c0 116 -30 223.333 -90 322
s-143 175.334 -249 230.001c-44 22 -88.833 38.667 -134.5 50s-94.834 17 -147.501 17zM973.002 1087l109.002 -138.998l-58 -34l34 -46l-51 -35l-39 47c-8.66699 -8 -16.5 -16.333 -23.5 -25s-12.833 -17.334 -17.5 -26.001c-7.33301 -14.667 -18.333 -45 -33 -91
c-22.667 26.667 -37.834 49.167 -45.501 67.5s-11.5 40.5 -11.5 66.5c0 36 9.33301 72.333 28 109c-44 20 -81.667 30 -113 30c-60.667 0 -113 -23.333 -157 -70c-48.667 -52.667 -73 -119.334 -73 -200.001c0 -84.667 30 -152.667 90 -204
c53.333 -45.333 119.333 -68 198 -68c45.333 0 84.166 8 116.499 24s70.166 46.333 113.499 91l34 -26l-219 -259c-34 -4 -59 -6 -75 -6c-88.667 0 -166.667 26.333 -234 79c-93.333 72 -140 173 -140 303c0 118 37 216 111 294c64 68 140.667 102 230 102
c44.667 0 96.334 -12.667 155.001 -38c19.333 18 43 36 71 54z" />
    <glyph glyph-name="ordfeminine" unicode="&#xaa;" horiz-adv-x="1023" 
d="M319 1099c-24.667 -100 -36.998 -180.001 -36.998 -240.001c73.333 30.667 146.333 46 219 46c73.333 0 159.666 -18 258.999 -54l-141 -242c-40 18.667 -73.833 33.834 -101.5 45.501s-53.167 21.167 -76.5 28.5c-39.333 12 -80.666 18 -123.999 18h-16
c12 -46 25 -86.833 39 -122.5s29.667 -67.834 47 -96.501c34 -56 92.333 -128.333 175 -217l-218 -283c-50.667 60.667 -90.334 122 -119.001 184c-54.667 127.333 -82 255.333 -82 384l4 99c-8.66699 -8 -20.334 -21.333 -35.001 -40l-52 39
c37.333 59.333 71.666 104 102.999 134c20 116 50 231.667 90 347c-33.333 17.333 -68 37.333 -104 60s-74.333 49.334 -115 80.001l48 53c78 -48.667 146.333 -83 205 -103l43 100l47 -21l-30 -96c44 -10 85.667 -15 125 -15c68 0 130.5 11.167 187.5 33.5
s127.5 62.833 211.5 121.5l200 -219c-72 -38 -134.5 -64 -187.5 -78s-115.833 -21 -188.5 -21c-125.333 0 -250.666 25 -375.999 75z" />
    <glyph glyph-name="ordfeminine" unicode="&#x404;" horiz-adv-x="1023" 
d="M319 1099c-24.667 -100 -36.998 -180.001 -36.998 -240.001c73.333 30.667 146.333 46 219 46c73.333 0 159.666 -18 258.999 -54l-141 -242c-40 18.667 -73.833 33.834 -101.5 45.501s-53.167 21.167 -76.5 28.5c-39.333 12 -80.666 18 -123.999 18h-16
c12 -46 25 -86.833 39 -122.5s29.667 -67.834 47 -96.501c34 -56 92.333 -128.333 175 -217l-218 -283c-50.667 60.667 -90.334 122 -119.001 184c-54.667 127.333 -82 255.333 -82 384l4 99c-8.66699 -8 -20.334 -21.333 -35.001 -40l-52 39
c37.333 59.333 71.666 104 102.999 134c20 116 50 231.667 90 347c-33.333 17.333 -68 37.333 -104 60s-74.333 49.334 -115 80.001l48 53c78 -48.667 146.333 -83 205 -103l43 100l47 -21l-30 -96c44 -10 85.667 -15 125 -15c68 0 130.5 11.167 187.5 33.5
s127.5 62.833 211.5 121.5l200 -219c-72 -38 -134.5 -64 -187.5 -78s-115.833 -21 -188.5 -21c-125.333 0 -250.666 25 -375.999 75z" />
    <glyph glyph-name="guillemotleft" unicode="&#xab;" horiz-adv-x="805" 
d="M660 907l61 -57c-30.667 -55.333 -55 -94.5 -73 -117.5s-43.667 -50.833 -77 -83.5c80 -110.667 133 -246.667 159 -408l-75 -24c-24 102 -60 186.333 -108 253s-114.333 125 -199 175c81.333 36 143 71.667 185 107s84.333 87 127 155zM359 907l62 -57
c-30 -52.667 -55 -92 -75 -118c-16 -21.333 -41 -49 -75 -83c79.333 -110 132 -246 158 -408l-75 -24c-24 101.333 -59.833 185.5 -107.5 252.5s-113.834 125.5 -198.501 175.5c81.333 36.667 142.833 72.5 184.5 107.5s83.834 86.5 126.501 154.5z" />
    <glyph glyph-name="logicalnot" unicode="&#xac;" horiz-adv-x="1331" 
d="M1209 6c0 -46 2.99902 -81.999 8.99902 -107.999c6.66699 -30 23 -78.333 49 -145l-354 -57c-8 92 -12 173.667 -12 245c0 17.333 0.666992 34 2 50c-188.667 162.667 -315.667 377.334 -381 644.001l-63 -19l2 -36c0 -130.667 -24.667 -268.667 -74 -414
c-8.66699 -25.333 -20.5 -52.666 -35.5 -81.999s-33.833 -62 -56.5 -98l-230 303c72 107.333 124 212.666 156 315.999c-44.667 8 -107 29.333 -187 64l28 77c71.333 -31.333 132 -47 182 -47c6 32.667 10.667 64.834 14 96.501s5 62.5 5 92.5
c0 79.333 -8.66699 149 -26 209s-50.666 131 -99.999 213l74 49c68 -100 118.5 -192.667 151.5 -278s59.833 -192.666 80.5 -321.999l51 31c-8 68 -12 132.667 -12 194c0 25.333 1 53.166 3 83.499s5.33301 64.833 10 103.5l71 -16v-65c0 -82.667 8.33301 -157 25 -223
c148.667 142 234 317.333 256 526l252 -226c-72 -182.667 -219.333 -339 -442 -469c55.333 -104.667 119 -188.334 191 -251.001c37.333 -32.667 79 -61.834 125 -87.501s98.667 -49.834 158 -72.501c-19.333 -26 -29 -53.667 -29 -83c0 -31.333 9.33301 -62.333 28 -93
s45 -65.667 79 -105z" />
    <glyph glyph-name="minus" unicode="&#xad;" horiz-adv-x="1438" 
d="M1121 227c29.333 -31.333 56.999 -54.6699 82.999 -70.0029c26 -16.667 71.667 -39.334 137 -68.001l-210 -290c-106 89.333 -178 156.333 -216 201c-78 83.333 -135.167 157 -171.5 221s-64.5 142 -84.5 234l-30 -1c-68 0 -150 26 -246 78l1 -58
c0 -79.333 -6.66699 -149 -20 -209c-6 -28.667 -16 -65.667 -30 -111s-31.333 -96.666 -52 -153.999l-262 246c55.333 112 93.666 222.333 114.999 331c14 74 24.667 148.167 32 222.5s11 148.166 11 221.499c0 68.667 -16.333 161.334 -49 278.001l37 24
c52.667 -84 94 -170.167 124 -258.5s54.333 -199.166 73 -332.499l91 131l121 -123c16 -17.333 35 -32.666 57 -45.999l-1 42c0 204 38.667 406.667 116 608l260 -270c-81.333 -141.333 -137.666 -280.666 -168.999 -417.999c80 17.333 157.333 42.666 232 75.999l38 -54
c-38 -38 -81.667 -72.667 -131 -104s-100.666 -56.666 -153.999 -75.999c11.333 -119.333 24.5 -204.333 39.5 -255s46.167 -113.667 93.5 -189z" />
    <glyph glyph-name="registered" unicode="&#xae;" horiz-adv-x="1488" 
d="M744 1392c194.667 0 362 -69.001 502 -207.001c65.333 -65.333 116.333 -141.666 153 -228.999s55 -178 55 -272c0 -196.667 -69.333 -364.334 -208 -503.001s-309 -208 -511 -208c-125.333 0 -245.5 34.667 -360.5 104s-202.833 164 -263.5 284
c-51.333 100.667 -77 208 -77 322c0 132.667 34.333 255.834 103 369.501s163.667 201.167 285 262.5c48.667 25.333 100 44.5 154 57.5s110 19.5 168 19.5zM744 1303c-171.333 0 -317.664 -60.6689 -438.997 -182.002c-58 -56.667 -102.833 -123.5 -134.5 -200.5
s-47.5 -156.167 -47.5 -237.5c0 -171.333 60.667 -317.333 182 -438c58 -58 125 -103 201 -135c37.333 -15.333 75.166 -27 113.499 -35s77.166 -12 116.499 -12c176.667 0 325.667 60.333 447 181s182 267.334 182 440.001c0 116 -30 223.333 -90 322
s-143 175.334 -249 230.001c-44 22 -88.833 38.667 -134.5 50s-94.834 17 -147.501 17zM558.002 290.997l-127 166.999c80.667 116.667 121 241 121 373c0 18 -1 36.5 -3 55.5s-5.33301 39.833 -10 62.5c-16 -11.333 -37 -27.333 -63 -48l-42 -34l-34 38
c41.333 36 82.666 67.667 123.999 95c-8.66699 22 -20 44.667 -34 68l40 26c6.66699 -9.33301 14.5 -21 23.5 -35s15.167 -24 18.5 -30c75.333 36.667 141 55 197 55c72.667 0 138.667 -21.167 198 -63.5s89 -94.5 89 -156.5c0 -45.333 -12.5 -84.5 -37.5 -117.5
s-70.5 -70.5 -136.5 -112.5l-49 31c34 -40 67.333 -72.167 100 -96.5s84.334 -53.833 155.001 -88.5l-148 -185c-122.667 86 -192.667 219 -210 399l-52 6l4 -84c0 -63.333 -8.33301 -117.166 -25 -161.499s-49.667 -98.833 -99 -163.5zM726.002 751.996l-0.999023 36.001
c0 45.333 5.33301 90.666 16 135.999l47 -13c-6.66699 -48.667 -10 -82 -10 -100v-21c2 -7.33301 3.33301 -13 4 -17c67.333 35.333 101 77.333 101 126c0 34 -13.167 61 -39.5 81s-61.833 30 -106.5 30c-40.667 0 -87.667 -9 -141 -27c36.667 -80 62 -159.667 76 -239
c14 1.33301 24.167 2.5 30.5 3.5s14.166 2.5 23.499 4.5z" />
    <glyph glyph-name="macron" unicode="&#xaf;" horiz-adv-x="1233" 
d="M755 67l35.9971 -66.0039c-59.333 -10 -99 -15 -119 -15c-23.333 0 -54 4 -92 12l-126 -34l-24 45l54 23c-101.333 46 -184.666 105 -249.999 177c-59.333 66.667 -106.333 141.834 -141 225.501s-52 165.167 -52 244.5c0 127.333 40 243 120 347
c50.667 66.667 133.667 139.334 249 218.001l-78 113c20.667 0 45.334 1 74.001 3s47.334 3 56.001 3c73.333 0 151 -11 233 -33l157 31l11 -48l-66 -22c122 -69.333 214.667 -147.666 278 -234.999c78 -108 117 -229.667 117 -365c0 -134 -36.167 -253.167 -108.5 -357.5
s-181.833 -193.166 -328.5 -266.499zM883.997 880.996c-43.333 42.667 -89 73.667 -137 93c-48.667 20 -107.667 33 -177 39l-125 180c-69.333 -71.333 -119 -133 -149 -185c-22 -39.333 -38.667 -78.5 -50 -117.5s-17 -79.167 -17 -120.5
c0 -64.667 12.333 -124.667 37 -180zM339.997 471.996c33.333 -38.667 70.333 -68.333 111 -89c38.667 -19.333 93.667 -35.666 165 -48.999l110 -213c47.333 40 83.333 73 108 99c108 110 162 235.667 162 377c0 67.333 -13 127.666 -39 180.999z" />
    <glyph glyph-name="macron" unicode="&#x407;" horiz-adv-x="1233" 
d="M755 67l35.9971 -66.0039c-59.333 -10 -99 -15 -119 -15c-23.333 0 -54 4 -92 12l-126 -34l-24 45l54 23c-101.333 46 -184.666 105 -249.999 177c-59.333 66.667 -106.333 141.834 -141 225.501s-52 165.167 -52 244.5c0 127.333 40 243 120 347
c50.667 66.667 133.667 139.334 249 218.001l-78 113c20.667 0 45.334 1 74.001 3s47.334 3 56.001 3c73.333 0 151 -11 233 -33l157 31l11 -48l-66 -22c122 -69.333 214.667 -147.666 278 -234.999c78 -108 117 -229.667 117 -365c0 -134 -36.167 -253.167 -108.5 -357.5
s-181.833 -193.166 -328.5 -266.499zM883.997 880.996c-43.333 42.667 -89 73.667 -137 93c-48.667 20 -107.667 33 -177 39l-125 180c-69.333 -71.333 -119 -133 -149 -185c-22 -39.333 -38.667 -78.5 -50 -117.5s-17 -79.167 -17 -120.5
c0 -64.667 12.333 -124.667 37 -180zM339.997 471.996c33.333 -38.667 70.333 -68.333 111 -89c38.667 -19.333 93.667 -35.666 165 -48.999l110 -213c47.333 40 83.333 73 108 99c108 110 162 235.667 162 377c0 67.333 -13 127.666 -39 180.999z" />
    <glyph glyph-name="degree" unicode="&#xb0;" horiz-adv-x="1331" 
d="M1209 6c0 -46 2.99902 -81.999 8.99902 -107.999c6.66699 -30 23 -78.333 49 -145l-354 -57c-8 92 -12 173.667 -12 245c0 17.333 0.666992 34 2 50c-188.667 162.667 -315.667 377.334 -381 644.001l-63 -19l2 -36c0 -130.667 -24.667 -268.667 -74 -414
c-8.66699 -25.333 -20.5 -52.666 -35.5 -81.999s-33.833 -62 -56.5 -98l-230 303c72 107.333 124 212.666 156 315.999c-44.667 8 -107 29.333 -187 64l28 77c71.333 -31.333 132 -47 182 -47c6 32.667 10.667 64.834 14 96.501s5 62.5 5 92.5
c0 79.333 -8.66699 149 -26 209s-50.666 131 -99.999 213l74 49c68 -100 118.5 -192.667 151.5 -278s59.833 -192.666 80.5 -321.999l51 31c-8 68 -12 132.667 -12 194c0 25.333 1 53.166 3 83.499s5.33301 64.833 10 103.5l71 -16v-65c0 -82.667 8.33301 -157 25 -223
c148.667 142 234 317.333 256 526l252 -226c-72 -182.667 -219.333 -339 -442 -469c55.333 -104.667 119 -188.334 191 -251.001c37.333 -32.667 79 -61.834 125 -87.501s98.667 -49.834 158 -72.501c-19.333 -26 -29 -53.667 -29 -83c0 -31.333 9.33301 -62.333 28 -93
s45 -65.667 79 -105z" />
    <glyph glyph-name="plusminus" unicode="&#xb1;" horiz-adv-x="928" 
d="M338 313c0 -1.33301 -2 -1.99902 -6 -1.99902c-14.667 0 -61.667 7.33301 -141 22l-191 36l8 94l311 -12c-8.66699 54 -18.334 108 -29.001 162l-127 -25l-12 50c48.667 31.333 94 62.666 136 93.999c-71.333 199.333 -173.666 366.666 -306.999 501.999l24 57
c164 -105.333 304.667 -253.666 422 -444.999c77.333 72 138.5 141.833 183.5 209.5s89.167 156.167 132.5 265.5l207 -232c-58 -89.333 -118.5 -161.5 -181.5 -216.5s-151.5 -110.5 -265.5 -166.5l22 -61l291 55l-16 -82l-141 -64.5c-56.667 -26.333 -85 -41.5 -85 -45.5
c26.667 -79.333 47 -147.333 61 -204l-279 -303c0 104 -5.66699 208 -17 312z" />
    <glyph glyph-name="twosuperior" unicode="&#xb2;" horiz-adv-x="928" 
d="M163 588l-12.002 50.002c48.667 31.333 94 62.666 136 93.999c-71.333 199.333 -173.666 366.666 -306.999 501.999l24 57c164 -105.333 304.667 -253.666 422 -444.999c77.333 72 138.5 141.833 183.5 209.5s89.167 156.167 132.5 265.5l207 -232
c-58 -89.333 -118.5 -161.5 -181.5 -216.5s-151.5 -110.5 -265.5 -166.5l22 -61c54.667 -146.667 91.334 -260.334 110.001 -341.001l-279 -303c0 107.333 -5.83301 211.333 -17.5 312s-27.5 200.667 -47.5 300z" />
    <glyph glyph-name="twosuperior" unicode="&#x406;" horiz-adv-x="928" 
d="M163 588l-12.002 50.002c48.667 31.333 94 62.666 136 93.999c-71.333 199.333 -173.666 366.666 -306.999 501.999l24 57c164 -105.333 304.667 -253.666 422 -444.999c77.333 72 138.5 141.833 183.5 209.5s89.167 156.167 132.5 265.5l207 -232
c-58 -89.333 -118.5 -161.5 -181.5 -216.5s-151.5 -110.5 -265.5 -166.5l22 -61c54.667 -146.667 91.334 -260.334 110.001 -341.001l-279 -303c0 107.333 -5.83301 211.333 -17.5 312s-27.5 200.667 -47.5 300z" />
    <glyph glyph-name="threesuperior" unicode="&#xb3;" horiz-adv-x="1102" 
d="M838 656c76.667 16 154 41.3291 232 75.9961l38 -54c-38 -38 -81.667 -72.667 -131 -104s-100.666 -56.666 -153.999 -75.999c11.333 -119.333 24.5 -204.333 39.5 -255s46.167 -113.667 93.5 -189l-41 -54c-78 83.333 -135.167 157 -171.5 221s-64.5 142 -84.5 234
l-30 -1c-68 0 -150 26 -246 78l1 -58c0 -79.333 -6.66699 -149 -20 -209c-6 -28.667 -16 -65.667 -30 -111s-31.333 -96.666 -52 -153.999l-262 246c55.333 112 93.666 222.333 114.999 331c14 74 24.667 148.167 32 222.5s11 148.166 11 221.499
c0 68.667 -16.333 161.334 -49 278.001l37 24c52.667 -84 94 -170.167 124 -258.5s54.333 -199.166 73 -332.499l91 131l121 -123c17.333 -18.667 36.333 -34 57 -46c16 -11.333 40.5 -20.666 73.5 -27.999s67.5 -11 103.5 -11c13.333 0 23 0.333008 29 1z" />
    <glyph glyph-name="threesuperior" unicode="&#x456;" horiz-adv-x="1102" 
d="M838 656c76.667 16 154 41.3291 232 75.9961l38 -54c-38 -38 -81.667 -72.667 -131 -104s-100.666 -56.666 -153.999 -75.999c11.333 -119.333 24.5 -204.333 39.5 -255s46.167 -113.667 93.5 -189l-41 -54c-78 83.333 -135.167 157 -171.5 221s-64.5 142 -84.5 234
l-30 -1c-68 0 -150 26 -246 78l1 -58c0 -79.333 -6.66699 -149 -20 -209c-6 -28.667 -16 -65.667 -30 -111s-31.333 -96.666 -52 -153.999l-262 246c55.333 112 93.666 222.333 114.999 331c14 74 24.667 148.167 32 222.5s11 148.166 11 221.499
c0 68.667 -16.333 161.334 -49 278.001l37 24c52.667 -84 94 -170.167 124 -258.5s54.333 -199.166 73 -332.499l91 131l121 -123c17.333 -18.667 36.333 -34 57 -46c16 -11.333 40.5 -20.666 73.5 -27.999s67.5 -11 103.5 -11c13.333 0 23 0.333008 29 1z" />
    <glyph glyph-name="acute" unicode="&#xb4;" horiz-adv-x="1233" 
d="M996 597c0 115.333 -37.334 209.997 -112.001 283.997c-42.667 42 -88.334 73 -137.001 93s-107.667 33 -177 39l-125 180c-69.333 -71.333 -119 -133 -149 -185c-22.667 -40 -39.334 -79 -50.001 -117l-161 6c18 43.333 43.333 86.333 76 129
c50.667 66.667 133.667 139.334 249 218.001l-78 113c20.667 0 45.334 1 74.001 3s47.334 3 56.001 3c73.333 0 151 -11 233 -33l157 31l11 -48l-66 -22c122 -69.333 214.667 -147.666 278 -234.999c78 -108 117 -229.667 117 -365c0 -134 -36.167 -253.167 -108.5 -357.5
s-181.833 -193.166 -328.5 -266.499l36 -66c-59.333 -10 -99 -15 -119 -15c-23.333 0 -54 4 -92 12l-126 -34l-24 45l54 23c-101.333 46 -184.666 105 -249.999 177c-59.333 66.667 -106.333 142 -141 226c-34.667 82 -52 163.333 -52 244zM339.999 471.997
c33.333 -38.667 70.334 -68.334 111.001 -89.001c38.667 -19.333 93.667 -35.666 165 -48.999l110 -213c47.333 40 83.333 73 108 99c74.667 76 123.667 159.667 147 251c0 1.33301 -59.333 2 -178 2h-256c-58.667 -0.666992 -119.334 -1 -182.001 -1h-25z" />
    <glyph glyph-name="acute" unicode="&#x491;" horiz-adv-x="1233" 
d="M996 597c0 115.333 -37.334 209.997 -112.001 283.997c-42.667 42 -88.334 73 -137.001 93s-107.667 33 -177 39l-125 180c-69.333 -71.333 -119 -133 -149 -185c-22.667 -40 -39.334 -79 -50.001 -117l-161 6c18 43.333 43.333 86.333 76 129
c50.667 66.667 133.667 139.334 249 218.001l-78 113c20.667 0 45.334 1 74.001 3s47.334 3 56.001 3c73.333 0 151 -11 233 -33l157 31l11 -48l-66 -22c122 -69.333 214.667 -147.666 278 -234.999c78 -108 117 -229.667 117 -365c0 -134 -36.167 -253.167 -108.5 -357.5
s-181.833 -193.166 -328.5 -266.499l36 -66c-59.333 -10 -99 -15 -119 -15c-23.333 0 -54 4 -92 12l-126 -34l-24 45l54 23c-101.333 46 -184.666 105 -249.999 177c-59.333 66.667 -106.333 142 -141 226c-34.667 82 -52 163.333 -52 244zM339.999 471.997
c33.333 -38.667 70.334 -68.334 111.001 -89.001c38.667 -19.333 93.667 -35.666 165 -48.999l110 -213c47.333 40 83.333 73 108 99c74.667 76 123.667 159.667 147 251c0 1.33301 -59.333 2 -178 2h-256c-58.667 -0.666992 -119.334 -1 -182.001 -1h-25z" />
    <glyph glyph-name="mu" unicode="&#xb5;" horiz-adv-x="1023" 
d="M319 1099c-24.667 -100 -36.998 -180.001 -36.998 -240.001c73.333 30.667 146.333 46 219 46c73.333 0 159.666 -18 258.999 -54l-141 -242c-40 18.667 -73.833 33.834 -101.5 45.501s-53.167 21.167 -76.5 28.5c-39.333 12 -80.666 18 -123.999 18h-16
c12 -46 25 -86.833 39 -122.5s29.667 -67.834 47 -96.501c34 -56 92.333 -128.333 175 -217l-218 -283c-50.667 60.667 -90.334 122 -119.001 184c-54.667 127.333 -82 255.333 -82 384l4 99c-8.66699 -8 -20.334 -21.333 -35.001 -40l-52 39
c37.333 59.333 71.666 104 102.999 134c20 116 50 231.667 90 347c-33.333 17.333 -68 37.333 -104 60s-74.333 49.334 -115 80.001l48 53c78 -48.667 146.333 -83 205 -103l43 100l47 -21l-30 -96c44 -10 85.667 -15 125 -15c68 0 130.5 11.167 187.5 33.5
s127.5 62.833 211.5 121.5l200 -219c-72 -38 -134.5 -64 -187.5 -78s-115.833 -21 -188.5 -21c-125.333 0 -250.666 25 -375.999 75z" />
    <glyph glyph-name="paragraph" unicode="&#xb6;" horiz-adv-x="1331" 
d="M1209 6c0 -46 2.99902 -81.999 8.99902 -107.999c6.66699 -30 23 -78.333 49 -145l-354 -57c-8 92 -12 173.667 -12 245c0 17.333 0.666992 34 2 50c-188.667 162.667 -315.667 377.334 -381 644.001l-63 -19l2 -36c0 -130.667 -24.667 -268.667 -74 -414
c-8.66699 -25.333 -20.5 -52.666 -35.5 -81.999s-33.833 -62 -56.5 -98l-230 303c72 107.333 124 212.666 156 315.999c-44.667 8 -107 29.333 -187 64l28 77c71.333 -31.333 132 -47 182 -47c6 32.667 10.667 64.834 14 96.501s5 62.5 5 92.5
c0 79.333 -8.66699 149 -26 209s-50.666 131 -99.999 213l74 49c68 -100 118.5 -192.667 151.5 -278s59.833 -192.666 80.5 -321.999l51 31c-8 68 -12 132.667 -12 194c0 25.333 1 53.166 3 83.499s5.33301 64.833 10 103.5l71 -16v-65c0 -82.667 8.33301 -157 25 -223
c148.667 142 234 317.333 256 526l252 -226c-72 -182.667 -219.333 -339 -442 -469c55.333 -104.667 119 -188.334 191 -251.001c37.333 -32.667 79 -61.834 125 -87.501s98.667 -49.834 158 -72.501c-19.333 -26 -29 -53.667 -29 -83c0 -31.333 9.33301 -62.333 28 -93
s45 -65.667 79 -105z" />
    <glyph glyph-name="cedilla" unicode="&#xb8;" horiz-adv-x="1024" 
d="M308 -325l94 119.001c30 -55.333 64.667 -83 104 -83c20 0 37.5 7.16699 52.5 21.5s22.5 31.166 22.5 50.499c0 10.667 -1.83301 19.334 -5.5 26.001s-7.5 12.334 -11.5 17.001s-11.333 12 -22 22c-40 38 -60 85 -60 141v30c2 11.333 3.33301 19.666 4 24.999h83v-21
c0 -8.66699 -0.666992 -16.334 -2 -23.001v-17c0 -45.333 19.333 -79 58 -101c61.333 -32 92 -82.333 92 -151c0 -64 -28 -115 -84 -153c-38 -26 -78.333 -39 -121 -39c-66 0 -134 45.333 -204 136z" />
    <glyph glyph-name="cedilla" unicode="&#x451;" horiz-adv-x="1024" 
d="M308 -325l94 119.001c30 -55.333 64.667 -83 104 -83c20 0 37.5 7.16699 52.5 21.5s22.5 31.166 22.5 50.499c0 10.667 -1.83301 19.334 -5.5 26.001s-7.5 12.334 -11.5 17.001s-11.333 12 -22 22c-40 38 -60 85 -60 141v30c2 11.333 3.33301 19.666 4 24.999h83v-21
c0 -8.66699 -0.666992 -16.334 -2 -23.001v-17c0 -45.333 19.333 -79 58 -101c61.333 -32 92 -82.333 92 -151c0 -64 -28 -115 -84 -153c-38 -26 -78.333 -39 -121 -39c-66 0 -134 45.333 -204 136z" />
    <glyph glyph-name="onesuperior" unicode="&#xb9;" horiz-adv-x="2232" 
d="M956 153l53 -102.998l-53 -42l-50 78l-70 -94c-29.333 106 -59.166 201 -89.499 285s-63.166 162 -98.499 234c-67.333 138 -154.333 273.667 -261 407c6 -40 10.667 -78 14 -114s5 -71.667 5 -107c0 -126.667 -14.333 -247.334 -43 -362.001s-74.334 -232 -137.001 -352
l-219 270c95.333 154 161.333 281.667 198 383c41.333 112.667 62 222.667 62 330c0 17.333 -1 33.666 -3 48.999s-5.66699 31.666 -11 48.999c-52.667 50.667 -112.334 101 -179.001 151l30 62l53 -29l49 -30l-36 60l56 49c36 -51.333 71.333 -113.333 106 -186
c146.667 -97.333 267.667 -199.666 363 -306.999c0 86 10 170.833 30 254.5s51.667 169.167 95 256.5l239 -263c-79.333 -124.667 -143 -284.334 -191 -479.001c32.667 -49.333 64 -100.666 94 -153.999c28 -50 57.333 -106.667 88 -170zM1419 1380
c77.333 0 143.831 -27 199.498 -81s83.5 -119.333 83.5 -196c0 -76 -27.667 -141.167 -83 -195.5s-121.666 -81.5 -198.999 -81.5s-143.833 27 -199.5 81s-83.5 120.333 -83.5 199c0 76 27.833 140.667 83.5 194s121.834 80 198.501 80zM1419 1265
c-44 0 -82.499 -15.667 -115.499 -47s-49.5 -69 -49.5 -113c0 -46 16.167 -84.833 48.5 -116.5s71.5 -47.5 117.5 -47.5c45.333 0 84.166 16 116.499 48s48.5 70 48.5 114s-16.333 82 -49 114s-71.667 48 -117 48zM1582 743.002l173.002 -192
c-33.333 -33.333 -68.333 -58.333 -105 -75s-76.334 -25 -119.001 -25c-64.667 0 -155.334 33.333 -272.001 100l50 120c30 -4 54 -6 72 -6c64.667 0 131.667 26 201 78zM1582 333.002l173.002 -192c-33.333 -33.333 -68.333 -58.333 -105 -75s-76.334 -25 -119.001 -25
c-64.667 0 -155.334 33.333 -272.001 100l50 120c30 -4 54 -6 72 -6c64.667 0 131.667 26 201 78z" />
    <glyph glyph-name="onesuperior" unicode="&#x2116;" horiz-adv-x="2232" 
d="M956 153l53 -102.998l-53 -42l-50 78l-70 -94c-29.333 106 -59.166 201 -89.499 285s-63.166 162 -98.499 234c-67.333 138 -154.333 273.667 -261 407c6 -40 10.667 -78 14 -114s5 -71.667 5 -107c0 -126.667 -14.333 -247.334 -43 -362.001s-74.334 -232 -137.001 -352
l-219 270c95.333 154 161.333 281.667 198 383c41.333 112.667 62 222.667 62 330c0 17.333 -1 33.666 -3 48.999s-5.66699 31.666 -11 48.999c-52.667 50.667 -112.334 101 -179.001 151l30 62l53 -29l49 -30l-36 60l56 49c36 -51.333 71.333 -113.333 106 -186
c146.667 -97.333 267.667 -199.666 363 -306.999c0 86 10 170.833 30 254.5s51.667 169.167 95 256.5l239 -263c-79.333 -124.667 -143 -284.334 -191 -479.001c32.667 -49.333 64 -100.666 94 -153.999c28 -50 57.333 -106.667 88 -170zM1419 1380
c77.333 0 143.831 -27 199.498 -81s83.5 -119.333 83.5 -196c0 -76 -27.667 -141.167 -83 -195.5s-121.666 -81.5 -198.999 -81.5s-143.833 27 -199.5 81s-83.5 120.333 -83.5 199c0 76 27.833 140.667 83.5 194s121.834 80 198.501 80zM1419 1265
c-44 0 -82.499 -15.667 -115.499 -47s-49.5 -69 -49.5 -113c0 -46 16.167 -84.833 48.5 -116.5s71.5 -47.5 117.5 -47.5c45.333 0 84.166 16 116.499 48s48.5 70 48.5 114s-16.333 82 -49 114s-71.667 48 -117 48zM1582 743.002l173.002 -192
c-33.333 -33.333 -68.333 -58.333 -105 -75s-76.334 -25 -119.001 -25c-64.667 0 -155.334 33.333 -272.001 100l50 120c30 -4 54 -6 72 -6c64.667 0 131.667 26 201 78zM1582 333.002l173.002 -192c-33.333 -33.333 -68.333 -58.333 -105 -75s-76.334 -25 -119.001 -25
c-64.667 0 -155.334 33.333 -272.001 100l50 120c30 -4 54 -6 72 -6c64.667 0 131.667 26 201 78z" />
    <glyph glyph-name="ordmasculine" unicode="&#xba;" horiz-adv-x="1438" 
d="M1121 227c29.333 -31.333 56.999 -54.6699 82.999 -70.0029c26 -16.667 71.667 -39.334 137 -68.001l-210 -290c-106 89.333 -178 156.333 -216 201c-78 83.333 -135.167 157 -171.5 221s-64.5 142 -84.5 234l-30 -1c-68 0 -150 26 -246 78l1 -58
c0 -79.333 -6.66699 -149 -20 -209c-6 -28.667 -16 -65.667 -30 -111s-31.333 -96.666 -52 -153.999l-262 246c55.333 112 93.666 222.333 114.999 331c14 74 24.667 148.167 32 222.5s11 148.166 11 221.499c0 68.667 -16.333 161.334 -49 278.001l37 24
c52.667 -84 94 -170.167 124 -258.5s54.333 -199.166 73 -332.499l91 131l121 -123c16 -17.333 35 -32.666 57 -45.999l-1 42c0 204 38.667 406.667 116 608l260 -270c-81.333 -141.333 -137.666 -280.666 -168.999 -417.999c80 17.333 157.333 42.666 232 75.999l38 -54
c-38 -38 -81.667 -72.667 -131 -104s-100.666 -56.666 -153.999 -75.999c11.333 -119.333 24.5 -204.333 39.5 -255s46.167 -113.667 93.5 -189z" />
    <glyph glyph-name="ordmasculine" unicode="&#x454;" horiz-adv-x="1438" 
d="M1121 227c29.333 -31.333 56.999 -54.6699 82.999 -70.0029c26 -16.667 71.667 -39.334 137 -68.001l-210 -290c-106 89.333 -178 156.333 -216 201c-78 83.333 -135.167 157 -171.5 221s-64.5 142 -84.5 234l-30 -1c-68 0 -150 26 -246 78l1 -58
c0 -79.333 -6.66699 -149 -20 -209c-6 -28.667 -16 -65.667 -30 -111s-31.333 -96.666 -52 -153.999l-262 246c55.333 112 93.666 222.333 114.999 331c14 74 24.667 148.167 32 222.5s11 148.166 11 221.499c0 68.667 -16.333 161.334 -49 278.001l37 24
c52.667 -84 94 -170.167 124 -258.5s54.333 -199.166 73 -332.499l91 131l121 -123c16 -17.333 35 -32.666 57 -45.999l-1 42c0 204 38.667 406.667 116 608l260 -270c-81.333 -141.333 -137.666 -280.666 -168.999 -417.999c80 17.333 157.333 42.666 232 75.999l38 -54
c-38 -38 -81.667 -72.667 -131 -104s-100.666 -56.666 -153.999 -75.999c11.333 -119.333 24.5 -204.333 39.5 -255s46.167 -113.667 93.5 -189z" />
    <glyph glyph-name="guillemotright" unicode="&#xbb;" horiz-adv-x="805" 
d="M83 850l62 56.998c41.333 -66.667 83 -117.667 125 -153s104 -71.666 186 -108.999c-51.333 -30 -90 -56.333 -116 -79s-51.333 -52.667 -76 -90c-56 -83.333 -94 -169.666 -114 -258.999l-75 24c25.333 160 78.333 296 159 408c-31.333 30.667 -57 58.334 -77 83.001
c-16 21.333 -40.667 60.666 -74 117.999zM384 849.998l61.001 56.999c41.333 -67.333 83.666 -119 126.999 -155c41.333 -34 103 -69.667 185 -107c-54 -31.333 -93.333 -58 -118 -80s-49.667 -51.667 -75 -89c-55.333 -83.333 -93.333 -169.666 -114 -258.999l-75 24
c26 160 79 296 159 408c-32.667 31.333 -57.5 58.333 -74.5 81s-42.167 62.667 -75.5 120z" />
    <glyph glyph-name="onequarter" unicode="&#xbc;" horiz-adv-x="1233" 
d="M755 67l35.9971 -66.0039c-59.333 -10 -99 -15 -119 -15c-23.333 0 -54 4 -92 12l-126 -34l-24 45l54 23c-101.333 46 -184.666 105 -249.999 177c-59.333 66.667 -106.333 141.834 -141 225.501s-52 165.167 -52 244.5c0 127.333 40 243 120 347
c50.667 66.667 133.667 139.334 249 218.001l-78 113c20.667 0 45.334 1 74.001 3s47.334 3 56.001 3c73.333 0 151 -11 233 -33l157 31l11 -48l-66 -22c122 -69.333 214.667 -147.666 278 -234.999c78 -108 117 -229.667 117 -365c0 -134 -36.167 -253.167 -108.5 -357.5
s-181.833 -193.166 -328.5 -266.499zM883.997 880.996c-43.333 42.667 -89 73.667 -137 93c-48.667 20 -107.667 33 -177 39l-125 180c-69.333 -71.333 -119 -133 -149 -185c-22 -39.333 -38.667 -78.5 -50 -117.5s-17 -79.167 -17 -120.5
c0 -64.667 12.333 -124.667 37 -180zM339.997 471.996c33.333 -38.667 70.333 -68.333 111 -89c38.667 -19.333 93.667 -35.666 165 -48.999l110 -213c47.333 40 83.333 73 108 99c108 110 162 235.667 162 377c0 67.333 -13 127.666 -39 180.999z" />
    <glyph glyph-name="onequarter" unicode="&#x458;" horiz-adv-x="1233" 
d="M755 67l35.9971 -66.0039c-59.333 -10 -99 -15 -119 -15c-23.333 0 -54 4 -92 12l-126 -34l-24 45l54 23c-101.333 46 -184.666 105 -249.999 177c-59.333 66.667 -106.333 141.834 -141 225.501s-52 165.167 -52 244.5c0 127.333 40 243 120 347
c50.667 66.667 133.667 139.334 249 218.001l-78 113c20.667 0 45.334 1 74.001 3s47.334 3 56.001 3c73.333 0 151 -11 233 -33l157 31l11 -48l-66 -22c122 -69.333 214.667 -147.666 278 -234.999c78 -108 117 -229.667 117 -365c0 -134 -36.167 -253.167 -108.5 -357.5
s-181.833 -193.166 -328.5 -266.499zM883.997 880.996c-43.333 42.667 -89 73.667 -137 93c-48.667 20 -107.667 33 -177 39l-125 180c-69.333 -71.333 -119 -133 -149 -185c-22 -39.333 -38.667 -78.5 -50 -117.5s-17 -79.167 -17 -120.5
c0 -64.667 12.333 -124.667 37 -180zM339.997 471.996c33.333 -38.667 70.333 -68.333 111 -89c38.667 -19.333 93.667 -35.666 165 -48.999l110 -213c47.333 40 83.333 73 108 99c108 110 162 235.667 162 377c0 67.333 -13 127.666 -39 180.999z" />
    <glyph glyph-name="onehalf" unicode="&#xbd;" horiz-adv-x="928" 
d="M338 313c0 -1.33301 -2 -1.99902 -6 -1.99902c-14.667 0 -61.667 7.33301 -141 22l-191 36l8 94l311 -12c-8.66699 54 -18.334 108 -29.001 162l-127 -25l-12 50c48.667 31.333 94 62.666 136 93.999c-71.333 199.333 -173.666 366.666 -306.999 501.999l24 57
c164 -105.333 304.667 -253.666 422 -444.999c77.333 72 138.5 141.833 183.5 209.5s89.167 156.167 132.5 265.5l207 -232c-58 -89.333 -118.5 -161.5 -181.5 -216.5s-151.5 -110.5 -265.5 -166.5l22 -61l291 55l-16 -82l-141 -64.5c-56.667 -26.333 -85 -41.5 -85 -45.5
c26.667 -79.333 47 -147.333 61 -204l-279 -303c0 104 -5.66699 208 -17 312z" />
    <glyph glyph-name="onehalf" unicode="&#x405;" horiz-adv-x="928" 
d="M338 313c0 -1.33301 -2 -1.99902 -6 -1.99902c-14.667 0 -61.667 7.33301 -141 22l-191 36l8 94l311 -12c-8.66699 54 -18.334 108 -29.001 162l-127 -25l-12 50c48.667 31.333 94 62.666 136 93.999c-71.333 199.333 -173.666 366.666 -306.999 501.999l24 57
c164 -105.333 304.667 -253.666 422 -444.999c77.333 72 138.5 141.833 183.5 209.5s89.167 156.167 132.5 265.5l207 -232c-58 -89.333 -118.5 -161.5 -181.5 -216.5s-151.5 -110.5 -265.5 -166.5l22 -61l291 55l-16 -82l-141 -64.5c-56.667 -26.333 -85 -41.5 -85 -45.5
c26.667 -79.333 47 -147.333 61 -204l-279 -303c0 104 -5.66699 208 -17 312z" />
    <glyph glyph-name="threequarters" unicode="&#xbe;" horiz-adv-x="928" 
d="M163 588l-12.002 50.002c48.667 31.333 94 62.666 136 93.999c-71.333 199.333 -173.666 366.666 -306.999 501.999l24 57c164 -105.333 304.667 -253.666 422 -444.999c77.333 72 138.5 141.833 183.5 209.5s89.167 156.167 132.5 265.5l207 -232
c-58 -89.333 -118.5 -161.5 -181.5 -216.5s-151.5 -110.5 -265.5 -166.5l22 -61c54.667 -146.667 91.334 -260.334 110.001 -341.001l-279 -303c0 107.333 -5.83301 211.333 -17.5 312s-27.5 200.667 -47.5 300z" />
    <glyph glyph-name="threequarters" unicode="&#x455;" horiz-adv-x="928" 
d="M163 588l-12.002 50.002c48.667 31.333 94 62.666 136 93.999c-71.333 199.333 -173.666 366.666 -306.999 501.999l24 57c164 -105.333 304.667 -253.666 422 -444.999c77.333 72 138.5 141.833 183.5 209.5s89.167 156.167 132.5 265.5l207 -232
c-58 -89.333 -118.5 -161.5 -181.5 -216.5s-151.5 -110.5 -265.5 -166.5l22 -61c54.667 -146.667 91.334 -260.334 110.001 -341.001l-279 -303c0 107.333 -5.83301 211.333 -17.5 312s-27.5 200.667 -47.5 300z" />
    <glyph glyph-name="questiondown" unicode="&#xbf;" horiz-adv-x="1102" 
d="M838 656c76.667 16 154 41.3291 232 75.9961l38 -54c-38 -38 -81.667 -72.667 -131 -104s-100.666 -56.666 -153.999 -75.999c11.333 -119.333 24.5 -204.333 39.5 -255s46.167 -113.667 93.5 -189l-41 -54c-78 83.333 -135.167 157 -171.5 221s-64.5 142 -84.5 234
l-30 -1c-68 0 -150 26 -246 78l1 -58c0 -79.333 -6.66699 -149 -20 -209c-6 -28.667 -16 -65.667 -30 -111s-31.333 -96.666 -52 -153.999l-262 246c55.333 112 93.666 222.333 114.999 331c14 74 24.667 148.167 32 222.5s11 148.166 11 221.499
c0 68.667 -16.333 161.334 -49 278.001l37 24c52.667 -84 94 -170.167 124 -258.5s54.333 -199.166 73 -332.499l91 131l121 -123c17.333 -18.667 36.333 -34 57 -46c16 -11.333 40.5 -20.666 73.5 -27.999s67.5 -11 103.5 -11c13.333 0 23 0.333008 29 1z" />
    <glyph glyph-name="questiondown" unicode="&#x457;" horiz-adv-x="1102" 
d="M838 656c76.667 16 154 41.3291 232 75.9961l38 -54c-38 -38 -81.667 -72.667 -131 -104s-100.666 -56.666 -153.999 -75.999c11.333 -119.333 24.5 -204.333 39.5 -255s46.167 -113.667 93.5 -189l-41 -54c-78 83.333 -135.167 157 -171.5 221s-64.5 142 -84.5 234
l-30 -1c-68 0 -150 26 -246 78l1 -58c0 -79.333 -6.66699 -149 -20 -209c-6 -28.667 -16 -65.667 -30 -111s-31.333 -96.666 -52 -153.999l-262 246c55.333 112 93.666 222.333 114.999 331c14 74 24.667 148.167 32 222.5s11 148.166 11 221.499
c0 68.667 -16.333 161.334 -49 278.001l37 24c52.667 -84 94 -170.167 124 -258.5s54.333 -199.166 73 -332.499l91 131l121 -123c17.333 -18.667 36.333 -34 57 -46c16 -11.333 40.5 -20.666 73.5 -27.999s67.5 -11 103.5 -11c13.333 0 23 0.333008 29 1z" />
    <glyph glyph-name="Agrave" unicode="&#xc0;" horiz-adv-x="1171" 
d="M854 1028l36.998 -14.999c-33.333 -94 -50 -172 -50 -234c0 -113.333 36 -227.666 108 -342.999c20 -32 44.5 -64.5 73.5 -97.5s63.833 -67.5 104.5 -103.5l-204 -285c-83.333 113.333 -147.666 243.333 -192.999 390l-175 150c-14 -77.333 -35.333 -151.333 -64 -222
c-37.333 -96.667 -78.833 -166.667 -124.5 -210s-101.167 -65 -166.5 -65c-62.667 0 -112.5 18 -149.5 54s-55.5 80.667 -55.5 134c0 51.333 16.167 95.166 48.5 131.499s71.166 54.5 116.499 54.5c50.667 0 103.334 -25.333 158.001 -76c55.333 92 96.333 191 123 297
l-196 167l64 87l152 -127l3 93c0 65.333 -6 131.666 -18 198.999c-33.333 14.667 -64.333 33.5 -93 56.5s-75.667 67.833 -141 134.5l33 27c24.667 -10 48 -18.333 70 -25s45.667 -13 71 -19c-4.66699 10 -11 22.833 -19 38.5s-17.333 31.834 -28 48.501l66 47
c30 -40 57.333 -86.667 82 -140c22 0 43.667 3.16699 65 9.5s42 14.833 62 25.5c36.667 19.333 81.667 54.666 135 105.999l190 -223c-31.333 -27.333 -59.666 -49 -84.999 -65zM797.998 1001c-54.667 -18.667 -110 -28 -166 -28c-26 0 -53.667 2 -83 6
c17.333 -85.333 26 -171 26 -257c0 -9.33301 -0.666992 -25 -2 -47s-2 -39.333 -2 -52l120 -101l-5 93c0 38.667 2 74.5 6 107.5s10.667 64.833 20 95.5c17.333 60.667 46 121.667 86 183z" />
    <glyph glyph-name="Agrave" unicode="&#x410;" horiz-adv-x="1171" 
d="M854 1028l36.998 -14.999c-33.333 -94 -50 -172 -50 -234c0 -113.333 36 -227.666 108 -342.999c20 -32 44.5 -64.5 73.5 -97.5s63.833 -67.5 104.5 -103.5l-204 -285c-83.333 113.333 -147.666 243.333 -192.999 390l-175 150c-14 -77.333 -35.333 -151.333 -64 -222
c-37.333 -96.667 -78.833 -166.667 -124.5 -210s-101.167 -65 -166.5 -65c-62.667 0 -112.5 18 -149.5 54s-55.5 80.667 -55.5 134c0 51.333 16.167 95.166 48.5 131.499s71.166 54.5 116.499 54.5c50.667 0 103.334 -25.333 158.001 -76c55.333 92 96.333 191 123 297
l-196 167l64 87l152 -127l3 93c0 65.333 -6 131.666 -18 198.999c-33.333 14.667 -64.333 33.5 -93 56.5s-75.667 67.833 -141 134.5l33 27c24.667 -10 48 -18.333 70 -25s45.667 -13 71 -19c-4.66699 10 -11 22.833 -19 38.5s-17.333 31.834 -28 48.501l66 47
c30 -40 57.333 -86.667 82 -140c22 0 43.667 3.16699 65 9.5s42 14.833 62 25.5c36.667 19.333 81.667 54.666 135 105.999l190 -223c-31.333 -27.333 -59.666 -49 -84.999 -65zM797.998 1001c-54.667 -18.667 -110 -28 -166 -28c-26 0 -53.667 2 -83 6
c17.333 -85.333 26 -171 26 -257c0 -9.33301 -0.666992 -25 -2 -47s-2 -39.333 -2 -52l120 -101l-5 93c0 38.667 2 74.5 6 107.5s10.667 64.833 20 95.5c17.333 60.667 46 121.667 86 183z" />
    <glyph glyph-name="Aacute" unicode="&#xc1;" horiz-adv-x="1170" 
d="M438 673c4 -38 6.00098 -100.669 6.00098 -188.002v-19v-16v-14v-11v-43c-2 -10.667 -3.33301 -18 -4 -22l81 -37c21.333 -9.33301 40.333 -16.666 57 -21.999c32.667 -8.66699 66.667 -13 102 -13c61.333 0 115.666 15 162.999 45c62.667 40.667 94 97 94 169
c0 60 -30.333 120 -91 180c-34.667 -17.333 -90 -36.666 -166 -57.999l-117 102zM474.001 802.998l-69 60l18 -84zM931.001 738.998c34 -22.667 56.999 -39.668 68.999 -51.001c40.667 -34.667 73.334 -78.5 98.001 -131.5s37 -105.167 37 -156.5
c0 -66 -18.167 -128.333 -54.5 -187s-87.5 -108 -153.5 -148c-42.667 -26.667 -102.334 -51.667 -179.001 -75l-324 298c-40 -109.333 -81.333 -207 -124 -293l-225 253c111.333 174.667 167 358 167 550c0 138 -24.333 257.667 -73 359
c-26 -17.333 -59.667 -43.666 -101 -78.999l-48 42c44 54.667 78.667 93.334 104 116.001c-18 26.667 -41.667 56.334 -71 89.001l62 56c33.333 -35.333 60.666 -66.666 81.999 -93.999c52.667 29.333 109.334 51.333 170.001 66s127.667 22 201 22
c129.333 0 236 -26 320 -78c50 -30.667 90 -73.334 120 -128.001l-216 -110c0 33.333 -13.333 65.333 -40 96c-27.333 31.333 -64.333 56.166 -111 74.499s-102 27.5 -166 27.5c-81.333 0 -155.333 -16.667 -222 -50c64 -97.333 112 -202.666 144 -315.999
c29.333 -2.66699 55.833 -4.66699 79.5 -6s37.167 -2.33301 40.5 -3c58.667 -6.66699 116.334 -16.834 173.001 -30.501s105 -29.834 145 -48.501s72 -40 96 -64z" />
    <glyph glyph-name="Aacute" unicode="&#x411;" horiz-adv-x="1170" 
d="M438 673c4 -38 6.00098 -100.669 6.00098 -188.002v-19v-16v-14v-11v-43c-2 -10.667 -3.33301 -18 -4 -22l81 -37c21.333 -9.33301 40.333 -16.666 57 -21.999c32.667 -8.66699 66.667 -13 102 -13c61.333 0 115.666 15 162.999 45c62.667 40.667 94 97 94 169
c0 60 -30.333 120 -91 180c-34.667 -17.333 -90 -36.666 -166 -57.999l-117 102zM474.001 802.998l-69 60l18 -84zM931.001 738.998c34 -22.667 56.999 -39.668 68.999 -51.001c40.667 -34.667 73.334 -78.5 98.001 -131.5s37 -105.167 37 -156.5
c0 -66 -18.167 -128.333 -54.5 -187s-87.5 -108 -153.5 -148c-42.667 -26.667 -102.334 -51.667 -179.001 -75l-324 298c-40 -109.333 -81.333 -207 -124 -293l-225 253c111.333 174.667 167 358 167 550c0 138 -24.333 257.667 -73 359
c-26 -17.333 -59.667 -43.666 -101 -78.999l-48 42c44 54.667 78.667 93.334 104 116.001c-18 26.667 -41.667 56.334 -71 89.001l62 56c33.333 -35.333 60.666 -66.666 81.999 -93.999c52.667 29.333 109.334 51.333 170.001 66s127.667 22 201 22
c129.333 0 236 -26 320 -78c50 -30.667 90 -73.334 120 -128.001l-216 -110c0 33.333 -13.333 65.333 -40 96c-27.333 31.333 -64.333 56.166 -111 74.499s-102 27.5 -166 27.5c-81.333 0 -155.333 -16.667 -222 -50c64 -97.333 112 -202.666 144 -315.999
c29.333 -2.66699 55.833 -4.66699 79.5 -6s37.167 -2.33301 40.5 -3c58.667 -6.66699 116.334 -16.834 173.001 -30.501s105 -29.834 145 -48.501s72 -40 96 -64z" />
    <glyph glyph-name="Acircumflex" unicode="&#xc2;" horiz-adv-x="1169" 
d="M931 739c34 -22.667 57 -39.6709 69 -51.0039c40.667 -34.667 73.334 -78.5 98.001 -131.5s37 -105.167 37 -156.5c0 -66 -18.167 -128.333 -54.5 -187s-87.5 -108 -153.5 -148c-42.667 -26.667 -102.334 -51.667 -179.001 -75l-324 298
c-40 -109.333 -81.333 -207 -124 -293l-225 253c111.333 174.667 167 358 167 550c0 138 -24.333 257.667 -73 359c-26 -17.333 -59.667 -43.666 -101 -78.999l-48 42c44 54.667 78.667 93.334 104 116.001c-18 26.667 -41.667 56.334 -71 89.001l62 56
c33.333 -35.333 60.666 -66.666 81.999 -93.999c52.667 29.333 109.334 51.333 170.001 66s127.667 22 201 22c129.333 0 236 -26 320 -78c50 -31.333 90 -74 120 -128s45 -111.667 45 -173c0 -102 -40.667 -187.667 -122 -257zM438 672.996
c4 -38 6.00098 -100.669 6.00098 -188.002v-19v-16v-14v-11v-43c-2 -10.667 -3.33301 -18 -4 -22l81 -37c21.333 -9.33301 40.333 -16.666 57 -21.999c32.667 -8.66699 66.667 -13 102 -13c61.333 0 115.666 15 162.999 45c62.667 40.667 94 97 94 169
c0 60 -30.333 120 -91 180c-34.667 -17.333 -90 -36.666 -166 -57.999l-117 102zM474.001 802.994l-69 60l18 -84zM253.001 1206.99c64 -97.333 111.999 -202.666 143.999 -315.999c56 -6 96 -9 120 -9c70 0 131.667 15 185 45c26.667 14.667 48.334 34.5 65.001 59.5
s25 49.167 25 72.5c0 32.667 -13.5 64.667 -40.5 96s-63.833 56.166 -110.5 74.499s-102 27.5 -166 27.5c-81.333 0 -155.333 -16.667 -222 -50z" />
    <glyph glyph-name="Acircumflex" unicode="&#x412;" horiz-adv-x="1169" 
d="M931 739c34 -22.667 57 -39.6709 69 -51.0039c40.667 -34.667 73.334 -78.5 98.001 -131.5s37 -105.167 37 -156.5c0 -66 -18.167 -128.333 -54.5 -187s-87.5 -108 -153.5 -148c-42.667 -26.667 -102.334 -51.667 -179.001 -75l-324 298
c-40 -109.333 -81.333 -207 -124 -293l-225 253c111.333 174.667 167 358 167 550c0 138 -24.333 257.667 -73 359c-26 -17.333 -59.667 -43.666 -101 -78.999l-48 42c44 54.667 78.667 93.334 104 116.001c-18 26.667 -41.667 56.334 -71 89.001l62 56
c33.333 -35.333 60.666 -66.666 81.999 -93.999c52.667 29.333 109.334 51.333 170.001 66s127.667 22 201 22c129.333 0 236 -26 320 -78c50 -31.333 90 -74 120 -128s45 -111.667 45 -173c0 -102 -40.667 -187.667 -122 -257zM438 672.996
c4 -38 6.00098 -100.669 6.00098 -188.002v-19v-16v-14v-11v-43c-2 -10.667 -3.33301 -18 -4 -22l81 -37c21.333 -9.33301 40.333 -16.666 57 -21.999c32.667 -8.66699 66.667 -13 102 -13c61.333 0 115.666 15 162.999 45c62.667 40.667 94 97 94 169
c0 60 -30.333 120 -91 180c-34.667 -17.333 -90 -36.666 -166 -57.999l-117 102zM474.001 802.994l-69 60l18 -84zM253.001 1206.99c64 -97.333 111.999 -202.666 143.999 -315.999c56 -6 96 -9 120 -9c70 0 131.667 15 185 45c26.667 14.667 48.334 34.5 65.001 59.5
s25 49.167 25 72.5c0 32.667 -13.5 64.667 -40.5 96s-63.833 56.166 -110.5 74.499s-102 27.5 -166 27.5c-81.333 0 -155.333 -16.667 -222 -50z" />
    <glyph glyph-name="Atilde" unicode="&#xc3;" horiz-adv-x="1155" 
d="M301 701c12 -46.667 25 -87.335 39 -122.002c14 -36 29.667 -68.333 47 -97c34 -56 92.333 -128.333 175 -217l-218 -283c-50.667 60.667 -90.334 122 -119.001 184c-54.667 127.333 -82 255.333 -82 384l4 99c7.33301 28 11.833 47.333 13.5 58s2.5 35.667 2.5 75
c20 116.667 50 232.334 90 347.001c-33.333 17.333 -68 37.333 -104 60s-74.333 49.334 -115 80.001l48 53c78 -48.667 146.333 -83 205 -103l43 100l47 -21l-30 -96c44 -10 85.667 -15 125 -15c68 0 130.5 11.167 187.5 33.5s127.5 62.833 211.5 121.5l200 -219
c-72 -38 -134.5 -64 -187.5 -78s-115.833 -21 -188.5 -21c-125.333 0 -250.666 25 -375.999 75c-24.667 -98.667 -37 -178.667 -37 -240c-4.66699 -18 -7 -36.333 -7 -55c0 -32 8.66699 -66.333 26 -103z" />
    <glyph glyph-name="Atilde" unicode="&#x413;" horiz-adv-x="1155" 
d="M301 701c12 -46.667 25 -87.335 39 -122.002c14 -36 29.667 -68.333 47 -97c34 -56 92.333 -128.333 175 -217l-218 -283c-50.667 60.667 -90.334 122 -119.001 184c-54.667 127.333 -82 255.333 -82 384l4 99c7.33301 28 11.833 47.333 13.5 58s2.5 35.667 2.5 75
c20 116.667 50 232.334 90 347.001c-33.333 17.333 -68 37.333 -104 60s-74.333 49.334 -115 80.001l48 53c78 -48.667 146.333 -83 205 -103l43 100l47 -21l-30 -96c44 -10 85.667 -15 125 -15c68 0 130.5 11.167 187.5 33.5s127.5 62.833 211.5 121.5l200 -219
c-72 -38 -134.5 -64 -187.5 -78s-115.833 -21 -188.5 -21c-125.333 0 -250.666 25 -375.999 75c-24.667 -98.667 -37 -178.667 -37 -240c-4.66699 -18 -7 -36.333 -7 -55c0 -32 8.66699 -66.333 26 -103z" />
    <glyph glyph-name="Adieresis" unicode="&#xc4;" horiz-adv-x="1119" 
d="M178 1179c-24.667 -20 -58 -50 -100 -90l-44 37c38 46.667 73.667 84.334 107 113.001l-23 30c-9.33301 12 -19.333 24 -30 36l46 63c24.667 -25.333 48 -51.333 70 -78c38.667 25.333 78.167 44.333 118.5 57s83.5 19 129.5 19c133.333 0 259.666 -48.333 378.999 -145
c80 -64.667 142.333 -142.834 187 -234.501s67 -188.167 67 -289.5c0 -76 -12.667 -155.5 -38 -238.5s-60 -157.5 -104 -223.5c-49.333 -77.333 -121.666 -153 -216.999 -227l-315 324c-4 -43.333 -13.5 -85.5 -28.5 -126.5s-47.5 -117.833 -97.5 -230.5l-251 259
c63.333 98.667 109.333 183 138 253c50 120 75 243.667 75 371c0 124 -23 231 -69 321zM257 1232c58.667 -80.667 101.332 -157.002 127.999 -229.002c40 -111.333 60 -235.666 60 -372.999c0 -60 -5 -126 -15 -198c47.333 -24.667 91.333 -37 132 -37
c82.667 0 149 31.333 199 94c58.667 74.667 88 162.334 88 263.001c0 106 -24.667 207 -74 303c-45.333 89.333 -104.666 154 -177.999 194c-51.333 27.333 -103 41 -155 41c-58 0 -119.667 -19.333 -185 -58z" />
    <glyph glyph-name="Adieresis" unicode="&#x414;" horiz-adv-x="1119" 
d="M178 1179c-24.667 -20 -58 -50 -100 -90l-44 37c38 46.667 73.667 84.334 107 113.001l-23 30c-9.33301 12 -19.333 24 -30 36l46 63c24.667 -25.333 48 -51.333 70 -78c38.667 25.333 78.167 44.333 118.5 57s83.5 19 129.5 19c133.333 0 259.666 -48.333 378.999 -145
c80 -64.667 142.333 -142.834 187 -234.501s67 -188.167 67 -289.5c0 -76 -12.667 -155.5 -38 -238.5s-60 -157.5 -104 -223.5c-49.333 -77.333 -121.666 -153 -216.999 -227l-315 324c-4 -43.333 -13.5 -85.5 -28.5 -126.5s-47.5 -117.833 -97.5 -230.5l-251 259
c63.333 98.667 109.333 183 138 253c50 120 75 243.667 75 371c0 124 -23 231 -69 321zM257 1232c58.667 -80.667 101.332 -157.002 127.999 -229.002c40 -111.333 60 -235.666 60 -372.999c0 -60 -5 -126 -15 -198c47.333 -24.667 91.333 -37 132 -37
c82.667 0 149 31.333 199 94c58.667 74.667 88 162.334 88 263.001c0 106 -24.667 207 -74 303c-45.333 89.333 -104.666 154 -177.999 194c-51.333 27.333 -103 41 -155 41c-58 0 -119.667 -19.333 -185 -58z" />
    <glyph glyph-name="Aring" unicode="&#xc5;" horiz-adv-x="1191" 
d="M354 1102c-15.333 -42 -27.168 -83.3301 -35.501 -123.997s-12.5 -82.334 -12.5 -125.001c66 14.667 124.667 22 176 22c73.333 0 135 -9.16699 185 -27.5s103.667 -51.833 161 -100.5l-211 -221c-97.333 95.333 -196.333 151.666 -297 168.999
c24 -96.667 62 -175.667 114 -237c39.333 -48.667 87 -88.334 143 -119.001c79.333 -42.667 164 -64 254 -64c89.333 0 207 26.333 353 79l-230 -338c-35.333 -6 -66.5 -10.667 -93.5 -14s-51.5 -5 -73.5 -5c-88.667 0 -176 14.333 -262 43
c-155.333 52 -261 158.667 -317 320c-14 42 -24.667 86 -32 132s-11 94 -11 144v40c-19.333 -14 -50.666 -47 -93.999 -99l-57 34c38 64.667 91.667 125.334 161 182.001c3.33301 24.667 7.66602 49.167 12.999 73.5s11.666 47.666 18.999 69.999s17.5 50 30.5 83
s29.5 71.5 49.5 115.5c-52.667 28 -121.667 71.333 -207 130l43 47c38.667 -20.667 71.334 -36 98.001 -46c26 -8 66 -17 120 -27c18 26 38.333 53 61 81l49 -38l-35 -54c44 -4 83 -6 117 -6c43.333 0 84.333 2.33301 123 7s74.334 12 107.001 22
c66 18.667 129.667 50 191 94l205 -225c-64 -38 -122 -64 -174 -78c-38 -10 -76 -17.667 -114 -23s-76.667 -8 -116 -8c-129.333 0 -263 30.333 -401 91z" />
    <glyph glyph-name="Aring" unicode="&#x415;" horiz-adv-x="1191" 
d="M354 1102c-15.333 -42 -27.168 -83.3301 -35.501 -123.997s-12.5 -82.334 -12.5 -125.001c66 14.667 124.667 22 176 22c73.333 0 135 -9.16699 185 -27.5s103.667 -51.833 161 -100.5l-211 -221c-97.333 95.333 -196.333 151.666 -297 168.999
c24 -96.667 62 -175.667 114 -237c39.333 -48.667 87 -88.334 143 -119.001c79.333 -42.667 164 -64 254 -64c89.333 0 207 26.333 353 79l-230 -338c-35.333 -6 -66.5 -10.667 -93.5 -14s-51.5 -5 -73.5 -5c-88.667 0 -176 14.333 -262 43
c-155.333 52 -261 158.667 -317 320c-14 42 -24.667 86 -32 132s-11 94 -11 144v40c-19.333 -14 -50.666 -47 -93.999 -99l-57 34c38 64.667 91.667 125.334 161 182.001c3.33301 24.667 7.66602 49.167 12.999 73.5s11.666 47.666 18.999 69.999s17.5 50 30.5 83
s29.5 71.5 49.5 115.5c-52.667 28 -121.667 71.333 -207 130l43 47c38.667 -20.667 71.334 -36 98.001 -46c26 -8 66 -17 120 -27c18 26 38.333 53 61 81l49 -38l-35 -54c44 -4 83 -6 117 -6c43.333 0 84.333 2.33301 123 7s74.334 12 107.001 22
c66 18.667 129.667 50 191 94l205 -225c-64 -38 -122 -64 -174 -78c-38 -10 -76 -17.667 -114 -23s-76.667 -8 -116 -8c-129.333 0 -263 30.333 -401 91z" />
    <glyph glyph-name="AE" unicode="&#xc6;" horiz-adv-x="1692" 
d="M690 719c6 32.667 10.666 64.832 13.999 96.499s5 62.5 5 92.5c0 79.333 -8.66699 149 -26 209s-50.666 131 -99.999 213l74 49c68 -100 118.5 -192.667 151.5 -278s59.833 -192.666 80.5 -321.999l51 31c-8 68 -12 132.667 -12 194c0 25.333 1 53.166 3 83.499
s5.33301 64.833 10 103.5l71 -16v-65c0 -82.667 8.33301 -157 25 -223c148.667 142 234 317.333 256 526l252 -226c-72 -182.667 -219.333 -339 -442 -469c55.333 -104.667 119 -188.5 191 -251.5s166.333 -116.167 283 -159.5l-228 -296
c-189.333 163.333 -316.333 378 -381 644l-63 -19l2 -36c0 -130.667 -24.667 -268.667 -74 -414c-8.66699 -25.333 -20.5 -52.666 -35.5 -81.999s-33.833 -62 -56.5 -98l-230 303c72 107.333 124 212.666 156 315.999l-63 19c-64.667 -266 -191.667 -480.667 -381 -644
l-228 296c116.667 43.333 211 96.5 283 159.5s135.667 146.833 191 251.5c-222.667 130 -370 286.333 -442 469l252 226c22 -208.667 107.333 -384 256 -526c16.667 66 25 140.333 25 223v65l71 16c4.66699 -38.667 8 -73.167 10 -103.5s3 -58.166 3 -83.499
c0 -61.333 -4 -126 -12 -194z" />
    <glyph glyph-name="AE" unicode="&#x416;" horiz-adv-x="1692" 
d="M690 719c6 32.667 10.666 64.832 13.999 96.499s5 62.5 5 92.5c0 79.333 -8.66699 149 -26 209s-50.666 131 -99.999 213l74 49c68 -100 118.5 -192.667 151.5 -278s59.833 -192.666 80.5 -321.999l51 31c-8 68 -12 132.667 -12 194c0 25.333 1 53.166 3 83.499
s5.33301 64.833 10 103.5l71 -16v-65c0 -82.667 8.33301 -157 25 -223c148.667 142 234 317.333 256 526l252 -226c-72 -182.667 -219.333 -339 -442 -469c55.333 -104.667 119 -188.5 191 -251.5s166.333 -116.167 283 -159.5l-228 -296
c-189.333 163.333 -316.333 378 -381 644l-63 -19l2 -36c0 -130.667 -24.667 -268.667 -74 -414c-8.66699 -25.333 -20.5 -52.666 -35.5 -81.999s-33.833 -62 -56.5 -98l-230 303c72 107.333 124 212.666 156 315.999l-63 19c-64.667 -266 -191.667 -480.667 -381 -644
l-228 296c116.667 43.333 211 96.5 283 159.5s135.667 146.833 191 251.5c-222.667 130 -370 286.333 -442 469l252 226c22 -208.667 107.333 -384 256 -526c16.667 66 25 140.333 25 223v65l71 16c4.66699 -38.667 8 -73.167 10 -103.5s3 -58.166 3 -83.499
c0 -61.333 -4 -126 -12 -194z" />
    <glyph glyph-name="Ccedilla" unicode="&#xc7;" horiz-adv-x="1170" 
d="M538 771l-69 60l18 -84zM397 891c56 -6 96 -9.00488 120 -9.00488c70 0 131.667 15 185 45c26.667 14.667 48.334 34.5 65.001 59.5s25 49.167 25 72.5c0 32.667 -13.5 64.667 -40.5 96s-63.833 56.166 -110.5 74.499s-102 27.5 -166 27.5
c-81.333 0 -155.333 -16.667 -222 -50c36.667 -55.333 67 -111 91 -167l-120 -49c-12 60.667 -30.333 116 -55 166c-26 -17.333 -59.667 -43.666 -101 -78.999l-48 42c44 54.667 78.667 93.334 104 116.001c-18 26.667 -41.667 56.334 -71 89.001l62 56
c33.333 -35.333 60.666 -66.666 81.999 -93.999c52.667 29.333 109.334 51.333 170.001 66s127.667 22 201 22c129.333 0 236 -26 320 -78c50 -31.333 90 -74 120 -128s45 -111.667 45 -173c0 -102 -40.667 -187.667 -122 -257c34 -22.667 57 -39.667 69 -51
c40.667 -34.667 73.334 -78.5 98.001 -131.5s37 -105.167 37 -156.5c0 -66 -18.167 -128.333 -54.5 -187s-87.5 -108 -153.5 -148c-42.667 -26.667 -102.334 -51.667 -179.001 -75l-324 298c-40 -109.333 -81.333 -207 -124 -293l-225 253c50.667 78 89.667 159.333 117 244
l252 -67v-43c-2 -10.667 -3.33301 -18 -4 -22l81 -37c21.333 -9.33301 40.333 -16.666 57 -21.999c32.667 -8.66699 66.667 -13 102 -13c61.333 0 115.666 15 162.999 45c62.667 40.667 94 97 94 169c0 60 -30.333 120 -91 180c-34.667 -17.333 -90 -36.666 -166 -57.999
l-117 102l-125 -53z" />
    <glyph glyph-name="Ccedilla" unicode="&#x417;" horiz-adv-x="1170" 
d="M538 771l-69 60l18 -84zM397 891c56 -6 96 -9.00488 120 -9.00488c70 0 131.667 15 185 45c26.667 14.667 48.334 34.5 65.001 59.5s25 49.167 25 72.5c0 32.667 -13.5 64.667 -40.5 96s-63.833 56.166 -110.5 74.499s-102 27.5 -166 27.5
c-81.333 0 -155.333 -16.667 -222 -50c36.667 -55.333 67 -111 91 -167l-120 -49c-12 60.667 -30.333 116 -55 166c-26 -17.333 -59.667 -43.666 -101 -78.999l-48 42c44 54.667 78.667 93.334 104 116.001c-18 26.667 -41.667 56.334 -71 89.001l62 56
c33.333 -35.333 60.666 -66.666 81.999 -93.999c52.667 29.333 109.334 51.333 170.001 66s127.667 22 201 22c129.333 0 236 -26 320 -78c50 -31.333 90 -74 120 -128s45 -111.667 45 -173c0 -102 -40.667 -187.667 -122 -257c34 -22.667 57 -39.667 69 -51
c40.667 -34.667 73.334 -78.5 98.001 -131.5s37 -105.167 37 -156.5c0 -66 -18.167 -128.333 -54.5 -187s-87.5 -108 -153.5 -148c-42.667 -26.667 -102.334 -51.667 -179.001 -75l-324 298c-40 -109.333 -81.333 -207 -124 -293l-225 253c50.667 78 89.667 159.333 117 244
l252 -67v-43c-2 -10.667 -3.33301 -18 -4 -22l81 -37c21.333 -9.33301 40.333 -16.666 57 -21.999c32.667 -8.66699 66.667 -13 102 -13c61.333 0 115.666 15 162.999 45c62.667 40.667 94 97 94 169c0 60 -30.333 120 -91 180c-34.667 -17.333 -90 -36.666 -166 -57.999
l-117 102l-125 -53z" />
    <glyph glyph-name="Egrave" unicode="&#xc8;" horiz-adv-x="1089" 
d="M995 522l-37 -522.001c-12 -6 -28 -9 -48 -9c-18 0 -46.667 4.16699 -86 12.5s-69.333 12.5 -90 12.5c-12 0 -20.667 -0.666992 -26 -2l-60 -46l-27 37c-55.333 0 -111.166 11.667 -167.499 35s-108.5 56 -156.5 98c-63.333 55.333 -105.333 115.666 -126 180.999
c-10.667 36 -19.5 81.833 -26.5 137.5s-10.5 121.167 -10.5 196.5c0 56.667 -2.16699 106.667 -6.5 150s-10.833 83.666 -19.5 120.999c-14 66.667 -38.667 132.334 -74 197.001l211 252c44 -60 74.333 -119.333 91 -178s25 -140 25 -244
c0 -70.667 -3.33301 -143.667 -10 -219c0 -32 -1.5 -64.5 -4.5 -97.5s-5.83301 -66.167 -8.5 -99.5c0 -28.667 1 -57.5 3 -86.5s5.66699 -61.833 11 -98.5c10 -69.333 30.833 -124.166 62.5 -164.499s81.167 -74.5 148.5 -102.5l-93 127c66 24.667 116.667 47.167 152 67.5
s68.666 47.833 99.999 82.5c37.333 42 64.5 84.167 81.5 126.5s25.5 90.5 25.5 144.5l-1 79l-2 79c0 106.667 15.667 210.334 47 311.001c19.333 62.667 39.333 110.5 60 143.5s52 66.833 94 101.5l28 -19c-14 -32 -26.167 -64.333 -36.5 -97s-18.833 -66.667 -25.5 -102
c-11.333 -68 -17 -152.667 -17 -254c0 -71.333 4.33301 -150.333 13 -237c4 -46 6 -84 6 -114z" />
    <glyph glyph-name="Egrave" unicode="&#x418;" horiz-adv-x="1089" 
d="M995 522l-37 -522.001c-12 -6 -28 -9 -48 -9c-18 0 -46.667 4.16699 -86 12.5s-69.333 12.5 -90 12.5c-12 0 -20.667 -0.666992 -26 -2l-60 -46l-27 37c-55.333 0 -111.166 11.667 -167.499 35s-108.5 56 -156.5 98c-63.333 55.333 -105.333 115.666 -126 180.999
c-10.667 36 -19.5 81.833 -26.5 137.5s-10.5 121.167 -10.5 196.5c0 56.667 -2.16699 106.667 -6.5 150s-10.833 83.666 -19.5 120.999c-14 66.667 -38.667 132.334 -74 197.001l211 252c44 -60 74.333 -119.333 91 -178s25 -140 25 -244
c0 -70.667 -3.33301 -143.667 -10 -219c0 -32 -1.5 -64.5 -4.5 -97.5s-5.83301 -66.167 -8.5 -99.5c0 -28.667 1 -57.5 3 -86.5s5.66699 -61.833 11 -98.5c10 -69.333 30.833 -124.166 62.5 -164.499s81.167 -74.5 148.5 -102.5l-93 127c66 24.667 116.667 47.167 152 67.5
s68.666 47.833 99.999 82.5c37.333 42 64.5 84.167 81.5 126.5s25.5 90.5 25.5 144.5l-1 79l-2 79c0 106.667 15.667 210.334 47 311.001c19.333 62.667 39.333 110.5 60 143.5s52 66.833 94 101.5l28 -19c-14 -32 -26.167 -64.333 -36.5 -97s-18.833 -66.667 -25.5 -102
c-11.333 -68 -17 -152.667 -17 -254c0 -71.333 4.33301 -150.333 13 -237c4 -46 6 -84 6 -114z" />
    <glyph glyph-name="Eacute" unicode="&#xc9;" horiz-adv-x="1089" 
d="M995 522l-37 -522.001c-12 -6 -28 -9 -48 -9c-18 0 -46.667 4.16699 -86 12.5s-69.333 12.5 -90 12.5c-12 0 -20.667 -0.666992 -26 -2l-60 -46l-27 37c-55.333 0 -111.166 11.667 -167.499 35s-108.5 56 -156.5 98c-63.333 55.333 -105.333 115.666 -126 180.999
c-10.667 36 -19.5 81.833 -26.5 137.5s-10.5 121.167 -10.5 196.5c0 56.667 -2.16699 106.667 -6.5 150s-10.833 83.666 -19.5 120.999c-14 66.667 -38.667 132.334 -74 197.001l211 252c44 -60 74.333 -119.333 91 -178s25 -140 25 -244
c0 -70.667 -3.33301 -143.667 -10 -219c0 -32 -1.5 -64.5 -4.5 -97.5s-5.83301 -66.167 -8.5 -99.5c0 -28.667 1 -57.5 3 -86.5s5.66699 -61.833 11 -98.5c10 -69.333 30.833 -124.166 62.5 -164.499s81.167 -74.5 148.5 -102.5l-93 127c66 24.667 116.667 47.167 152 67.5
s68.666 47.833 99.999 82.5c37.333 42 64.5 84.167 81.5 126.5s25.5 90.5 25.5 144.5l-1 79l-2 79c0 106.667 15.667 210.334 47 311.001c19.333 62.667 39.333 110.5 60 143.5s52 66.833 94 101.5l28 -19c-14 -32 -26.167 -64.333 -36.5 -97s-18.833 -66.667 -25.5 -102
c-11.333 -68 -17 -152.667 -17 -254c0 -71.333 4.33301 -150.333 13 -237c4 -46 6 -84 6 -114zM767 1817l100.999 -155.998c-123.333 -133.333 -271.666 -208.333 -444.999 -225l-10 43c91.333 49.333 165.5 101.166 222.5 155.499s100.833 115.166 131.5 182.499z" />
    <glyph glyph-name="Eacute" unicode="&#x419;" horiz-adv-x="1089" 
d="M995 522l-37 -522.001c-12 -6 -28 -9 -48 -9c-18 0 -46.667 4.16699 -86 12.5s-69.333 12.5 -90 12.5c-12 0 -20.667 -0.666992 -26 -2l-60 -46l-27 37c-55.333 0 -111.166 11.667 -167.499 35s-108.5 56 -156.5 98c-63.333 55.333 -105.333 115.666 -126 180.999
c-10.667 36 -19.5 81.833 -26.5 137.5s-10.5 121.167 -10.5 196.5c0 56.667 -2.16699 106.667 -6.5 150s-10.833 83.666 -19.5 120.999c-14 66.667 -38.667 132.334 -74 197.001l211 252c44 -60 74.333 -119.333 91 -178s25 -140 25 -244
c0 -70.667 -3.33301 -143.667 -10 -219c0 -32 -1.5 -64.5 -4.5 -97.5s-5.83301 -66.167 -8.5 -99.5c0 -28.667 1 -57.5 3 -86.5s5.66699 -61.833 11 -98.5c10 -69.333 30.833 -124.166 62.5 -164.499s81.167 -74.5 148.5 -102.5l-93 127c66 24.667 116.667 47.167 152 67.5
s68.666 47.833 99.999 82.5c37.333 42 64.5 84.167 81.5 126.5s25.5 90.5 25.5 144.5l-1 79l-2 79c0 106.667 15.667 210.334 47 311.001c19.333 62.667 39.333 110.5 60 143.5s52 66.833 94 101.5l28 -19c-14 -32 -26.167 -64.333 -36.5 -97s-18.833 -66.667 -25.5 -102
c-11.333 -68 -17 -152.667 -17 -254c0 -71.333 4.33301 -150.333 13 -237c4 -46 6 -84 6 -114zM767 1817l100.999 -155.998c-123.333 -133.333 -271.666 -208.333 -444.999 -225l-10 43c91.333 49.333 165.5 101.166 222.5 155.499s100.833 115.166 131.5 182.499z" />
    <glyph glyph-name="Ecircumflex" unicode="&#xca;" horiz-adv-x="1139" 
d="M221 605c-44.667 8 -107.001 29.332 -187.001 63.999l28 77c71.333 -31.333 132 -47 182 -47c6 32.667 10.667 64.834 14 96.501s5 62.5 5 92.5c0 79.333 -8.66699 149 -26 209s-50.666 131 -99.999 213l74 49c68 -100 118.5 -192.667 151.5 -278
s59.833 -192.666 80.5 -321.999l51 31c-8 68 -12 132.667 -12 194c0 25.333 1 53.166 3 83.499s5.33301 64.833 10 103.5l71 -16v-65c0 -82.667 8.33301 -157 25 -223c148.667 142 234 317.333 256 526l252 -226c-72 -182.667 -219.333 -339 -442 -469
c55.333 -104.667 119 -188.5 191 -251.5s166.333 -116.167 283 -159.5l-228 -296c-189.333 163.333 -316.333 378 -381 644l-63 -19l2 -36c0 -130.667 -24.667 -268.667 -74 -414c-8.66699 -25.333 -20.5 -52.666 -35.5 -81.999s-33.833 -62 -56.5 -98l-230 303
c72 107.333 124 212.666 156 315.999z" />
    <glyph glyph-name="Ecircumflex" unicode="&#x41a;" horiz-adv-x="1139" 
d="M221 605c-44.667 8 -107.001 29.332 -187.001 63.999l28 77c71.333 -31.333 132 -47 182 -47c6 32.667 10.667 64.834 14 96.501s5 62.5 5 92.5c0 79.333 -8.66699 149 -26 209s-50.666 131 -99.999 213l74 49c68 -100 118.5 -192.667 151.5 -278
s59.833 -192.666 80.5 -321.999l51 31c-8 68 -12 132.667 -12 194c0 25.333 1 53.166 3 83.499s5.33301 64.833 10 103.5l71 -16v-65c0 -82.667 8.33301 -157 25 -223c148.667 142 234 317.333 256 526l252 -226c-72 -182.667 -219.333 -339 -442 -469
c55.333 -104.667 119 -188.5 191 -251.5s166.333 -116.167 283 -159.5l-228 -296c-189.333 163.333 -316.333 378 -381 644l-63 -19l2 -36c0 -130.667 -24.667 -268.667 -74 -414c-8.66699 -25.333 -20.5 -52.666 -35.5 -81.999s-33.833 -62 -56.5 -98l-230 303
c72 107.333 124 212.666 156 315.999z" />
    <glyph glyph-name="Edieresis" unicode="&#xcb;" horiz-adv-x="1171" 
d="M674 340c-2.66699 8 -15.6699 68.668 -39.0029 182.001l-5 93c0 38.667 2 74.5 6 107.5s10.667 64.833 20 95.5c17.333 60.667 46 121.667 86 183c-54.667 -18.667 -110 -28 -166 -28c-26 0 -53.667 2 -83 6c17.333 -85.333 26 -171 26 -257
c0 -9.33301 -0.666992 -25 -2 -47c-1.33301 -29.333 -2 -46.666 -2 -51.999c0 -17.333 -1.33301 -41 -4 -71s-6.66699 -50.667 -12 -62c-14 -78.667 -35.333 -152.667 -64 -222c-37.333 -96.667 -78.833 -166.667 -124.5 -210s-101.167 -65 -166.5 -65
c-62.667 0 -112.5 18 -149.5 54s-55.5 80.667 -55.5 134c0 51.333 16.167 95.166 48.5 131.499s71.166 54.5 116.499 54.5c50.667 0 103.334 -25.333 158.001 -76c54.667 92 95.667 191 123 297c6 16.667 10.5 40.167 13.5 70.5s5.16699 49.166 6.5 56.499l3 93
c0 65.333 -6 131.666 -18 198.999c-33.333 14.667 -64.333 33.5 -93 56.5s-75.667 67.833 -141 134.5l33 27c24.667 -10 48 -18.333 70 -25s45.667 -13 71 -19c-4.66699 10 -11 22.833 -19 38.5s-17.333 31.834 -28 48.501l66 47c30 -40 57.333 -86.667 82 -140
c22 0 43.667 3.16699 65 9.5s42 14.833 62 25.5c36.667 19.333 81.667 54.666 135 105.999l190 -223c-31.333 -27.333 -59.666 -49 -84.999 -65l37 -15c-33.333 -94 -50 -172 -50 -234c0 -113.333 36 -227.666 108 -342.999c20 -32 44.5 -64.5 73.5 -97.5
s63.833 -67.5 104.5 -103.5l-204 -285c-26 34.667 -51.167 73.334 -75.5 116.001s-46.166 86.667 -65.499 132s-36.666 92.666 -51.999 141.999z" />
    <glyph glyph-name="Edieresis" unicode="&#x41b;" horiz-adv-x="1171" 
d="M674 340c-2.66699 8 -15.6699 68.668 -39.0029 182.001l-5 93c0 38.667 2 74.5 6 107.5s10.667 64.833 20 95.5c17.333 60.667 46 121.667 86 183c-54.667 -18.667 -110 -28 -166 -28c-26 0 -53.667 2 -83 6c17.333 -85.333 26 -171 26 -257
c0 -9.33301 -0.666992 -25 -2 -47c-1.33301 -29.333 -2 -46.666 -2 -51.999c0 -17.333 -1.33301 -41 -4 -71s-6.66699 -50.667 -12 -62c-14 -78.667 -35.333 -152.667 -64 -222c-37.333 -96.667 -78.833 -166.667 -124.5 -210s-101.167 -65 -166.5 -65
c-62.667 0 -112.5 18 -149.5 54s-55.5 80.667 -55.5 134c0 51.333 16.167 95.166 48.5 131.499s71.166 54.5 116.499 54.5c50.667 0 103.334 -25.333 158.001 -76c54.667 92 95.667 191 123 297c6 16.667 10.5 40.167 13.5 70.5s5.16699 49.166 6.5 56.499l3 93
c0 65.333 -6 131.666 -18 198.999c-33.333 14.667 -64.333 33.5 -93 56.5s-75.667 67.833 -141 134.5l33 27c24.667 -10 48 -18.333 70 -25s45.667 -13 71 -19c-4.66699 10 -11 22.833 -19 38.5s-17.333 31.834 -28 48.501l66 47c30 -40 57.333 -86.667 82 -140
c22 0 43.667 3.16699 65 9.5s42 14.833 62 25.5c36.667 19.333 81.667 54.666 135 105.999l190 -223c-31.333 -27.333 -59.666 -49 -84.999 -65l37 -15c-33.333 -94 -50 -172 -50 -234c0 -113.333 36 -227.666 108 -342.999c20 -32 44.5 -64.5 73.5 -97.5
s63.833 -67.5 104.5 -103.5l-204 -285c-26 34.667 -51.167 73.334 -75.5 116.001s-46.166 86.667 -65.499 132s-36.666 92.666 -51.999 141.999z" />
    <glyph glyph-name="Igrave" unicode="&#xcc;" horiz-adv-x="1398" 
d="M210 0l-203.002 250.995c72 70 126 145.333 162 226c52 116 78 241 78 375c0 39.333 -3 82 -9 128c-13.333 8.66699 -35 21 -65 37l-52 28l82 107c-34.667 54 -70 105.667 -106 155l50 45c18 -20.667 34.833 -41.667 50.5 -63l53.5 -76l91 117
c88.667 -76.667 155.334 -147.667 200.001 -213c42 -61.333 91.667 -162 149 -302c70.667 126.667 129.5 219.834 176.5 279.501s118.833 133.834 215.5 222.501l70 -93c38 49.333 73.333 90.666 106 123.999l49 -51c-29.333 -37.333 -61.666 -83.666 -96.999 -138.999
l74 -91l-89 -43l-5 -88c0 -120.667 16 -235.667 48 -345c16.667 -55.333 37.167 -109.5 61.5 -162.5s54.5 -107.833 90.5 -164.5l-212 -257c-34.667 58 -61 107.667 -79 149c-14.667 38 -29.334 87.667 -44.001 149c-19.333 90.667 -29 187.334 -29 290.001
c0 113.333 13.667 230.666 41 351.999c-157.333 -139.333 -255 -255 -293 -347c30 -131.333 45 -239.666 45 -324.999c0 -48 -6.66699 -139.667 -20 -275h-66l5 129c0 75.333 -2.5 130.5 -7.5 165.5s-16.167 75.833 -33.5 122.5
c-17.333 -49.333 -28.166 -94.833 -32.499 -136.5s-6.5 -119.834 -6.5 -234.501v-46h-71c-10 90 -15 158.667 -15 206c0 126.667 17 248.667 51 366c-28 48 -65 101 -111 159c-43.333 54.667 -87.333 102.334 -132 143.001c9.33301 -48 16.333 -93.833 21 -137.5
s7 -88.5 7 -134.5c0 -127.333 -15.167 -236.166 -45.5 -326.499s-81.5 -182.166 -153.5 -275.499z" />
    <glyph glyph-name="Igrave" unicode="&#x41c;" horiz-adv-x="1398" 
d="M210 0l-203.002 250.995c72 70 126 145.333 162 226c52 116 78 241 78 375c0 39.333 -3 82 -9 128c-13.333 8.66699 -35 21 -65 37l-52 28l82 107c-34.667 54 -70 105.667 -106 155l50 45c18 -20.667 34.833 -41.667 50.5 -63l53.5 -76l91 117
c88.667 -76.667 155.334 -147.667 200.001 -213c42 -61.333 91.667 -162 149 -302c70.667 126.667 129.5 219.834 176.5 279.501s118.833 133.834 215.5 222.501l70 -93c38 49.333 73.333 90.666 106 123.999l49 -51c-29.333 -37.333 -61.666 -83.666 -96.999 -138.999
l74 -91l-89 -43l-5 -88c0 -120.667 16 -235.667 48 -345c16.667 -55.333 37.167 -109.5 61.5 -162.5s54.5 -107.833 90.5 -164.5l-212 -257c-34.667 58 -61 107.667 -79 149c-14.667 38 -29.334 87.667 -44.001 149c-19.333 90.667 -29 187.334 -29 290.001
c0 113.333 13.667 230.666 41 351.999c-157.333 -139.333 -255 -255 -293 -347c30 -131.333 45 -239.666 45 -324.999c0 -48 -6.66699 -139.667 -20 -275h-66l5 129c0 75.333 -2.5 130.5 -7.5 165.5s-16.167 75.833 -33.5 122.5
c-17.333 -49.333 -28.166 -94.833 -32.499 -136.5s-6.5 -119.834 -6.5 -234.501v-46h-71c-10 90 -15 158.667 -15 206c0 126.667 17 248.667 51 366c-28 48 -65 101 -111 159c-43.333 54.667 -87.333 102.334 -132 143.001c9.33301 -48 16.333 -93.833 21 -137.5
s7 -88.5 7 -134.5c0 -127.333 -15.167 -236.166 -45.5 -326.499s-81.5 -182.166 -153.5 -275.499z" />
    <glyph glyph-name="Iacute" unicode="&#xcd;" horiz-adv-x="1102" 
d="M363 732l90.999 130.996l121 -123c16 -17.333 35 -32.666 57 -45.999l-1 42c0 204 38.667 406.667 116 608l260 -270c-81.333 -141.333 -137.666 -280.666 -168.999 -417.999c80 17.333 157.333 42.666 232 75.999l38 -54c-38 -38 -81.667 -72.667 -131 -104
s-100.666 -56.666 -153.999 -75.999c11.333 -119.333 24.5 -204.333 39.5 -255s46.167 -113.667 93.5 -189l-41 -54c-78 83.333 -135.167 157 -171.5 221s-64.5 142 -84.5 234l-30 -1c-68 0 -150 26 -246 78l1 -58c0 -79.333 -6.66699 -149 -20 -209
c-6 -28.667 -16 -65.667 -30 -111s-31.333 -96.666 -52 -153.999l-262 246c55.333 112 93.666 222.333 114.999 331c14 74 24.667 148.167 32 222.5s11 148.166 11 221.499c0 68.667 -16.333 161.334 -49 278.001l37 24c52.667 -84 94 -170.167 124 -258.5
s54.333 -199.166 73 -332.499z" />
    <glyph glyph-name="Iacute" unicode="&#x41d;" horiz-adv-x="1102" 
d="M363 732l90.999 130.996l121 -123c16 -17.333 35 -32.666 57 -45.999l-1 42c0 204 38.667 406.667 116 608l260 -270c-81.333 -141.333 -137.666 -280.666 -168.999 -417.999c80 17.333 157.333 42.666 232 75.999l38 -54c-38 -38 -81.667 -72.667 -131 -104
s-100.666 -56.666 -153.999 -75.999c11.333 -119.333 24.5 -204.333 39.5 -255s46.167 -113.667 93.5 -189l-41 -54c-78 83.333 -135.167 157 -171.5 221s-64.5 142 -84.5 234l-30 -1c-68 0 -150 26 -246 78l1 -58c0 -79.333 -6.66699 -149 -20 -209
c-6 -28.667 -16 -65.667 -30 -111s-31.333 -96.666 -52 -153.999l-262 246c55.333 112 93.666 222.333 114.999 331c14 74 24.667 148.167 32 222.5s11 148.166 11 221.499c0 68.667 -16.333 161.334 -49 278.001l37 24c52.667 -84 94 -170.167 124 -258.5
s54.333 -199.166 73 -332.499z" />
    <glyph glyph-name="Icircumflex" unicode="&#xce;" horiz-adv-x="1233" 
d="M755 67l35.9971 -66.0039c-59.333 -10 -99 -15 -119 -15c-23.333 0 -54 4 -92 12l-126 -34l-24 45l54 23c-101.333 46 -184.666 105 -249.999 177c-59.333 66.667 -106.333 141.834 -141 225.501s-52 165.167 -52 244.5c0 127.333 40 243 120 347
c50.667 66.667 133.667 139.334 249 218.001l-78 113c20.667 0 45.334 1 74.001 3s47.334 3 56.001 3c73.333 0 151 -11 233 -33l157 31l11 -48l-66 -22c122 -69.333 214.667 -147.666 278 -234.999c78 -108 117 -229.667 117 -365c0 -134 -36.167 -253.167 -108.5 -357.5
s-181.833 -193.166 -328.5 -266.499zM725.997 120.996c47.333 40 83.334 72.998 108.001 98.998c108 110 162 235.667 162 377c0 115.333 -37.333 210 -112 284c-42.667 42 -88.334 73 -137.001 93s-107.667 33 -177 39l-125 180c-69.333 -71.333 -119 -133 -149 -185
c-22 -39.333 -38.667 -78.5 -50 -117.5s-17 -79.167 -17 -120.5c0 -111.333 37 -210.666 111 -297.999c32.667 -38 69.667 -67.667 111 -89c38.667 -19.333 93.667 -35.666 165 -48.999z" />
    <glyph glyph-name="Icircumflex" unicode="&#x41e;" horiz-adv-x="1233" 
d="M755 67l35.9971 -66.0039c-59.333 -10 -99 -15 -119 -15c-23.333 0 -54 4 -92 12l-126 -34l-24 45l54 23c-101.333 46 -184.666 105 -249.999 177c-59.333 66.667 -106.333 141.834 -141 225.501s-52 165.167 -52 244.5c0 127.333 40 243 120 347
c50.667 66.667 133.667 139.334 249 218.001l-78 113c20.667 0 45.334 1 74.001 3s47.334 3 56.001 3c73.333 0 151 -11 233 -33l157 31l11 -48l-66 -22c122 -69.333 214.667 -147.666 278 -234.999c78 -108 117 -229.667 117 -365c0 -134 -36.167 -253.167 -108.5 -357.5
s-181.833 -193.166 -328.5 -266.499zM725.997 120.996c47.333 40 83.334 72.998 108.001 98.998c108 110 162 235.667 162 377c0 115.333 -37.333 210 -112 284c-42.667 42 -88.334 73 -137.001 93s-107.667 33 -177 39l-125 180c-69.333 -71.333 -119 -133 -149 -185
c-22 -39.333 -38.667 -78.5 -50 -117.5s-17 -79.167 -17 -120.5c0 -111.333 37 -210.666 111 -297.999c32.667 -38 69.667 -67.667 111 -89c38.667 -19.333 93.667 -35.666 165 -48.999z" />
    <glyph glyph-name="Idieresis" unicode="&#xcf;" horiz-adv-x="1102" 
d="M838 1132c76.667 16 153.998 41.3359 231.998 76.0029l38 -54c-38 -38 -81.667 -72.667 -131 -104s-100.666 -56.666 -153.999 -75.999c2.66699 -24.667 5.33398 -66.334 8.00098 -125.001c2 -59.333 5 -132 9 -218c3.33301 -86.667 7.33301 -169.834 12 -249.501
s8.33398 -125.834 11.001 -138.501c14.667 -50.667 45.667 -113.667 93 -189l-41 -54c-78 83.333 -135 157 -171 221c-8.66699 15.333 -17.167 55.166 -25.5 119.499s-15.833 136.166 -22.5 215.499l-20 230.5c-6.66699 74.333 -12.334 122.5 -17.001 144.5l-30 -1
c-68 0 -150 26 -246 78l1 -58c0 -6.66699 -0.666992 -69 -2 -187c-2 -118 -4.33301 -225.333 -7 -322c-3.33301 -97.333 -7 -156 -11 -176c-6 -28.667 -16 -65.667 -30 -111s-31.333 -96.666 -52 -153.999l-262 246c55.333 112 93.666 222.333 114.999 331
c14 74 24.667 148.167 32 222.5s11 148.166 11 221.499c0 68.667 -16.333 161.334 -49 278.001l37 24l197 -115l91 131l121 -123c17.333 -18.667 36.333 -34 57 -46c44.667 -31.333 91.334 -47 140.001 -47c23.333 0 45.333 3 66 9z" />
    <glyph glyph-name="Idieresis" unicode="&#x41f;" horiz-adv-x="1102" 
d="M838 1132c76.667 16 153.998 41.3359 231.998 76.0029l38 -54c-38 -38 -81.667 -72.667 -131 -104s-100.666 -56.666 -153.999 -75.999c2.66699 -24.667 5.33398 -66.334 8.00098 -125.001c2 -59.333 5 -132 9 -218c3.33301 -86.667 7.33301 -169.834 12 -249.501
s8.33398 -125.834 11.001 -138.501c14.667 -50.667 45.667 -113.667 93 -189l-41 -54c-78 83.333 -135 157 -171 221c-8.66699 15.333 -17.167 55.166 -25.5 119.499s-15.833 136.166 -22.5 215.499l-20 230.5c-6.66699 74.333 -12.334 122.5 -17.001 144.5l-30 -1
c-68 0 -150 26 -246 78l1 -58c0 -6.66699 -0.666992 -69 -2 -187c-2 -118 -4.33301 -225.333 -7 -322c-3.33301 -97.333 -7 -156 -11 -176c-6 -28.667 -16 -65.667 -30 -111s-31.333 -96.666 -52 -153.999l-262 246c55.333 112 93.666 222.333 114.999 331
c14 74 24.667 148.167 32 222.5s11 148.166 11 221.499c0 68.667 -16.333 161.334 -49 278.001l37 24l197 -115l91 131l121 -123c17.333 -18.667 36.333 -34 57 -46c44.667 -31.333 91.334 -47 140.001 -47c23.333 0 45.333 3 66 9z" />
    <glyph glyph-name="Eth" unicode="&#xd0;" horiz-adv-x="1173" 
d="M96 950l-62.002 32.999c52 88 102.333 158.333 151 211l-88 105l46 54c32 -36 63 -73 93 -111c110.667 86.667 241 130 391 130c154.667 0 280 -43.667 376 -131c42 -38 75.167 -82.333 99.5 -133s36.5 -101.667 36.5 -153c0 -106.667 -53 -201.667 -159 -285
c-32 -26.667 -93.333 -65.334 -184 -116.001l-304 157c13.333 -61.333 20 -123 20 -185c0 -117.333 -12.667 -215 -38 -293s-70.666 -156.333 -135.999 -235l-206 234c38 58.667 65.333 103.667 82 135c63.333 120.667 95 258.334 95 413.001c0 34 -1.33301 66 -4 96
s-7 57.667 -13 83c-11.333 50.667 -31.666 107 -60.999 169c-38.667 -37.333 -83.667 -96.666 -135 -177.999zM284.998 1174c85.333 -123.333 148.668 -256.666 190.001 -399.999c106 19.333 182 41.666 228 66.999c86.667 46.667 130 114 130 202
c0 75.333 -28.333 131.5 -85 168.5s-122.334 55.5 -197.001 55.5c-87.333 0 -176 -31 -266 -93z" />
    <glyph glyph-name="Eth" unicode="&#x420;" horiz-adv-x="1173" 
d="M96 950l-62.002 32.999c52 88 102.333 158.333 151 211l-88 105l46 54c32 -36 63 -73 93 -111c110.667 86.667 241 130 391 130c154.667 0 280 -43.667 376 -131c42 -38 75.167 -82.333 99.5 -133s36.5 -101.667 36.5 -153c0 -106.667 -53 -201.667 -159 -285
c-32 -26.667 -93.333 -65.334 -184 -116.001l-304 157c13.333 -61.333 20 -123 20 -185c0 -117.333 -12.667 -215 -38 -293s-70.666 -156.333 -135.999 -235l-206 234c38 58.667 65.333 103.667 82 135c63.333 120.667 95 258.334 95 413.001c0 34 -1.33301 66 -4 96
s-7 57.667 -13 83c-11.333 50.667 -31.666 107 -60.999 169c-38.667 -37.333 -83.667 -96.666 -135 -177.999zM284.998 1174c85.333 -123.333 148.668 -256.666 190.001 -399.999c106 19.333 182 41.666 228 66.999c86.667 46.667 130 114 130 202
c0 75.333 -28.333 131.5 -85 168.5s-122.334 55.5 -197.001 55.5c-87.333 0 -176 -31 -266 -93z" />
    <glyph glyph-name="Ntilde" unicode="&#xd1;" horiz-adv-x="1144" 
d="M970 1376l167.002 -228.003c-32.667 -18.667 -64.667 -39.667 -96 -63c20 -26 39 -53 57 -81l-67 -49l-67 85c-36 -36.667 -61 -68.667 -75 -96c-11.333 -22.667 -29 -72.667 -53 -150c-30.667 42.667 -51.667 78.334 -63 107.001c-10.667 32 -16 68 -16 108
c0 64 17.333 130.333 52 199c-81.333 40 -150 60 -206 60c-50.667 0 -99.5 -11.5 -146.5 -34.5s-87.833 -54.167 -122.5 -93.5c-38 -45.333 -68.333 -100.666 -91 -165.999s-34 -132.333 -34 -201c0 -156 51 -280 153 -372c41.333 -37.333 93 -68 155 -92
c60 -22 121 -33 183 -33c76.667 0 143 14.833 199 44.5s118 82.5 186 158.5l40 -33l-355 -450c-20.667 -2.66699 -43 -5 -67 -7s-42 -3 -54 -3c-67.333 0 -134.5 12.167 -201.5 36.5s-127.167 58.5 -180.5 102.5c-70 58.667 -124.333 130.334 -163 215.001
c-44 98 -66 203.333 -66 316c0 140.667 31.667 270.334 95 389.001c58 107.333 133 187.666 225 240.999c75.333 43.333 154.666 65 237.999 65c22 0 42 -1 60 -3s36.333 -5.66699 55 -11c37.333 -9.33301 85.666 -28 144.999 -56c28.667 30 66.667 61.667 114 95z" />
    <glyph glyph-name="Ntilde" unicode="&#x421;" horiz-adv-x="1144" 
d="M970 1376l167.002 -228.003c-32.667 -18.667 -64.667 -39.667 -96 -63c20 -26 39 -53 57 -81l-67 -49l-67 85c-36 -36.667 -61 -68.667 -75 -96c-11.333 -22.667 -29 -72.667 -53 -150c-30.667 42.667 -51.667 78.334 -63 107.001c-10.667 32 -16 68 -16 108
c0 64 17.333 130.333 52 199c-81.333 40 -150 60 -206 60c-50.667 0 -99.5 -11.5 -146.5 -34.5s-87.833 -54.167 -122.5 -93.5c-38 -45.333 -68.333 -100.666 -91 -165.999s-34 -132.333 -34 -201c0 -156 51 -280 153 -372c41.333 -37.333 93 -68 155 -92
c60 -22 121 -33 183 -33c76.667 0 143 14.833 199 44.5s118 82.5 186 158.5l40 -33l-355 -450c-20.667 -2.66699 -43 -5 -67 -7s-42 -3 -54 -3c-67.333 0 -134.5 12.167 -201.5 36.5s-127.167 58.5 -180.5 102.5c-70 58.667 -124.333 130.334 -163 215.001
c-44 98 -66 203.333 -66 316c0 140.667 31.667 270.334 95 389.001c58 107.333 133 187.666 225 240.999c75.333 43.333 154.666 65 237.999 65c22 0 42 -1 60 -3s36.333 -5.66699 55 -11c37.333 -9.33301 85.666 -28 144.999 -56c28.667 30 66.667 61.667 114 95z" />
    <glyph glyph-name="Ograve" unicode="&#xd2;" horiz-adv-x="1077" 
d="M433 1309l67.999 36l89 -146c94 0 181 13.167 261 39.5s150.667 64.833 212 115.5l48 -35c-53.333 -70.667 -106.333 -124.5 -159 -161.5s-143.667 -85.5 -273 -145.5c22.667 -61.333 39.667 -121.333 51 -180s17 -117 17 -175c0 -122.667 -18.5 -238.5 -55.5 -347.5
s-94.167 -218.833 -171.5 -329.5l-232 242c76 94 135.667 191.667 179 293c54 131.333 81 248 81 350c0 26 -3 61 -9 105c-109.333 0 -211 11.5 -305 34.5s-183.333 56.5 -268 100.5l179 222c65.333 -35.333 121 -62 167 -80c19.333 -6.66699 43.333 -13.5 72 -20.5
s61.334 -13.833 98.001 -20.5z" />
    <glyph glyph-name="Ograve" unicode="&#x422;" horiz-adv-x="1077" 
d="M433 1309l67.999 36l89 -146c94 0 181 13.167 261 39.5s150.667 64.833 212 115.5l48 -35c-53.333 -70.667 -106.333 -124.5 -159 -161.5s-143.667 -85.5 -273 -145.5c22.667 -61.333 39.667 -121.333 51 -180s17 -117 17 -175c0 -122.667 -18.5 -238.5 -55.5 -347.5
s-94.167 -218.833 -171.5 -329.5l-232 242c76 94 135.667 191.667 179 293c54 131.333 81 248 81 350c0 26 -3 61 -9 105c-109.333 0 -211 11.5 -305 34.5s-183.333 56.5 -268 100.5l179 222c65.333 -35.333 121 -62 167 -80c19.333 -6.66699 43.333 -13.5 72 -20.5
s61.334 -13.833 98.001 -20.5z" />
    <glyph glyph-name="Oacute" unicode="&#xd3;" horiz-adv-x="999" 
d="M404 553c0 28 -15.668 55.6699 -47.001 83.0029s-68.833 50.333 -112.5 69s-80.5 28 -110.5 28l-127 -25l-12 50c48.667 31.333 94 62.666 136 93.999c-71.333 199.333 -173.666 366.666 -306.999 501.999l24 57c164 -104.667 304.667 -253 422 -445
c4.66699 -10 17.167 -32.833 37.5 -68.5s33.166 -59.5 38.499 -71.5l22 -61c0 113.333 13.333 227.666 40 342.999s63.667 219.333 111 312l260 -238c-24 -48 -45 -92.333 -63 -133s-33 -78 -45 -112c-44 -126 -66 -247 -66 -363c0 -129.333 25.667 -245.333 77 -348
c40.667 35.333 76.334 72.333 107.001 111l45 -29c-36.667 -69.333 -71 -123 -103 -161c12 -16 35 -42.667 69 -80l-39 -51c-42 29.333 -76 55.666 -102 78.999c-100.667 -68.667 -205 -103 -313 -103c-75.333 0 -146.5 18.333 -213.5 55s-127.167 90.334 -180.5 161.001
l259 361c20.667 -68 42 -129.833 64 -185.5s44.333 -105.167 67 -148.5c36.667 -68.667 82.667 -103 138 -103c36 0 73.333 10.333 112 31c-31.333 38.667 -60 79.667 -86 123c-46.667 82.667 -80.667 171.667 -102 267z" />
    <glyph glyph-name="Oacute" unicode="&#x423;" horiz-adv-x="999" 
d="M404 553c0 28 -15.668 55.6699 -47.001 83.0029s-68.833 50.333 -112.5 69s-80.5 28 -110.5 28l-127 -25l-12 50c48.667 31.333 94 62.666 136 93.999c-71.333 199.333 -173.666 366.666 -306.999 501.999l24 57c164 -104.667 304.667 -253 422 -445
c4.66699 -10 17.167 -32.833 37.5 -68.5s33.166 -59.5 38.499 -71.5l22 -61c0 113.333 13.333 227.666 40 342.999s63.667 219.333 111 312l260 -238c-24 -48 -45 -92.333 -63 -133s-33 -78 -45 -112c-44 -126 -66 -247 -66 -363c0 -129.333 25.667 -245.333 77 -348
c40.667 35.333 76.334 72.333 107.001 111l45 -29c-36.667 -69.333 -71 -123 -103 -161c12 -16 35 -42.667 69 -80l-39 -51c-42 29.333 -76 55.666 -102 78.999c-100.667 -68.667 -205 -103 -313 -103c-75.333 0 -146.5 18.333 -213.5 55s-127.167 90.334 -180.5 161.001
l259 361c20.667 -68 42 -129.833 64 -185.5s44.333 -105.167 67 -148.5c36.667 -68.667 82.667 -103 138 -103c36 0 73.333 10.333 112 31c-31.333 38.667 -60 79.667 -86 123c-46.667 82.667 -80.667 171.667 -102 267z" />
    <glyph glyph-name="Ocircumflex" unicode="&#xd4;" horiz-adv-x="1511" 
d="M625 1166c85.333 -123.333 148.668 -256.666 190.001 -399.999c106 19.333 182 41.666 228 66.999c86.667 46.667 130 114 130 202c0 75.333 -28.333 131.5 -85 168.5s-122.334 55.5 -197.001 55.5c-87.333 0 -176 -31 -266 -93zM571.002 1120
c-9.33301 0.666992 -22.334 1 -39.001 1c-76 0 -133 -9.33301 -171 -28s-57 -45.667 -57 -81c0 -88 43.333 -155.333 130 -202c47.333 -26 107 -39 179 -39c15.333 0 27.333 0.333008 36 1c0 34 -1.33301 66 -4 96s-7 57.667 -13 83c-11.333 50.667 -31.666 107 -60.999 169
zM525.001 1186l-88 105l46 54c32 -36 63 -73 93 -111c110.667 86.667 241 130 391 130c154.667 0 280 -43.667 376 -131c42 -38 75.167 -82.333 99.5 -133s36.5 -101.667 36.5 -153c0 -106.667 -53 -201.667 -159 -285c-32 -26.667 -93.333 -65.334 -184 -116.001l-304 157
c13.333 -61.333 20 -123 20 -185c0 -70.667 -1.83301 -124.834 -5.5 -162.501s-14.5 -81.167 -32.5 -130.5c-30 -83.333 -75.333 -161.666 -136 -234.999l-206 234c38 58.667 65.333 103.667 82 135c50.667 96 81 203 91 321l-304 -157
c-90.667 50.667 -152 89.334 -184 116.001c-106 83.333 -159 178.333 -159 285c0 51.333 12 102.333 36 153c24.667 50.667 58 95 100 133c38 34 80.333 51 127 51c32.667 0 69.5 -6.5 110.5 -19.5s92.167 -31.5 153.5 -55.5z" />
    <glyph glyph-name="Ocircumflex" unicode="&#x424;" horiz-adv-x="1511" 
d="M625 1166c85.333 -123.333 148.668 -256.666 190.001 -399.999c106 19.333 182 41.666 228 66.999c86.667 46.667 130 114 130 202c0 75.333 -28.333 131.5 -85 168.5s-122.334 55.5 -197.001 55.5c-87.333 0 -176 -31 -266 -93zM571.002 1120
c-9.33301 0.666992 -22.334 1 -39.001 1c-76 0 -133 -9.33301 -171 -28s-57 -45.667 -57 -81c0 -88 43.333 -155.333 130 -202c47.333 -26 107 -39 179 -39c15.333 0 27.333 0.333008 36 1c0 34 -1.33301 66 -4 96s-7 57.667 -13 83c-11.333 50.667 -31.666 107 -60.999 169
zM525.001 1186l-88 105l46 54c32 -36 63 -73 93 -111c110.667 86.667 241 130 391 130c154.667 0 280 -43.667 376 -131c42 -38 75.167 -82.333 99.5 -133s36.5 -101.667 36.5 -153c0 -106.667 -53 -201.667 -159 -285c-32 -26.667 -93.333 -65.334 -184 -116.001l-304 157
c13.333 -61.333 20 -123 20 -185c0 -70.667 -1.83301 -124.834 -5.5 -162.501s-14.5 -81.167 -32.5 -130.5c-30 -83.333 -75.333 -161.666 -136 -234.999l-206 234c38 58.667 65.333 103.667 82 135c50.667 96 81 203 91 321l-304 -157
c-90.667 50.667 -152 89.334 -184 116.001c-106 83.333 -159 178.333 -159 285c0 51.333 12 102.333 36 153c24.667 50.667 58 95 100 133c38 34 80.333 51 127 51c32.667 0 69.5 -6.5 110.5 -19.5s92.167 -31.5 153.5 -55.5z" />
    <glyph glyph-name="Otilde" unicode="&#xd5;" horiz-adv-x="963" 
d="M955 242l-181.998 -242.997c-159.333 100 -265.333 241.667 -318 425c-45.333 -112 -113 -205.333 -203 -280c-40.667 -32.667 -77.834 -55.667 -111.501 -69s-78.167 -22.666 -133.5 -27.999c97.333 79.333 168.333 147 213 203c89.333 110.667 134 222 134 334
c0 144 -57.667 272.333 -173 385c-37.333 37.333 -95.333 78.666 -174 123.999l199 244c149.333 -114.667 243.666 -251.667 282.999 -411c44.667 97.333 94.167 174.166 148.5 230.499s136.833 117.166 247.5 182.499l32 -44c-74 -54.667 -130 -100.834 -168 -138.501
s-73 -82.167 -105 -133.5c-53.333 -87.333 -80 -176 -80 -266c0 -116 41.667 -223.667 125 -323c31.333 -37.333 66 -70 104 -98c35.333 -24.667 89.333 -56 162 -94z" />
    <glyph glyph-name="Otilde" unicode="&#x425;" horiz-adv-x="963" 
d="M955 242l-181.998 -242.997c-159.333 100 -265.333 241.667 -318 425c-45.333 -112 -113 -205.333 -203 -280c-40.667 -32.667 -77.834 -55.667 -111.501 -69s-78.167 -22.666 -133.5 -27.999c97.333 79.333 168.333 147 213 203c89.333 110.667 134 222 134 334
c0 144 -57.667 272.333 -173 385c-37.333 37.333 -95.333 78.666 -174 123.999l199 244c149.333 -114.667 243.666 -251.667 282.999 -411c44.667 97.333 94.167 174.166 148.5 230.499s136.833 117.166 247.5 182.499l32 -44c-74 -54.667 -130 -100.834 -168 -138.501
s-73 -82.167 -105 -133.5c-53.333 -87.333 -80 -176 -80 -266c0 -116 41.667 -223.667 125 -323c31.333 -37.333 66 -70 104 -98c35.333 -24.667 89.333 -56 162 -94z" />
    <glyph glyph-name="Odieresis" unicode="&#xd6;" horiz-adv-x="1274" 
d="M770 14c-12 2 -23.333 2.99902 -34 2.99902c-9.33301 0 -18.666 -1 -27.999 -3l-60 -46l-27 37c-55.333 0 -111.166 11.667 -167.499 35s-108.5 56 -156.5 98c-63.333 55.333 -105.333 115.666 -126 180.999c-10.667 36 -19.5 81.833 -26.5 137.5
s-10.5 121.167 -10.5 196.5c0 56.667 -2.16699 106.667 -6.5 150s-10.833 83.666 -19.5 120.999c-14 66.667 -38.667 132.334 -74 197.001l211 252c44 -60 74.333 -119.333 91 -178s25 -140 25 -244c0 -70.667 -3.33301 -143.667 -10 -219c0 -32 -1.5 -64.5 -4.5 -97.5
s-5.83301 -66.167 -8.5 -99.5c0 -28.667 1 -57.5 3 -86.5s5.66699 -61.833 11 -98.5c10 -69.333 30.833 -124.166 62.5 -164.499s81.167 -74.5 148.5 -102.5l-93 127c66 24.667 116.667 47.167 152 67.5s68.666 47.833 99.999 82.5c37.333 42 64.5 84.167 81.5 126.5
s25.5 90.5 25.5 144.5l-1 79l-2 79c0 106.667 15.667 210.334 47 311.001c19.333 62.667 39.333 110.5 60 143.5s52 66.833 94 101.5l28 -19c-14 -32 -26.167 -64.333 -36.5 -97s-18.833 -66.667 -25.5 -102c-11.333 -68 -17 -152.667 -17 -254
c0 -71.333 4.33301 -150.333 13 -237c4 -46 6 -84 6 -114l-19 -281c28.667 -30.667 56.167 -54.167 82.5 -70.5s72.166 -38.833 137.499 -67.5l-210 -290c-106 89.333 -178 156.333 -216 201z" />
    <glyph glyph-name="Odieresis" unicode="&#x426;" horiz-adv-x="1274" 
d="M770 14c-12 2 -23.333 2.99902 -34 2.99902c-9.33301 0 -18.666 -1 -27.999 -3l-60 -46l-27 37c-55.333 0 -111.166 11.667 -167.499 35s-108.5 56 -156.5 98c-63.333 55.333 -105.333 115.666 -126 180.999c-10.667 36 -19.5 81.833 -26.5 137.5
s-10.5 121.167 -10.5 196.5c0 56.667 -2.16699 106.667 -6.5 150s-10.833 83.666 -19.5 120.999c-14 66.667 -38.667 132.334 -74 197.001l211 252c44 -60 74.333 -119.333 91 -178s25 -140 25 -244c0 -70.667 -3.33301 -143.667 -10 -219c0 -32 -1.5 -64.5 -4.5 -97.5
s-5.83301 -66.167 -8.5 -99.5c0 -28.667 1 -57.5 3 -86.5s5.66699 -61.833 11 -98.5c10 -69.333 30.833 -124.166 62.5 -164.499s81.167 -74.5 148.5 -102.5l-93 127c66 24.667 116.667 47.167 152 67.5s68.666 47.833 99.999 82.5c37.333 42 64.5 84.167 81.5 126.5
s25.5 90.5 25.5 144.5l-1 79l-2 79c0 106.667 15.667 210.334 47 311.001c19.333 62.667 39.333 110.5 60 143.5s52 66.833 94 101.5l28 -19c-14 -32 -26.167 -64.333 -36.5 -97s-18.833 -66.667 -25.5 -102c-11.333 -68 -17 -152.667 -17 -254
c0 -71.333 4.33301 -150.333 13 -237c4 -46 6 -84 6 -114l-19 -281c28.667 -30.667 56.167 -54.167 82.5 -70.5s72.166 -38.833 137.499 -67.5l-210 -290c-106 89.333 -178 156.333 -216 201z" />
    <glyph glyph-name="multiply" unicode="&#xd7;" horiz-adv-x="1102" 
d="M135 577c14 74 24.665 148.164 31.998 222.497s11 148.166 11 221.499c0 68.667 -16.333 161.334 -49 278.001l37 24c52.667 -84 94 -170.167 124 -258.5s54.333 -199.166 73 -332.499l91 131l121 -123c16 -17.333 35 -32.666 57 -45.999l-1 42
c0 204 38.667 406.667 116 608l260 -270c-81.333 -141.333 -137.666 -280.666 -168.999 -417.999c80 17.333 157.333 42.666 232 75.999l38 -54c-38 -38 -81.667 -72.667 -131 -104s-100.666 -56.666 -153.999 -75.999c11.333 -119.333 24.5 -204.333 39.5 -255
s46.167 -113.667 93.5 -189l-41 -54c-78 83.333 -135.167 157 -171.5 221s-64.5 142 -84.5 234l-30 -1c-22 0 -67.5 6.83301 -136.5 20.5s-138 30 -207 49s-119.167 36.833 -150.5 53.5z" />
    <glyph glyph-name="multiply" unicode="&#x427;" horiz-adv-x="1102" 
d="M135 577c14 74 24.665 148.164 31.998 222.497s11 148.166 11 221.499c0 68.667 -16.333 161.334 -49 278.001l37 24c52.667 -84 94 -170.167 124 -258.5s54.333 -199.166 73 -332.499l91 131l121 -123c16 -17.333 35 -32.666 57 -45.999l-1 42
c0 204 38.667 406.667 116 608l260 -270c-81.333 -141.333 -137.666 -280.666 -168.999 -417.999c80 17.333 157.333 42.666 232 75.999l38 -54c-38 -38 -81.667 -72.667 -131 -104s-100.666 -56.666 -153.999 -75.999c11.333 -119.333 24.5 -204.333 39.5 -255
s46.167 -113.667 93.5 -189l-41 -54c-78 83.333 -135.167 157 -171.5 221s-64.5 142 -84.5 234l-30 -1c-22 0 -67.5 6.83301 -136.5 20.5s-138 30 -207 49s-119.167 36.833 -150.5 53.5z" />
    <glyph glyph-name="Oslash" unicode="&#xd8;" horiz-adv-x="1737" 
d="M1091 5c-12 -3.33301 -56.3301 -5.00195 -132.997 -5.00195c-12 -6 -28 -9 -48 -9c-18 0 -46.667 4.16699 -86 12.5s-69.333 12.5 -90 12.5c-12 0 -20.667 -0.666992 -26 -2l-60 -46l-27 37c-55.333 0 -111.166 11.667 -167.499 35s-108.5 56 -156.5 98
c-63.333 55.333 -105.333 115.666 -126 180.999c-10.667 36 -19.5 81.833 -26.5 137.5s-10.5 121.167 -10.5 196.5c0 56.667 -2.16699 106.667 -6.5 150s-10.833 83.666 -19.5 120.999c-14 66.667 -38.667 132.334 -74 197.001l211 252c44 -60 74.333 -119.333 91 -178
s25 -140 25 -244c0 -70.667 -3.33301 -143.667 -10 -219c0 -32 -1.5 -64.5 -4.5 -97.5s-5.83301 -66.167 -8.5 -99.5c0 -28.667 1 -57.5 3 -86.5s5.66699 -61.833 11 -98.5c10 -69.333 30.833 -124.166 62.5 -164.499s81.167 -74.5 148.5 -102.5l-93 127
c66 24.667 116.667 47.167 152 67.5s68.666 47.833 99.999 82.5c37.333 42 64.5 84.167 81.5 126.5s25.5 90.5 25.5 144.5l-1 79l-2 79c0 106.667 15.667 210.334 47 311.001c19.333 62.667 39.333 110.5 60 143.5s52 66.833 94 101.5l28 -19
c-14 -32 -26.167 -64.333 -36.5 -97s-18.833 -66.667 -25.5 -102c-11.333 -68 -17 -152.667 -17 -254c0 -71.333 4.33301 -150.333 13 -237c4 -46 6 -84 6 -114l-27 -387c0 -14.667 9.83301 -28.5 29.5 -41.5s46.5 -19.5 80.5 -19.5c20 0 43.667 3 71 9
c68.667 28.667 118 63 148 103c32 40 53 94.667 63 164c5.33301 36.667 9 69.5 11 98.5s3 57.833 3 86.5c-2.66699 33.333 -5.66699 66.666 -9 99.999c-2.66699 32.667 -4 65 -4 97c-6.66699 75.333 -10 148.333 -10 219c0 104 8.33301 185.333 25 244s47 118 91 178
l211 -252c-35.333 -64.667 -60 -130.334 -74 -197.001c-8.66699 -37.333 -15.334 -77.666 -20.001 -120.999c-4 -43.333 -6 -93.333 -6 -150c0 -75.333 -3.66699 -140.666 -11 -195.999c-6.66699 -56 -15.334 -102 -26.001 -138
c-20.667 -65.333 -62.667 -125.666 -126 -180.999c-48 -42 -100.333 -74.667 -157 -98s-112.334 -35 -167.001 -35z" />
    <glyph glyph-name="Oslash" unicode="&#x428;" horiz-adv-x="1737" 
d="M1091 5c-12 -3.33301 -56.3301 -5.00195 -132.997 -5.00195c-12 -6 -28 -9 -48 -9c-18 0 -46.667 4.16699 -86 12.5s-69.333 12.5 -90 12.5c-12 0 -20.667 -0.666992 -26 -2l-60 -46l-27 37c-55.333 0 -111.166 11.667 -167.499 35s-108.5 56 -156.5 98
c-63.333 55.333 -105.333 115.666 -126 180.999c-10.667 36 -19.5 81.833 -26.5 137.5s-10.5 121.167 -10.5 196.5c0 56.667 -2.16699 106.667 -6.5 150s-10.833 83.666 -19.5 120.999c-14 66.667 -38.667 132.334 -74 197.001l211 252c44 -60 74.333 -119.333 91 -178
s25 -140 25 -244c0 -70.667 -3.33301 -143.667 -10 -219c0 -32 -1.5 -64.5 -4.5 -97.5s-5.83301 -66.167 -8.5 -99.5c0 -28.667 1 -57.5 3 -86.5s5.66699 -61.833 11 -98.5c10 -69.333 30.833 -124.166 62.5 -164.499s81.167 -74.5 148.5 -102.5l-93 127
c66 24.667 116.667 47.167 152 67.5s68.666 47.833 99.999 82.5c37.333 42 64.5 84.167 81.5 126.5s25.5 90.5 25.5 144.5l-1 79l-2 79c0 106.667 15.667 210.334 47 311.001c19.333 62.667 39.333 110.5 60 143.5s52 66.833 94 101.5l28 -19
c-14 -32 -26.167 -64.333 -36.5 -97s-18.833 -66.667 -25.5 -102c-11.333 -68 -17 -152.667 -17 -254c0 -71.333 4.33301 -150.333 13 -237c4 -46 6 -84 6 -114l-27 -387c0 -14.667 9.83301 -28.5 29.5 -41.5s46.5 -19.5 80.5 -19.5c20 0 43.667 3 71 9
c68.667 28.667 118 63 148 103c32 40 53 94.667 63 164c5.33301 36.667 9 69.5 11 98.5s3 57.833 3 86.5c-2.66699 33.333 -5.66699 66.666 -9 99.999c-2.66699 32.667 -4 65 -4 97c-6.66699 75.333 -10 148.333 -10 219c0 104 8.33301 185.333 25 244s47 118 91 178
l211 -252c-35.333 -64.667 -60 -130.334 -74 -197.001c-8.66699 -37.333 -15.334 -77.666 -20.001 -120.999c-4 -43.333 -6 -93.333 -6 -150c0 -75.333 -3.66699 -140.666 -11 -195.999c-6.66699 -56 -15.334 -102 -26.001 -138
c-20.667 -65.333 -62.667 -125.666 -126 -180.999c-48 -42 -100.333 -74.667 -157 -98s-112.334 -35 -167.001 -35z" />
    <glyph glyph-name="Ugrave" unicode="&#xd9;" horiz-adv-x="1855" 
d="M1300 14c-8.66699 2.66699 -22.665 11.3311 -41.998 25.998c-56.667 -23.333 -112.334 -35 -167.001 -35c-12 -3.33301 -56.333 -5 -133 -5c-12 -6 -28 -9 -48 -9c-18 0 -46.667 4.16699 -86 12.5s-69.333 12.5 -90 12.5c-12 0 -20.667 -0.666992 -26 -2l-60 -46l-27 37
c-55.333 0 -111.166 11.667 -167.499 35s-108.5 56 -156.5 98c-63.333 55.333 -105.333 115.666 -126 180.999c-10.667 36 -19.5 81.833 -26.5 137.5s-10.5 121.167 -10.5 196.5c0 56.667 -2.16699 106.667 -6.5 150s-10.833 83.666 -19.5 120.999
c-14 66.667 -38.667 132.334 -74 197.001l211 252c44 -60 74.333 -119.333 91 -178s25 -140 25 -244c0 -70.667 -3.33301 -143.667 -10 -219c0 -32 -1.5 -64.5 -4.5 -97.5s-5.83301 -66.167 -8.5 -99.5c0 -28.667 1 -57.5 3 -86.5s5.66699 -61.833 11 -98.5
c10 -69.333 30.833 -124.166 62.5 -164.499s81.167 -74.5 148.5 -102.5l-93 127c66 24.667 116.667 47.167 152 67.5s68.666 47.833 99.999 82.5c37.333 42 64.5 84.167 81.5 126.5s25.5 90.5 25.5 144.5l-1 79l-2 79c0 106.667 15.667 210.334 47 311.001
c19.333 62.667 39.333 110.5 60 143.5s52 66.833 94 101.5l28 -19c-14 -32 -26.167 -64.333 -36.5 -97s-18.833 -66.667 -25.5 -102c-11.333 -68 -17 -152.667 -17 -254c0 -71.333 4.33301 -150.333 13 -237c4 -46 6 -84 6 -114l-27 -387
c0 -14.667 9.83301 -28.5 29.5 -41.5s46.5 -19.5 80.5 -19.5c20 0 43.667 3 71 9c68.667 28.667 118 63 148 103c32 40 53 94.667 63 164c5.33301 36.667 9 69.5 11 98.5s3 57.833 3 86.5c-2.66699 33.333 -5.66699 66.666 -9 99.999c-2.66699 32.667 -4 65 -4 97
c-6.66699 75.333 -10 148.333 -10 219c0 104 8.33301 185.333 25 244s47 118 91 178l211 -252c-35.333 -64.667 -60 -130.334 -74 -197.001c-8.66699 -37.333 -15.334 -77.666 -20.001 -120.999c-4 -43.333 -6 -93.333 -6 -150c0 -75.333 -3.66699 -140.666 -11 -195.999
c-7.33301 -60 -16 -106 -26 -138c-10 -16 -17 -29.667 -21 -41s-8.66699 -23.666 -14 -36.999c29.333 -31.333 57 -54.666 83 -69.999c26 -16.667 71.667 -39.334 137 -68.001l-210 -290c-106 89.333 -178 156.333 -216 201z" />
    <glyph glyph-name="Ugrave" unicode="&#x429;" horiz-adv-x="1855" 
d="M1300 14c-8.66699 2.66699 -22.665 11.3311 -41.998 25.998c-56.667 -23.333 -112.334 -35 -167.001 -35c-12 -3.33301 -56.333 -5 -133 -5c-12 -6 -28 -9 -48 -9c-18 0 -46.667 4.16699 -86 12.5s-69.333 12.5 -90 12.5c-12 0 -20.667 -0.666992 -26 -2l-60 -46l-27 37
c-55.333 0 -111.166 11.667 -167.499 35s-108.5 56 -156.5 98c-63.333 55.333 -105.333 115.666 -126 180.999c-10.667 36 -19.5 81.833 -26.5 137.5s-10.5 121.167 -10.5 196.5c0 56.667 -2.16699 106.667 -6.5 150s-10.833 83.666 -19.5 120.999
c-14 66.667 -38.667 132.334 -74 197.001l211 252c44 -60 74.333 -119.333 91 -178s25 -140 25 -244c0 -70.667 -3.33301 -143.667 -10 -219c0 -32 -1.5 -64.5 -4.5 -97.5s-5.83301 -66.167 -8.5 -99.5c0 -28.667 1 -57.5 3 -86.5s5.66699 -61.833 11 -98.5
c10 -69.333 30.833 -124.166 62.5 -164.499s81.167 -74.5 148.5 -102.5l-93 127c66 24.667 116.667 47.167 152 67.5s68.666 47.833 99.999 82.5c37.333 42 64.5 84.167 81.5 126.5s25.5 90.5 25.5 144.5l-1 79l-2 79c0 106.667 15.667 210.334 47 311.001
c19.333 62.667 39.333 110.5 60 143.5s52 66.833 94 101.5l28 -19c-14 -32 -26.167 -64.333 -36.5 -97s-18.833 -66.667 -25.5 -102c-11.333 -68 -17 -152.667 -17 -254c0 -71.333 4.33301 -150.333 13 -237c4 -46 6 -84 6 -114l-27 -387
c0 -14.667 9.83301 -28.5 29.5 -41.5s46.5 -19.5 80.5 -19.5c20 0 43.667 3 71 9c68.667 28.667 118 63 148 103c32 40 53 94.667 63 164c5.33301 36.667 9 69.5 11 98.5s3 57.833 3 86.5c-2.66699 33.333 -5.66699 66.666 -9 99.999c-2.66699 32.667 -4 65 -4 97
c-6.66699 75.333 -10 148.333 -10 219c0 104 8.33301 185.333 25 244s47 118 91 178l211 -252c-35.333 -64.667 -60 -130.334 -74 -197.001c-8.66699 -37.333 -15.334 -77.666 -20.001 -120.999c-4 -43.333 -6 -93.333 -6 -150c0 -75.333 -3.66699 -140.666 -11 -195.999
c-7.33301 -60 -16 -106 -26 -138c-10 -16 -17 -29.667 -21 -41s-8.66699 -23.666 -14 -36.999c29.333 -31.333 57 -54.666 83 -69.999c26 -16.667 71.667 -39.334 137 -68.001l-210 -290c-106 89.333 -178 156.333 -216 201z" />
    <glyph glyph-name="Uacute" unicode="&#xda;" horiz-adv-x="1266" 
d="M341 178c90 -62 178.665 -92.999 265.998 -92.999c74.667 0 140.334 18.333 197.001 55c56.667 37.333 85 93.666 85 168.999c0 88 -43.333 155.333 -130 202c-46 25.333 -122 47.666 -228 66.999c-41.333 -143.333 -104.666 -276.666 -189.999 -399.999z
M269.998 985.001c-6 15.333 -16.3301 23.001 -30.9971 23.001c-11.333 0 -23.5 -3 -36.5 -9s-33.333 -16.833 -61 -32.5s-57.834 -31.834 -90.501 -48.501l-49 32l392 404c65.333 -78.667 110.666 -157 135.999 -235s38 -175.667 38 -293c0 -62 -6.66699 -123.667 -20 -185
l304 157c90.667 -50.667 152 -89.334 184 -116.001c106 -83.333 159 -178.333 159 -285c0 -51.333 -12.167 -102.333 -36.5 -153s-57.5 -95 -99.5 -133c-96 -87.333 -221.333 -131 -376 -131c-150 0 -280.333 43.333 -391 130c-30 -38 -61 -75 -93 -111l-46 54l88 105
c-48.667 52.667 -99 123 -151 211l62 33c51.333 -81.333 96.333 -140.666 135 -177.999c29.333 62 49.666 118.333 60.999 169c6 25.333 10.333 53 13 83s4 62 4 96c0 154 -31.667 291.667 -95 413z" />
    <glyph glyph-name="Uacute" unicode="&#x42a;" horiz-adv-x="1266" 
d="M341 178c90 -62 178.665 -92.999 265.998 -92.999c74.667 0 140.334 18.333 197.001 55c56.667 37.333 85 93.666 85 168.999c0 88 -43.333 155.333 -130 202c-46 25.333 -122 47.666 -228 66.999c-41.333 -143.333 -104.666 -276.666 -189.999 -399.999z
M269.998 985.001c-6 15.333 -16.3301 23.001 -30.9971 23.001c-11.333 0 -23.5 -3 -36.5 -9s-33.333 -16.833 -61 -32.5s-57.834 -31.834 -90.501 -48.501l-49 32l392 404c65.333 -78.667 110.666 -157 135.999 -235s38 -175.667 38 -293c0 -62 -6.66699 -123.667 -20 -185
l304 157c90.667 -50.667 152 -89.334 184 -116.001c106 -83.333 159 -178.333 159 -285c0 -51.333 -12.167 -102.333 -36.5 -153s-57.5 -95 -99.5 -133c-96 -87.333 -221.333 -131 -376 -131c-150 0 -280.333 43.333 -391 130c-30 -38 -61 -75 -93 -111l-46 54l88 105
c-48.667 52.667 -99 123 -151 211l62 33c51.333 -81.333 96.333 -140.666 135 -177.999c29.333 62 49.666 118.333 60.999 169c6 25.333 10.333 53 13 83s4 62 4 96c0 154 -31.667 291.667 -95 413z" />
    <glyph glyph-name="Ucircumflex" unicode="&#xdb;" horiz-adv-x="1638" 
d="M68 402c51.333 -81.333 96.335 -140.667 135.002 -178c29.333 62 49.666 118.333 60.999 169c6 25.333 10.333 53 13 83s4 62 4 96c0 154.667 -31.667 292.334 -95 413.001c-16.667 31.333 -44 76.333 -82 135l206 234c65.333 -78.667 110.666 -157 135.999 -235
s38 -175.667 38 -293c0 -62 -6.66699 -123.667 -20 -185l304 157c90.667 -50.667 152 -89.334 184 -116.001c106 -83.333 159 -178.333 159 -285c0 -51.333 -12.167 -102.333 -36.5 -153s-57.5 -95 -99.5 -133c-96 -87.333 -221.333 -131 -376 -131
c-150 0 -280.333 43.333 -391 130c-30 -38 -61 -75 -93 -111l-46 54l88 105c-48.667 52.667 -99 123 -151 211zM257.002 177.999c90 -62 178.665 -92.999 265.998 -92.999c74.667 0 140.334 18.333 197.001 55c56.667 37.333 85 93.666 85 168.999
c0 88 -43.333 155.333 -130 202c-46 25.333 -122 47.666 -228 66.999c-41.333 -143.333 -104.666 -276.666 -189.999 -399.999zM1449 0l-262.001 245.999c45.333 132.667 75.5 237.834 90.5 315.501s22.5 168.5 22.5 272.5c0 96 -6.16699 173.667 -18.5 233
s-37.5 132.666 -75.5 219.999l44 27c56.667 -80 108.334 -173.333 155.001 -280c85.333 -198 128 -400.667 128 -608c0 -85.333 -6.33301 -159.333 -19 -222c-6 -31.333 -14.333 -64.166 -25 -98.499s-24 -69.5 -40 -105.5z" />
    <glyph glyph-name="Ucircumflex" unicode="&#x42b;" horiz-adv-x="1638" 
d="M68 402c51.333 -81.333 96.335 -140.667 135.002 -178c29.333 62 49.666 118.333 60.999 169c6 25.333 10.333 53 13 83s4 62 4 96c0 154.667 -31.667 292.334 -95 413.001c-16.667 31.333 -44 76.333 -82 135l206 234c65.333 -78.667 110.666 -157 135.999 -235
s38 -175.667 38 -293c0 -62 -6.66699 -123.667 -20 -185l304 157c90.667 -50.667 152 -89.334 184 -116.001c106 -83.333 159 -178.333 159 -285c0 -51.333 -12.167 -102.333 -36.5 -153s-57.5 -95 -99.5 -133c-96 -87.333 -221.333 -131 -376 -131
c-150 0 -280.333 43.333 -391 130c-30 -38 -61 -75 -93 -111l-46 54l88 105c-48.667 52.667 -99 123 -151 211zM257.002 177.999c90 -62 178.665 -92.999 265.998 -92.999c74.667 0 140.334 18.333 197.001 55c56.667 37.333 85 93.666 85 168.999
c0 88 -43.333 155.333 -130 202c-46 25.333 -122 47.666 -228 66.999c-41.333 -143.333 -104.666 -276.666 -189.999 -399.999zM1449 0l-262.001 245.999c45.333 132.667 75.5 237.834 90.5 315.501s22.5 168.5 22.5 272.5c0 96 -6.16699 173.667 -18.5 233
s-37.5 132.666 -75.5 219.999l44 27c56.667 -80 108.334 -173.333 155.001 -280c85.333 -198 128 -400.667 128 -608c0 -85.333 -6.33301 -159.333 -19 -222c-6 -31.333 -14.333 -64.166 -25 -98.499s-24 -69.5 -40 -105.5z" />
    <glyph glyph-name="Udieresis" unicode="&#xdc;" horiz-adv-x="1173" 
d="M68 402c51.333 -81.333 96.335 -140.667 135.002 -178c29.333 62 49.666 118.333 60.999 169c6 25.333 10.333 53 13 83s4 62 4 96c0 154.667 -31.667 292.334 -95 413.001c-16.667 31.333 -44 76.333 -82 135l206 234c65.333 -78.667 110.666 -157 135.999 -235
s38 -175.667 38 -293c0 -62 -6.66699 -123.667 -20 -185l304 157c90.667 -50.667 152 -89.334 184 -116.001c106 -83.333 159 -178.333 159 -285c0 -51.333 -12.167 -102.333 -36.5 -153s-57.5 -95 -99.5 -133c-96 -87.333 -221.333 -131 -376 -131
c-150 0 -280.333 43.333 -391 130c-30 -38 -61 -75 -93 -111l-46 54l88 105c-48.667 52.667 -99 123 -151 211zM257.002 177.999c90 -62 178.665 -92.999 265.998 -92.999c74.667 0 140.334 18.333 197.001 55c56.667 37.333 85 93.666 85 168.999
c0 88 -43.333 155.333 -130 202c-46 25.333 -122 47.666 -228 66.999c-41.333 -143.333 -104.666 -276.666 -189.999 -399.999z" />
    <glyph glyph-name="Udieresis" unicode="&#x42c;" horiz-adv-x="1173" 
d="M68 402c51.333 -81.333 96.335 -140.667 135.002 -178c29.333 62 49.666 118.333 60.999 169c6 25.333 10.333 53 13 83s4 62 4 96c0 154.667 -31.667 292.334 -95 413.001c-16.667 31.333 -44 76.333 -82 135l206 234c65.333 -78.667 110.666 -157 135.999 -235
s38 -175.667 38 -293c0 -62 -6.66699 -123.667 -20 -185l304 157c90.667 -50.667 152 -89.334 184 -116.001c106 -83.333 159 -178.333 159 -285c0 -51.333 -12.167 -102.333 -36.5 -153s-57.5 -95 -99.5 -133c-96 -87.333 -221.333 -131 -376 -131
c-150 0 -280.333 43.333 -391 130c-30 -38 -61 -75 -93 -111l-46 54l88 105c-48.667 52.667 -99 123 -151 211zM257.002 177.999c90 -62 178.665 -92.999 265.998 -92.999c74.667 0 140.334 18.333 197.001 55c56.667 37.333 85 93.666 85 168.999
c0 88 -43.333 155.333 -130 202c-46 25.333 -122 47.666 -228 66.999c-41.333 -143.333 -104.666 -276.666 -189.999 -399.999z" />
    <glyph glyph-name="Yacute" unicode="&#xdd;" horiz-adv-x="1126" 
d="M840 601l-775.001 61.998l78 172l661 -58c-18.667 40 -44 76 -76 108c-42.667 42 -88.334 73 -137.001 93s-107.667 33 -177 39l-125 180c-69.333 -71.333 -119 -133 -149 -185c-2 0 -20.167 2.33301 -54.5 7l-80.5 11c26 34 59 68.667 99 104s90 73.333 150 114l-78 113
c20.667 0 45.334 1 74.001 3s47.334 3 56.001 3c73.333 0 151 -11 233 -33l157 31l11 -48l-66 -22c122 -69.333 214.667 -147.666 278 -234.999c78 -108 117 -229.667 117 -365c0 -134 -36.167 -253.167 -108.5 -357.5s-181.833 -193.166 -328.5 -266.499l36 -66
c-59.333 -10 -99 -15 -119 -15c-23.333 0 -54 4 -92 12l-126 -34l-24 45l54 23c-102 46.667 -185.333 105.667 -250 177l217 174c41.333 -20 96.333 -36.333 165 -49l110 -213c47.333 40 83.333 73 108 99c108 110 162 235.667 162 377z" />
    <glyph glyph-name="Yacute" unicode="&#x42d;" horiz-adv-x="1126" 
d="M840 601l-775.001 61.998l78 172l661 -58c-18.667 40 -44 76 -76 108c-42.667 42 -88.334 73 -137.001 93s-107.667 33 -177 39l-125 180c-69.333 -71.333 -119 -133 -149 -185c-2 0 -20.167 2.33301 -54.5 7l-80.5 11c26 34 59 68.667 99 104s90 73.333 150 114l-78 113
c20.667 0 45.334 1 74.001 3s47.334 3 56.001 3c73.333 0 151 -11 233 -33l157 31l11 -48l-66 -22c122 -69.333 214.667 -147.666 278 -234.999c78 -108 117 -229.667 117 -365c0 -134 -36.167 -253.167 -108.5 -357.5s-181.833 -193.166 -328.5 -266.499l36 -66
c-59.333 -10 -99 -15 -119 -15c-23.333 0 -54 4 -92 12l-126 -34l-24 45l54 23c-102 46.667 -185.333 105.667 -250 177l217 174c41.333 -20 96.333 -36.333 165 -49l110 -213c47.333 40 83.333 73 108 99c108 110 162 235.667 162 377z" />
    <glyph glyph-name="Thorn" unicode="&#xde;" horiz-adv-x="1663" 
d="M1150 121c47.333 40 83.334 72.998 108.001 98.998c108 110 162 235.667 162 377c0 115.333 -37.333 210 -112 284c-42.667 42 -88.334 73 -137.001 93s-107.667 33 -177 39l-125 180c-69.333 -71.333 -119 -133 -149 -185c-22 -39.333 -38.667 -78.5 -50 -117.5
s-17 -79.167 -17 -120.5c0 -111.333 37 -210.666 111 -297.999c32.667 -38 69.667 -67.667 111 -89c38.667 -19.333 93.667 -35.666 165 -48.999zM477.001 560.998l-76.0049 -4.00293c4 -42.667 6 -86.334 6 -131.001c0 -85.333 -6.33301 -159.333 -19 -222
c-6 -31.333 -14.333 -64.166 -25 -98.499s-24 -69.5 -40 -105.5l-262 246c45.333 132.667 75.5 237.834 90.5 315.501s22.5 168.5 22.5 272.5c0 96 -6.16699 173.667 -18.5 233s-37.5 132.666 -75.5 219.999l44 27c56.667 -80 108.334 -173.333 155.001 -280
c48.667 -114.667 83.667 -231.667 105 -351l81 -4c0 127.333 40 243 120 347c50.667 66.667 133.667 139.334 249 218.001l-78 113c20.667 0 45.334 1 74.001 3s47.334 3 56.001 3c73.333 0 151 -11 233 -33l157 31l11 -48l-66 -22
c122 -69.333 214.667 -147.666 278 -234.999c78 -108 117 -229.667 117 -365c0 -134 -36.167 -253.167 -108.5 -357.5s-181.833 -193.166 -328.5 -266.499l36 -66c-59.333 -10 -99 -15 -119 -15c-23.333 0 -54 4 -92 12l-126 -34l-24 45l54 23
c-101.333 46 -184.666 105 -249.999 177c-59.333 66.667 -106.333 142 -141 226c-17.333 41.333 -30.666 83.333 -39.999 126z" />
    <glyph glyph-name="Thorn" unicode="&#x42e;" horiz-adv-x="1663" 
d="M1150 121c47.333 40 83.334 72.998 108.001 98.998c108 110 162 235.667 162 377c0 115.333 -37.333 210 -112 284c-42.667 42 -88.334 73 -137.001 93s-107.667 33 -177 39l-125 180c-69.333 -71.333 -119 -133 -149 -185c-22 -39.333 -38.667 -78.5 -50 -117.5
s-17 -79.167 -17 -120.5c0 -111.333 37 -210.666 111 -297.999c32.667 -38 69.667 -67.667 111 -89c38.667 -19.333 93.667 -35.666 165 -48.999zM477.001 560.998l-76.0049 -4.00293c4 -42.667 6 -86.334 6 -131.001c0 -85.333 -6.33301 -159.333 -19 -222
c-6 -31.333 -14.333 -64.166 -25 -98.499s-24 -69.5 -40 -105.5l-262 246c45.333 132.667 75.5 237.834 90.5 315.501s22.5 168.5 22.5 272.5c0 96 -6.16699 173.667 -18.5 233s-37.5 132.666 -75.5 219.999l44 27c56.667 -80 108.334 -173.333 155.001 -280
c48.667 -114.667 83.667 -231.667 105 -351l81 -4c0 127.333 40 243 120 347c50.667 66.667 133.667 139.334 249 218.001l-78 113c20.667 0 45.334 1 74.001 3s47.334 3 56.001 3c73.333 0 151 -11 233 -33l157 31l11 -48l-66 -22
c122 -69.333 214.667 -147.666 278 -234.999c78 -108 117 -229.667 117 -365c0 -134 -36.167 -253.167 -108.5 -357.5s-181.833 -193.166 -328.5 -266.499l36 -66c-59.333 -10 -99 -15 -119 -15c-23.333 0 -54 4 -92 12l-126 -34l-24 45l54 23
c-101.333 46 -184.666 105 -249.999 177c-59.333 66.667 -106.333 142 -141 226c-17.333 41.333 -30.666 83.333 -39.999 126z" />
    <glyph glyph-name="germandbls" unicode="&#xdf;" horiz-adv-x="1225" 
d="M918 -9c-60.667 89.333 -101.001 155.668 -121.001 199.001c-49.333 106.667 -74 234.334 -74 383.001c0 9.33301 1 31 3 65c2.66699 33.333 4 58.666 4 75.999l-109 -12c-31.333 -322 -143.666 -558 -336.999 -708l-231 311c219.333 112.667 367 236.667 443 372
c-44.667 -28 -83.667 -54.333 -117 -79c-104.667 69.333 -177.334 133 -218.001 191c-40 58 -60 125.333 -60 202c0 109.333 47.333 200.666 142 273.999c95.333 72.667 203.333 109 324 109c52 0 103 -7.66699 153 -23c50.667 -16 110.334 -42.333 179.001 -79
c10 18.667 21.333 38.5 34 59.5l35 56.5l48 -33c-20.667 -39.333 -39 -80 -55 -122c68 -48 136 -103.667 204 -167l-42 -49l-91 79c-30 24.667 -60 48 -90 70c-9.33301 -46 -16 -87.5 -20 -124.5s-6 -73.167 -6 -108.5c0 -62.667 4 -122.667 12 -180
s19.667 -111.666 35 -162.999c32 -106.667 82.667 -213.334 152 -320.001zM626.999 784.002c20.667 -5.33301 39.332 -9.33398 55.999 -12.001c17.333 -3.33301 35.333 -5 54 -5c16 90 32.333 163.833 49 221.5s44.667 132.5 84 224.5c-80.667 35.333 -163.667 53 -249 53
c-80.667 0 -142 -18 -184 -54c-22 -19.333 -39 -42.666 -51 -69.999c-8 -16 -13.333 -30.167 -16 -42.5s-4 -26.5 -4 -42.5c0 -84 47.667 -157 143 -219c12.667 -8.66699 27.334 -17 44.001 -25c6.66699 30.667 10 59.667 10 87c0 40.667 -5 96.667 -15 168l57 17
c8.66699 -41.333 14.667 -79.5 18 -114.5s5 -73.167 5 -114.5z" />
    <glyph glyph-name="germandbls" unicode="&#x42f;" horiz-adv-x="1225" 
d="M918 -9c-60.667 89.333 -101.001 155.668 -121.001 199.001c-49.333 106.667 -74 234.334 -74 383.001c0 9.33301 1 31 3 65c2.66699 33.333 4 58.666 4 75.999l-109 -12c-31.333 -322 -143.666 -558 -336.999 -708l-231 311c219.333 112.667 367 236.667 443 372
c-44.667 -28 -83.667 -54.333 -117 -79c-104.667 69.333 -177.334 133 -218.001 191c-40 58 -60 125.333 -60 202c0 109.333 47.333 200.666 142 273.999c95.333 72.667 203.333 109 324 109c52 0 103 -7.66699 153 -23c50.667 -16 110.334 -42.333 179.001 -79
c10 18.667 21.333 38.5 34 59.5l35 56.5l48 -33c-20.667 -39.333 -39 -80 -55 -122c68 -48 136 -103.667 204 -167l-42 -49l-91 79c-30 24.667 -60 48 -90 70c-9.33301 -46 -16 -87.5 -20 -124.5s-6 -73.167 -6 -108.5c0 -62.667 4 -122.667 12 -180
s19.667 -111.666 35 -162.999c32 -106.667 82.667 -213.334 152 -320.001zM626.999 784.002c20.667 -5.33301 39.332 -9.33398 55.999 -12.001c17.333 -3.33301 35.333 -5 54 -5c16 90 32.333 163.833 49 221.5s44.667 132.5 84 224.5c-80.667 35.333 -163.667 53 -249 53
c-80.667 0 -142 -18 -184 -54c-22 -19.333 -39 -42.666 -51 -69.999c-8 -16 -13.333 -30.167 -16 -42.5s-4 -26.5 -4 -42.5c0 -84 47.667 -157 143 -219c12.667 -8.66699 27.334 -17 44.001 -25c6.66699 30.667 10 59.667 10 87c0 40.667 -5 96.667 -15 168l57 17
c8.66699 -41.333 14.667 -79.5 18 -114.5s5 -73.167 5 -114.5z" />
    <glyph glyph-name="agrave" unicode="&#xe0;" horiz-adv-x="1171" 
d="M854 1028l36.998 -14.999c-33.333 -94 -50 -172 -50 -234c0 -113.333 36 -227.666 108 -342.999c20 -32 44.5 -64.5 73.5 -97.5s63.833 -67.5 104.5 -103.5l-204 -285c-83.333 113.333 -147.666 243.333 -192.999 390l-175 150c-14 -77.333 -35.333 -151.333 -64 -222
c-37.333 -96.667 -78.833 -166.667 -124.5 -210s-101.167 -65 -166.5 -65c-62.667 0 -112.5 18 -149.5 54s-55.5 80.667 -55.5 134c0 51.333 16.167 95.166 48.5 131.499s71.166 54.5 116.499 54.5c50.667 0 103.334 -25.333 158.001 -76c55.333 92 96.333 191 123 297
l-196 167l64 87l152 -127l3 93c0 65.333 -6 131.666 -18 198.999c-33.333 14.667 -64.333 33.5 -93 56.5s-75.667 67.833 -141 134.5l33 27c24.667 -10 48 -18.333 70 -25s45.667 -13 71 -19c-4.66699 10 -11 22.833 -19 38.5s-17.333 31.834 -28 48.501l66 47
c30 -40 57.333 -86.667 82 -140c22 0 43.667 3.16699 65 9.5s42 14.833 62 25.5c36.667 19.333 81.667 54.666 135 105.999l190 -223c-31.333 -27.333 -59.666 -49 -84.999 -65zM797.998 1001c-54.667 -18.667 -110 -28 -166 -28c-26 0 -53.667 2 -83 6
c17.333 -85.333 26 -171 26 -257c0 -9.33301 -0.666992 -25 -2 -47s-2 -39.333 -2 -52l120 -101l-5 93c0 38.667 2 74.5 6 107.5s10.667 64.833 20 95.5c17.333 60.667 46 121.667 86 183z" />
    <glyph glyph-name="agrave" unicode="&#x430;" horiz-adv-x="1171" 
d="M854 1028l36.998 -14.999c-33.333 -94 -50 -172 -50 -234c0 -113.333 36 -227.666 108 -342.999c20 -32 44.5 -64.5 73.5 -97.5s63.833 -67.5 104.5 -103.5l-204 -285c-83.333 113.333 -147.666 243.333 -192.999 390l-175 150c-14 -77.333 -35.333 -151.333 -64 -222
c-37.333 -96.667 -78.833 -166.667 -124.5 -210s-101.167 -65 -166.5 -65c-62.667 0 -112.5 18 -149.5 54s-55.5 80.667 -55.5 134c0 51.333 16.167 95.166 48.5 131.499s71.166 54.5 116.499 54.5c50.667 0 103.334 -25.333 158.001 -76c55.333 92 96.333 191 123 297
l-196 167l64 87l152 -127l3 93c0 65.333 -6 131.666 -18 198.999c-33.333 14.667 -64.333 33.5 -93 56.5s-75.667 67.833 -141 134.5l33 27c24.667 -10 48 -18.333 70 -25s45.667 -13 71 -19c-4.66699 10 -11 22.833 -19 38.5s-17.333 31.834 -28 48.501l66 47
c30 -40 57.333 -86.667 82 -140c22 0 43.667 3.16699 65 9.5s42 14.833 62 25.5c36.667 19.333 81.667 54.666 135 105.999l190 -223c-31.333 -27.333 -59.666 -49 -84.999 -65zM797.998 1001c-54.667 -18.667 -110 -28 -166 -28c-26 0 -53.667 2 -83 6
c17.333 -85.333 26 -171 26 -257c0 -9.33301 -0.666992 -25 -2 -47s-2 -39.333 -2 -52l120 -101l-5 93c0 38.667 2 74.5 6 107.5s10.667 64.833 20 95.5c17.333 60.667 46 121.667 86 183z" />
    <glyph glyph-name="aacute" unicode="&#xe1;" horiz-adv-x="1170" 
d="M438 673c4 -38 6.00098 -100.669 6.00098 -188.002v-19v-16v-14v-11v-43c-2 -10.667 -3.33301 -18 -4 -22l81 -37c21.333 -9.33301 40.333 -16.666 57 -21.999c32.667 -8.66699 66.667 -13 102 -13c61.333 0 115.666 15 162.999 45c62.667 40.667 94 97 94 169
c0 60 -30.333 120 -91 180c-34.667 -17.333 -90 -36.666 -166 -57.999l-117 102zM474.001 802.998l-69 60l18 -84zM931.001 738.998c34 -22.667 56.999 -39.668 68.999 -51.001c40.667 -34.667 73.334 -78.5 98.001 -131.5s37 -105.167 37 -156.5
c0 -66 -18.167 -128.333 -54.5 -187s-87.5 -108 -153.5 -148c-42.667 -26.667 -102.334 -51.667 -179.001 -75l-324 298c-40 -109.333 -81.333 -207 -124 -293l-225 253c111.333 174.667 167 358 167 550c0 138 -24.333 257.667 -73 359
c-26 -17.333 -59.667 -43.666 -101 -78.999l-48 42c44 54.667 78.667 93.334 104 116.001c-18 26.667 -41.667 56.334 -71 89.001l62 56c33.333 -35.333 60.666 -66.666 81.999 -93.999c52.667 29.333 109.334 51.333 170.001 66s127.667 22 201 22
c129.333 0 236 -26 320 -78c50 -30.667 90 -73.334 120 -128.001l-216 -110c0 33.333 -13.333 65.333 -40 96c-27.333 31.333 -64.333 56.166 -111 74.499s-102 27.5 -166 27.5c-81.333 0 -155.333 -16.667 -222 -50c64 -97.333 112 -202.666 144 -315.999
c29.333 -2.66699 55.833 -4.66699 79.5 -6s37.167 -2.33301 40.5 -3c58.667 -6.66699 116.334 -16.834 173.001 -30.501s105 -29.834 145 -48.501s72 -40 96 -64z" />
    <glyph glyph-name="aacute" unicode="&#x431;" horiz-adv-x="1170" 
d="M438 673c4 -38 6.00098 -100.669 6.00098 -188.002v-19v-16v-14v-11v-43c-2 -10.667 -3.33301 -18 -4 -22l81 -37c21.333 -9.33301 40.333 -16.666 57 -21.999c32.667 -8.66699 66.667 -13 102 -13c61.333 0 115.666 15 162.999 45c62.667 40.667 94 97 94 169
c0 60 -30.333 120 -91 180c-34.667 -17.333 -90 -36.666 -166 -57.999l-117 102zM474.001 802.998l-69 60l18 -84zM931.001 738.998c34 -22.667 56.999 -39.668 68.999 -51.001c40.667 -34.667 73.334 -78.5 98.001 -131.5s37 -105.167 37 -156.5
c0 -66 -18.167 -128.333 -54.5 -187s-87.5 -108 -153.5 -148c-42.667 -26.667 -102.334 -51.667 -179.001 -75l-324 298c-40 -109.333 -81.333 -207 -124 -293l-225 253c111.333 174.667 167 358 167 550c0 138 -24.333 257.667 -73 359
c-26 -17.333 -59.667 -43.666 -101 -78.999l-48 42c44 54.667 78.667 93.334 104 116.001c-18 26.667 -41.667 56.334 -71 89.001l62 56c33.333 -35.333 60.666 -66.666 81.999 -93.999c52.667 29.333 109.334 51.333 170.001 66s127.667 22 201 22
c129.333 0 236 -26 320 -78c50 -30.667 90 -73.334 120 -128.001l-216 -110c0 33.333 -13.333 65.333 -40 96c-27.333 31.333 -64.333 56.166 -111 74.499s-102 27.5 -166 27.5c-81.333 0 -155.333 -16.667 -222 -50c64 -97.333 112 -202.666 144 -315.999
c29.333 -2.66699 55.833 -4.66699 79.5 -6s37.167 -2.33301 40.5 -3c58.667 -6.66699 116.334 -16.834 173.001 -30.501s105 -29.834 145 -48.501s72 -40 96 -64z" />
    <glyph glyph-name="acircumflex" unicode="&#xe2;" horiz-adv-x="1169" 
d="M931 739c34 -22.667 57 -39.6709 69 -51.0039c40.667 -34.667 73.334 -78.5 98.001 -131.5s37 -105.167 37 -156.5c0 -66 -18.167 -128.333 -54.5 -187s-87.5 -108 -153.5 -148c-42.667 -26.667 -102.334 -51.667 -179.001 -75l-324 298
c-40 -109.333 -81.333 -207 -124 -293l-225 253c111.333 174.667 167 358 167 550c0 138 -24.333 257.667 -73 359c-26 -17.333 -59.667 -43.666 -101 -78.999l-48 42c44 54.667 78.667 93.334 104 116.001c-18 26.667 -41.667 56.334 -71 89.001l62 56
c33.333 -35.333 60.666 -66.666 81.999 -93.999c52.667 29.333 109.334 51.333 170.001 66s127.667 22 201 22c129.333 0 236 -26 320 -78c50 -31.333 90 -74 120 -128s45 -111.667 45 -173c0 -102 -40.667 -187.667 -122 -257zM438 672.996
c4 -38 6.00098 -100.669 6.00098 -188.002v-19v-16v-14v-11v-43c-2 -10.667 -3.33301 -18 -4 -22l81 -37c21.333 -9.33301 40.333 -16.666 57 -21.999c32.667 -8.66699 66.667 -13 102 -13c61.333 0 115.666 15 162.999 45c62.667 40.667 94 97 94 169
c0 60 -30.333 120 -91 180c-34.667 -17.333 -90 -36.666 -166 -57.999l-117 102zM474.001 802.994l-69 60l18 -84zM253.001 1206.99c64 -97.333 111.999 -202.666 143.999 -315.999c56 -6 96 -9 120 -9c70 0 131.667 15 185 45c26.667 14.667 48.334 34.5 65.001 59.5
s25 49.167 25 72.5c0 32.667 -13.5 64.667 -40.5 96s-63.833 56.166 -110.5 74.499s-102 27.5 -166 27.5c-81.333 0 -155.333 -16.667 -222 -50z" />
    <glyph glyph-name="acircumflex" unicode="&#x432;" horiz-adv-x="1169" 
d="M931 739c34 -22.667 57 -39.6709 69 -51.0039c40.667 -34.667 73.334 -78.5 98.001 -131.5s37 -105.167 37 -156.5c0 -66 -18.167 -128.333 -54.5 -187s-87.5 -108 -153.5 -148c-42.667 -26.667 -102.334 -51.667 -179.001 -75l-324 298
c-40 -109.333 -81.333 -207 -124 -293l-225 253c111.333 174.667 167 358 167 550c0 138 -24.333 257.667 -73 359c-26 -17.333 -59.667 -43.666 -101 -78.999l-48 42c44 54.667 78.667 93.334 104 116.001c-18 26.667 -41.667 56.334 -71 89.001l62 56
c33.333 -35.333 60.666 -66.666 81.999 -93.999c52.667 29.333 109.334 51.333 170.001 66s127.667 22 201 22c129.333 0 236 -26 320 -78c50 -31.333 90 -74 120 -128s45 -111.667 45 -173c0 -102 -40.667 -187.667 -122 -257zM438 672.996
c4 -38 6.00098 -100.669 6.00098 -188.002v-19v-16v-14v-11v-43c-2 -10.667 -3.33301 -18 -4 -22l81 -37c21.333 -9.33301 40.333 -16.666 57 -21.999c32.667 -8.66699 66.667 -13 102 -13c61.333 0 115.666 15 162.999 45c62.667 40.667 94 97 94 169
c0 60 -30.333 120 -91 180c-34.667 -17.333 -90 -36.666 -166 -57.999l-117 102zM474.001 802.994l-69 60l18 -84zM253.001 1206.99c64 -97.333 111.999 -202.666 143.999 -315.999c56 -6 96 -9 120 -9c70 0 131.667 15 185 45c26.667 14.667 48.334 34.5 65.001 59.5
s25 49.167 25 72.5c0 32.667 -13.5 64.667 -40.5 96s-63.833 56.166 -110.5 74.499s-102 27.5 -166 27.5c-81.333 0 -155.333 -16.667 -222 -50z" />
    <glyph glyph-name="atilde" unicode="&#xe3;" horiz-adv-x="1155" 
d="M301 701c12 -46.667 25 -87.335 39 -122.002c14 -36 29.667 -68.333 47 -97c34 -56 92.333 -128.333 175 -217l-218 -283c-50.667 60.667 -90.334 122 -119.001 184c-54.667 127.333 -82 255.333 -82 384l4 99c7.33301 28 11.833 47.333 13.5 58s2.5 35.667 2.5 75
c20 116.667 50 232.334 90 347.001c-33.333 17.333 -68 37.333 -104 60s-74.333 49.334 -115 80.001l48 53c78 -48.667 146.333 -83 205 -103l43 100l47 -21l-30 -96c44 -10 85.667 -15 125 -15c68 0 130.5 11.167 187.5 33.5s127.5 62.833 211.5 121.5l200 -219
c-72 -38 -134.5 -64 -187.5 -78s-115.833 -21 -188.5 -21c-125.333 0 -250.666 25 -375.999 75c-24.667 -98.667 -37 -178.667 -37 -240c-4.66699 -18 -7 -36.333 -7 -55c0 -32 8.66699 -66.333 26 -103z" />
    <glyph glyph-name="atilde" unicode="&#x433;" horiz-adv-x="1155" 
d="M301 701c12 -46.667 25 -87.335 39 -122.002c14 -36 29.667 -68.333 47 -97c34 -56 92.333 -128.333 175 -217l-218 -283c-50.667 60.667 -90.334 122 -119.001 184c-54.667 127.333 -82 255.333 -82 384l4 99c7.33301 28 11.833 47.333 13.5 58s2.5 35.667 2.5 75
c20 116.667 50 232.334 90 347.001c-33.333 17.333 -68 37.333 -104 60s-74.333 49.334 -115 80.001l48 53c78 -48.667 146.333 -83 205 -103l43 100l47 -21l-30 -96c44 -10 85.667 -15 125 -15c68 0 130.5 11.167 187.5 33.5s127.5 62.833 211.5 121.5l200 -219
c-72 -38 -134.5 -64 -187.5 -78s-115.833 -21 -188.5 -21c-125.333 0 -250.666 25 -375.999 75c-24.667 -98.667 -37 -178.667 -37 -240c-4.66699 -18 -7 -36.333 -7 -55c0 -32 8.66699 -66.333 26 -103z" />
    <glyph glyph-name="adieresis" unicode="&#xe4;" horiz-adv-x="1119" 
d="M178 1179c-24.667 -20 -58 -50 -100 -90l-44 37c38 46.667 73.667 84.334 107 113.001l-23 30c-9.33301 12 -19.333 24 -30 36l46 63c24.667 -25.333 48 -51.333 70 -78c38.667 25.333 78.167 44.333 118.5 57s83.5 19 129.5 19c133.333 0 259.666 -48.333 378.999 -145
c80 -64.667 142.333 -142.834 187 -234.501s67 -188.167 67 -289.5c0 -76 -12.667 -155.5 -38 -238.5s-60 -157.5 -104 -223.5c-49.333 -77.333 -121.666 -153 -216.999 -227l-315 324c-4 -43.333 -13.5 -85.5 -28.5 -126.5s-47.5 -117.833 -97.5 -230.5l-251 259
c63.333 98.667 109.333 183 138 253c50 120 75 243.667 75 371c0 124 -23 231 -69 321zM257 1232c58.667 -80.667 101.332 -157.002 127.999 -229.002c40 -111.333 60 -235.666 60 -372.999c0 -60 -5 -126 -15 -198c47.333 -24.667 91.333 -37 132 -37
c82.667 0 149 31.333 199 94c58.667 74.667 88 162.334 88 263.001c0 106 -24.667 207 -74 303c-45.333 89.333 -104.666 154 -177.999 194c-51.333 27.333 -103 41 -155 41c-58 0 -119.667 -19.333 -185 -58z" />
    <glyph glyph-name="adieresis" unicode="&#x434;" horiz-adv-x="1119" 
d="M178 1179c-24.667 -20 -58 -50 -100 -90l-44 37c38 46.667 73.667 84.334 107 113.001l-23 30c-9.33301 12 -19.333 24 -30 36l46 63c24.667 -25.333 48 -51.333 70 -78c38.667 25.333 78.167 44.333 118.5 57s83.5 19 129.5 19c133.333 0 259.666 -48.333 378.999 -145
c80 -64.667 142.333 -142.834 187 -234.501s67 -188.167 67 -289.5c0 -76 -12.667 -155.5 -38 -238.5s-60 -157.5 -104 -223.5c-49.333 -77.333 -121.666 -153 -216.999 -227l-315 324c-4 -43.333 -13.5 -85.5 -28.5 -126.5s-47.5 -117.833 -97.5 -230.5l-251 259
c63.333 98.667 109.333 183 138 253c50 120 75 243.667 75 371c0 124 -23 231 -69 321zM257 1232c58.667 -80.667 101.332 -157.002 127.999 -229.002c40 -111.333 60 -235.666 60 -372.999c0 -60 -5 -126 -15 -198c47.333 -24.667 91.333 -37 132 -37
c82.667 0 149 31.333 199 94c58.667 74.667 88 162.334 88 263.001c0 106 -24.667 207 -74 303c-45.333 89.333 -104.666 154 -177.999 194c-51.333 27.333 -103 41 -155 41c-58 0 -119.667 -19.333 -185 -58z" />
    <glyph glyph-name="aring" unicode="&#xe5;" horiz-adv-x="1191" 
d="M354 1102c-15.333 -42 -27.168 -83.3301 -35.501 -123.997s-12.5 -82.334 -12.5 -125.001c66 14.667 124.667 22 176 22c73.333 0 135 -9.16699 185 -27.5s103.667 -51.833 161 -100.5l-211 -221c-97.333 95.333 -196.333 151.666 -297 168.999
c24 -96.667 62 -175.667 114 -237c39.333 -48.667 87 -88.334 143 -119.001c79.333 -42.667 164 -64 254 -64c89.333 0 207 26.333 353 79l-230 -338c-35.333 -6 -66.5 -10.667 -93.5 -14s-51.5 -5 -73.5 -5c-88.667 0 -176 14.333 -262 43
c-155.333 52 -261 158.667 -317 320c-14 42 -24.667 86 -32 132s-11 94 -11 144v40c-19.333 -14 -50.666 -47 -93.999 -99l-57 34c38 64.667 91.667 125.334 161 182.001c3.33301 24.667 7.66602 49.167 12.999 73.5s11.666 47.666 18.999 69.999s17.5 50 30.5 83
s29.5 71.5 49.5 115.5c-52.667 28 -121.667 71.333 -207 130l43 47c38.667 -20.667 71.334 -36 98.001 -46c26 -8 66 -17 120 -27c18 26 38.333 53 61 81l49 -38l-35 -54c44 -4 83 -6 117 -6c43.333 0 84.333 2.33301 123 7s74.334 12 107.001 22
c66 18.667 129.667 50 191 94l205 -225c-64 -38 -122 -64 -174 -78c-38 -10 -76 -17.667 -114 -23s-76.667 -8 -116 -8c-129.333 0 -263 30.333 -401 91z" />
    <glyph glyph-name="aring" unicode="&#x435;" horiz-adv-x="1191" 
d="M354 1102c-15.333 -42 -27.168 -83.3301 -35.501 -123.997s-12.5 -82.334 -12.5 -125.001c66 14.667 124.667 22 176 22c73.333 0 135 -9.16699 185 -27.5s103.667 -51.833 161 -100.5l-211 -221c-97.333 95.333 -196.333 151.666 -297 168.999
c24 -96.667 62 -175.667 114 -237c39.333 -48.667 87 -88.334 143 -119.001c79.333 -42.667 164 -64 254 -64c89.333 0 207 26.333 353 79l-230 -338c-35.333 -6 -66.5 -10.667 -93.5 -14s-51.5 -5 -73.5 -5c-88.667 0 -176 14.333 -262 43
c-155.333 52 -261 158.667 -317 320c-14 42 -24.667 86 -32 132s-11 94 -11 144v40c-19.333 -14 -50.666 -47 -93.999 -99l-57 34c38 64.667 91.667 125.334 161 182.001c3.33301 24.667 7.66602 49.167 12.999 73.5s11.666 47.666 18.999 69.999s17.5 50 30.5 83
s29.5 71.5 49.5 115.5c-52.667 28 -121.667 71.333 -207 130l43 47c38.667 -20.667 71.334 -36 98.001 -46c26 -8 66 -17 120 -27c18 26 38.333 53 61 81l49 -38l-35 -54c44 -4 83 -6 117 -6c43.333 0 84.333 2.33301 123 7s74.334 12 107.001 22
c66 18.667 129.667 50 191 94l205 -225c-64 -38 -122 -64 -174 -78c-38 -10 -76 -17.667 -114 -23s-76.667 -8 -116 -8c-129.333 0 -263 30.333 -401 91z" />
    <glyph glyph-name="ae" unicode="&#xe6;" horiz-adv-x="1692" 
d="M690 719c6 32.667 10.666 64.832 13.999 96.499s5 62.5 5 92.5c0 79.333 -8.66699 149 -26 209s-50.666 131 -99.999 213l74 49c68 -100 118.5 -192.667 151.5 -278s59.833 -192.666 80.5 -321.999l51 31c-8 68 -12 132.667 -12 194c0 25.333 1 53.166 3 83.499
s5.33301 64.833 10 103.5l71 -16v-65c0 -82.667 8.33301 -157 25 -223c148.667 142 234 317.333 256 526l252 -226c-72 -182.667 -219.333 -339 -442 -469c55.333 -104.667 119 -188.5 191 -251.5s166.333 -116.167 283 -159.5l-228 -296
c-189.333 163.333 -316.333 378 -381 644l-63 -19l2 -36c0 -130.667 -24.667 -268.667 -74 -414c-8.66699 -25.333 -20.5 -52.666 -35.5 -81.999s-33.833 -62 -56.5 -98l-230 303c72 107.333 124 212.666 156 315.999l-63 19c-64.667 -266 -191.667 -480.667 -381 -644
l-228 296c116.667 43.333 211 96.5 283 159.5s135.667 146.833 191 251.5c-222.667 130 -370 286.333 -442 469l252 226c22 -208.667 107.333 -384 256 -526c16.667 66 25 140.333 25 223v65l71 16c4.66699 -38.667 8 -73.167 10 -103.5s3 -58.166 3 -83.499
c0 -61.333 -4 -126 -12 -194z" />
    <glyph glyph-name="ae" unicode="&#x436;" horiz-adv-x="1692" 
d="M690 719c6 32.667 10.666 64.832 13.999 96.499s5 62.5 5 92.5c0 79.333 -8.66699 149 -26 209s-50.666 131 -99.999 213l74 49c68 -100 118.5 -192.667 151.5 -278s59.833 -192.666 80.5 -321.999l51 31c-8 68 -12 132.667 -12 194c0 25.333 1 53.166 3 83.499
s5.33301 64.833 10 103.5l71 -16v-65c0 -82.667 8.33301 -157 25 -223c148.667 142 234 317.333 256 526l252 -226c-72 -182.667 -219.333 -339 -442 -469c55.333 -104.667 119 -188.5 191 -251.5s166.333 -116.167 283 -159.5l-228 -296
c-189.333 163.333 -316.333 378 -381 644l-63 -19l2 -36c0 -130.667 -24.667 -268.667 -74 -414c-8.66699 -25.333 -20.5 -52.666 -35.5 -81.999s-33.833 -62 -56.5 -98l-230 303c72 107.333 124 212.666 156 315.999l-63 19c-64.667 -266 -191.667 -480.667 -381 -644
l-228 296c116.667 43.333 211 96.5 283 159.5s135.667 146.833 191 251.5c-222.667 130 -370 286.333 -442 469l252 226c22 -208.667 107.333 -384 256 -526c16.667 66 25 140.333 25 223v65l71 16c4.66699 -38.667 8 -73.167 10 -103.5s3 -58.166 3 -83.499
c0 -61.333 -4 -126 -12 -194z" />
    </font>
</defs>
</svg>
